<svg width="428" height="542" viewBox="0 0 428 542" fill="none" xmlns="http://www.w3.org/2000/svg">
<path d="M364.52 135C382.151 138.607 393.299 157.165 396.802 173.638C398.824 183.146 399.025 192.912 393.514 201.314C393.15 201.869 390.972 204.311 391.161 204.596C405.885 213.786 417.077 230.707 419.686 247.954C421.593 270.136 425.318 292.226 427.159 314.401C427.537 318.963 426.139 325.982 422.906 327.426C419.673 328.869 408.394 329.798 401.456 324.619L401.95 360.97C402.108 372.481 402.866 384.273 402.68 395.76C402.604 400.446 400.657 406.034 395.334 406.654C391.795 407.067 382.805 406.879 379.577 405.663C372.593 403.03 366.903 397.206 364.002 390.399C359.402 389.983 354.254 391.172 349.884 389.516C339.111 385.432 332.251 373.878 331.642 362.638L331.638 278.041C331.235 278.257 331.101 278.749 330.685 279.125C322.622 286.425 311.751 275.011 308.235 267.965C306.65 264.788 305.713 261.344 305 257.88V252.6C308.428 235.306 309.791 217.242 313.236 199.996C314.768 192.323 318.309 185.284 326.255 182.775L340.28 179.637C335.537 168.513 332.374 154.948 337.839 143.479C339.733 139.504 343.638 135.582 348.2 135H364.52ZM348.863 139.142C342.967 139.998 340.619 147.332 340.043 152.403C338.237 168.293 347.994 189.162 360.196 199.204C369.085 206.519 380.891 210.39 384.125 195.525C388.013 177.648 375.775 152.113 360.421 142.579C357.201 140.579 352.737 138.58 348.863 139.142ZM346.689 190.272C346.111 189.75 341.445 187.472 340.442 187.038C327.834 181.59 319.129 187.484 316.596 200.236C313.106 217.8 311.621 236.253 308.35 253.91C307.971 260.225 310.734 267.23 314.716 272.044C319.883 278.289 329.298 282.548 330.689 270.969L330.68 212.4C331.067 208.944 335.525 209.833 335.25 213.11L335.229 364.571C336.228 373.789 342.019 382.914 350.754 386.486C356.303 388.755 359.43 385.988 359.971 380.411L359.96 291.6C360.115 289.127 362.953 288.282 364.339 290.341L364.508 379.692C365.287 388.606 370.185 397.303 378.195 401.525C380.813 402.905 384.072 404.442 386.825 402.465C389.263 400.713 389.462 397.037 389.73 394.33L389.725 242.885C390.533 240.95 392.808 240.794 393.858 242.582L394.03 301.93C394.479 309.86 400.209 320.93 407.963 323.757C416.772 326.97 417.161 317.594 416.566 311.554C414.554 291.126 410.51 270.816 408.37 250.39C405.848 235.738 397.156 219.653 384.996 210.884C384.307 210.388 381.772 208.586 381.14 208.481C380.148 208.318 377.98 209.363 376.818 209.578C367.436 211.312 356.538 202.533 350.846 195.834C349.671 194.45 347.719 191.205 346.689 190.272Z" fill="black"/>
<path d="M346.686 190.272C347.716 191.204 349.668 194.449 350.843 195.833C356.535 202.532 367.433 211.311 376.815 209.577C377.977 209.362 380.145 208.317 381.137 208.481C381.769 208.585 384.304 210.387 384.993 210.884C397.153 219.652 405.845 235.737 408.367 250.389C410.507 270.815 414.551 291.126 416.563 311.553C417.158 317.593 416.769 326.969 407.96 323.756C400.206 320.929 394.476 309.859 394.027 301.929L393.855 242.582C392.805 240.793 390.53 240.95 389.723 242.885L389.727 394.329C389.459 397.036 389.26 400.712 386.822 402.464C384.069 404.441 380.81 402.904 378.192 401.524C370.182 397.302 365.284 388.606 364.505 379.691L364.336 290.34C362.95 288.281 360.112 289.126 359.957 291.599L359.968 380.41C359.427 385.987 356.3 388.754 350.751 386.485C342.016 382.913 336.225 373.788 335.226 364.571L335.247 213.109C335.522 209.832 331.064 208.943 330.677 212.399L330.686 270.968C329.295 282.547 319.88 278.288 314.714 272.043C310.731 267.229 307.968 260.224 308.347 253.909C311.618 236.252 313.104 217.799 316.593 200.235C319.126 187.483 327.831 181.59 340.439 187.038C341.442 187.471 346.108 189.749 346.686 190.272Z" fill="white"/>
<path d="M348.864 139.143C352.739 138.581 357.203 140.58 360.423 142.58C375.777 152.114 388.015 177.649 384.126 195.526C380.893 210.391 369.086 206.52 360.197 199.205C347.996 189.163 338.239 168.294 340.044 152.403C340.62 147.333 342.969 139.999 348.864 139.143Z" fill="white"/>
<path d="M258.629 73.6682C247.104 50.4001 240.706 18.0278 215.515 5.38698C209.787 2.51251 200.374 -0.418753 193.983 0.0495824C188.416 0.457522 178.302 4.23945 180.205 11.3736C182.211 18.8958 195.987 16.8093 196.645 27.1168C197.023 33.0354 194.445 42.4612 193.087 48.4352C190.993 57.6542 188.329 66.7683 185.947 75.9137L185.382 76.5705C166.657 83.1031 158.366 100.016 178.43 112.114C182.185 114.378 186.494 115.614 190.316 117.741C190.244 129.293 191.673 141.203 198.66 150.732C187.357 151.711 179.187 160.764 177.475 171.674L176.673 171.912C174.104 167.463 169.367 163.717 164.432 162.278C163.403 155.429 162.911 148.489 161.944 141.631C159.336 123.143 156.416 104.607 153.899 86.1401C153.197 80.9936 152.482 75.8303 151.837 70.6804C151.731 69.8271 152.112 70.0229 152.755 70.1741C156.394 71.0304 161.711 74.5032 164.995 72.4764C167.188 71.123 167.004 69.0262 166.246 66.8683L157.917 53.9788C159.713 49.7943 163.078 46.1647 165.064 41.9998C166.943 38.0571 165.348 36.527 161.39 35.4505L146.819 39.0819C145.587 38.7525 139.944 30.1227 138.171 28.5563C135.829 26.4887 132.048 27.0554 131.477 30.4093C130.639 35.3356 131.419 40.7081 130.85 45.6656C126.386 48.4509 109.762 49.9011 116.65 57.8141L130.86 63.9683C131.084 67.0285 131.613 70.1024 131.857 73.1539C132.111 76.327 130.549 81.8406 134.907 82.3229C139.159 82.7934 140.319 78.2204 142.866 75.6013C143.254 75.203 143.399 74.8299 144.078 74.9846C146.13 95.6915 150.224 116.182 153.393 136.74C154.466 143.699 156.576 153.57 156.732 160.293C156.747 160.97 156.847 161.994 156.508 162.552C156.354 162.806 152.384 164.812 151.407 165.597C143.463 171.987 145.606 183.057 147.06 191.947C149.379 206.127 155.939 234.821 169.653 241.851C176.391 245.305 184.767 244.502 190.51 239.523C189.863 252.874 189.933 266.227 189.634 279.581C189.343 292.571 188.609 305.725 188.461 318.722C188.394 324.568 188.149 330.347 189.492 336.052C192.407 348.433 204.182 362.203 218.078 356.075C219.719 355.351 221.093 354.318 222.688 353.563C225.699 366.855 239.964 381.668 254.412 374.486C277.181 363.167 268.742 343.222 270.327 322.42L270.343 310.595L269.942 292.878C278.268 296.009 284.854 294.631 291.533 289.012C297.961 283.604 300.396 277.999 299.625 269.508C298.759 259.975 295.384 247.773 293.683 237.979C290.602 220.24 288.368 190.179 278.418 175.859C273.317 168.517 266.183 164.617 258.125 161.113C268.293 148.48 268.305 131.132 261.387 116.937C270.197 114.278 283.481 107.263 283.808 96.7903C284.222 83.5077 269.185 77.0524 258.629 73.6682Z" fill="white"/>
<path d="M258.629 73.6682C269.185 77.0524 284.222 83.5077 283.808 96.7903C283.481 107.263 270.197 114.278 261.387 116.937C268.305 131.132 268.293 148.48 258.125 161.113C266.183 164.617 273.317 168.517 278.418 175.859C288.368 190.179 290.602 220.24 293.683 237.979C295.384 247.773 298.759 259.975 299.625 269.508C300.396 277.999 297.961 283.604 291.533 289.012C284.854 294.631 278.268 296.009 269.942 292.878L270.343 310.595L270.327 322.42C268.742 343.222 277.181 363.167 254.412 374.486C239.964 381.668 225.699 366.855 222.688 353.563C221.093 354.318 219.719 355.351 218.078 356.075C204.182 362.203 192.407 348.433 189.492 336.052C188.149 330.347 188.394 324.568 188.461 318.722C188.609 305.725 189.343 292.571 189.634 279.581C189.933 266.227 189.863 252.874 190.51 239.523C184.767 244.502 176.391 245.305 169.653 241.851C155.939 234.821 149.379 206.127 147.06 191.947C145.606 183.057 143.463 171.987 151.407 165.597C152.384 164.812 156.354 162.806 156.508 162.552C156.847 161.994 156.747 160.97 156.732 160.293C156.576 153.57 154.466 143.699 153.393 136.74C150.224 116.182 146.13 95.6915 144.078 74.9846C143.399 74.8299 143.254 75.203 142.866 75.6013C140.319 78.2204 139.159 82.7933 134.907 82.3228C130.549 81.8405 132.111 76.327 131.857 73.1539C131.613 70.1024 131.084 67.0285 130.86 63.9683L116.65 57.8141C109.762 49.9011 126.386 48.4509 130.85 45.6656C131.419 40.7081 130.639 35.3356 131.477 30.4093C132.048 27.0554 135.829 26.4887 138.171 28.5563C139.944 30.1227 145.587 38.7525 146.819 39.0819L161.39 35.4505C165.348 36.527 166.943 38.0571 165.064 41.9998C163.078 46.1647 159.713 49.7943 157.917 53.9788L166.246 66.8683C167.004 69.0262 167.188 71.123 164.995 72.4764C161.711 74.5032 156.394 71.0304 152.755 70.1741C152.112 70.0229 151.731 69.8271 151.837 70.6804C152.482 75.8303 153.197 80.9936 153.899 86.1401C156.416 104.607 159.336 123.143 161.944 141.631C162.911 148.489 163.403 155.429 164.432 162.278C169.367 163.717 174.104 167.463 176.673 171.912L177.475 171.674C179.187 160.764 187.357 151.711 198.66 150.732C191.673 141.203 190.244 129.293 190.316 117.741C186.494 115.614 182.185 114.378 178.43 112.114C158.366 100.016 166.657 83.1031 185.382 76.5705L185.947 75.9137C188.329 66.7683 190.993 57.6542 193.087 48.4352C194.445 42.4612 197.023 33.0354 196.645 27.1168C195.987 16.8093 182.211 18.8958 180.205 11.3736C178.302 4.23942 188.416 0.457522 193.983 0.0495824C200.374 -0.418753 209.787 2.51251 215.515 5.38698C240.706 18.0278 247.104 50.4001 258.629 73.6682ZM220.92 18.1074C212.997 11.1083 199.757 6.0775 189.294 9.00567C188.448 9.78755 194.012 12.1595 194.555 12.4979C198.696 15.0814 203.092 18.5757 203.565 23.8527C204.209 31.0532 202.852 38.3352 201.385 45.3283C198.212 60.4557 193.593 75.297 189.688 90.2345C189.778 90.8618 191.216 92.5394 191.725 93.1172C201.998 104.779 232.555 103.761 246.015 98.9143C250.17 97.418 255.734 94.766 257.219 90.3232C249.111 71.6626 241.895 52.5843 233.087 34.246C230.071 28.6801 225.674 22.3071 220.92 18.1074ZM138.378 41.1785V47.8986C138.378 48.9342 136.793 51.2637 135.948 51.9855C134.263 53.4251 132.204 53.6618 130.403 54.5815C129.974 54.8002 129.637 54.3703 129.824 55.429C137.275 56.405 139.158 61.0626 138.787 68.0567C139.726 68.2912 139.457 67.881 139.718 67.5443C144.239 61.7175 144.162 60.4121 152.326 62.4608C152.883 62.6004 154.527 63.9153 154.27 62.5562C154.064 61.4697 151.608 58.7883 150.933 57.3375C148.287 51.6458 151.714 50.5587 153.854 45.6607C150.824 45.98 146.926 48.2332 143.999 47.1632C141.575 46.2769 140.639 43.6687 139.286 41.7113C139.038 41.3525 139.361 40.9597 138.378 41.1785ZM273.056 102.534C282.183 93.5783 270.387 86.3538 262.811 82.729C261.946 83.3517 262.414 83.2937 262.538 83.7986C262.851 85.0769 264.021 87.0213 264.107 88.2728C264.582 95.1926 260.487 99.6743 254.877 102.889C238.166 112.465 194.293 114.221 183.662 94.6635C181.744 91.1346 182.49 89.2815 183.178 85.5719C174.049 90.3459 170.216 96.9753 179.79 104.237C198.554 118.469 255.955 119.314 273.056 102.534ZM197.441 119.374C196.761 130.02 199.472 140.573 205.495 149.401C215.536 164.12 236.029 174.764 249.993 158.282C259.008 147.64 256.988 131.434 250.798 119.967C246.726 120.133 242.495 121.407 238.369 121.815C226.739 122.963 213.291 122.582 201.827 120.486C200.33 120.213 198.965 119.483 197.441 119.374ZM203.871 158.156C197.461 157.387 191.446 159.555 187.99 165.115C182.206 174.42 182.219 192.363 178.992 202.955C178.011 206.178 174.833 207.818 172.377 204.915C170.666 202.893 171.883 198.511 172.303 195.859C173.079 190.97 174.454 186.146 175.22 181.261C170.89 177.331 165.818 167.629 158.857 169.79C154.845 171.035 152.594 174.938 152.622 179.024C152.677 187.251 157.031 203.036 159.55 211.225C163.761 224.914 171.63 245.973 189.022 231.688L191.837 196.657C192.456 193.835 196.333 193.661 197.612 195.974C198.825 198.166 197.854 199.828 197.829 201.833C197.341 240.404 195.725 278.902 195.419 317.534C195.367 324.095 194.192 329.778 196.017 336.451C198.088 344.021 206.533 354.792 215.319 350.461C218.535 348.875 218.842 342.864 219.043 339.527C219.546 331.181 219.526 322.61 219.858 314.275C220.347 301.94 219.863 288.102 221.067 275.979C221.675 269.865 227.013 270.75 227.589 275.558C228.162 280.334 227.922 288.321 228.006 293.468C228.305 311.616 226.764 331.094 228.401 349.278C229.169 357.815 238.009 370.584 247.646 368.939C254.155 367.829 255.005 360.341 255.294 355.003C257.224 319.375 253.797 282.031 255.296 246.224C254.396 236.527 254.88 226.643 255.297 216.939C255.393 214.721 254.116 207.858 258.231 208.24C262.908 208.675 261.231 217.967 261.37 221.416C262.024 237.683 262.396 255.361 264.242 271.491C264.751 275.942 265.225 279.121 267.974 282.828C272.652 289.136 282.564 289.705 286.459 282.31C289.247 277.017 287.063 268.116 286.114 262.245C283.121 243.713 279.845 224.804 275.931 206.449C272.79 191.715 270.445 179.847 255.264 173.354C253.283 172.506 249.252 170.875 247.223 170.794C245.908 170.742 242.433 172.538 240.615 172.935C227.028 175.897 212.291 168.624 203.871 158.156Z" fill="black"/>
<path d="M203.875 158.158C212.295 168.626 227.031 175.899 240.619 172.936C242.436 172.54 245.912 170.744 247.226 170.796C249.256 170.877 253.286 172.508 255.267 173.356C270.449 179.849 272.793 191.717 275.935 206.45C279.849 224.806 283.124 243.715 286.118 262.247C287.066 268.118 289.25 277.019 286.463 282.312C282.568 289.707 272.656 289.138 267.977 282.83C265.228 279.123 264.754 275.943 264.245 271.493C262.399 255.363 262.028 237.685 261.373 221.418C261.235 217.969 262.911 208.677 258.234 208.242C254.12 207.86 255.396 214.723 255.301 216.941C254.883 226.645 254.399 236.529 255.3 246.226C253.801 282.033 257.228 319.377 255.297 355.005C255.008 360.343 254.158 367.831 247.65 368.941C238.012 370.586 229.173 357.817 228.404 349.28C226.767 331.096 228.308 311.617 228.01 293.47C227.925 288.323 228.165 280.335 227.593 275.56C227.016 270.752 221.678 269.866 221.071 275.981C219.867 288.104 220.351 301.942 219.861 314.277C219.53 322.612 219.55 331.183 219.047 339.529C218.846 342.866 218.538 348.877 215.323 350.462C206.537 354.794 198.092 344.023 196.021 336.453C194.195 329.78 195.37 324.097 195.422 317.536C195.728 278.904 197.345 240.405 197.833 201.835C197.858 199.83 198.828 198.168 197.616 195.976C196.336 193.663 192.459 193.837 191.841 196.658L189.026 231.69C171.633 245.975 163.765 224.916 159.554 211.227C157.034 203.037 152.681 187.253 152.625 179.026C152.598 174.94 154.849 171.037 158.86 169.792C165.822 167.631 170.893 177.332 175.224 181.263C174.458 186.148 173.083 190.972 172.307 195.861C171.886 198.513 170.67 202.894 172.381 204.917C174.836 207.82 178.014 206.18 178.996 202.957C182.222 192.365 182.21 174.421 187.994 165.117C191.45 159.557 197.464 157.389 203.875 158.158Z" fill="white"/>
<path d="M220.916 18.1077C225.671 22.3075 230.067 28.6805 233.084 34.2464C241.892 52.5847 249.107 71.663 257.216 90.3236C255.73 94.7664 250.166 97.4184 246.011 98.9146C232.551 103.762 201.994 104.779 191.722 93.1176C191.213 92.5397 189.774 90.8623 189.684 90.2349C193.589 75.2974 198.209 60.456 201.381 45.3286C202.848 38.3356 204.206 31.0536 203.561 23.8531C203.088 18.576 198.693 15.0818 194.551 12.4982C194.009 12.1599 188.444 9.78791 189.291 9.00603C199.754 6.07786 212.993 11.1087 220.916 18.1077ZM216.579 50.5463V59.5064C219.322 58.9514 221.192 55.9035 223.382 54.2719C226.264 54.5617 228.685 56.6776 231.647 56.2459L228.796 47.9041L233.69 40.979L225.01 41.5181C224.078 41.2301 221.595 37.063 220.644 36.0959C220.256 35.7014 220.119 35.3222 219.435 35.478L217.406 43.0238L209.248 45.6647C209.088 46.3913 209.463 46.4678 209.921 46.8175C210.744 47.4442 216.359 50.1937 216.579 50.5463ZM207.618 86.1831V94.5323L214.776 89.6462L222.686 92.4937L219.982 84.5502L225.131 77.6245C224.816 75.8353 222.925 76.9984 221.687 77.0377C220.581 77.0728 216.856 77.2249 216.173 76.8137L211.894 70.5111L208.666 78.2709L200.695 80.2818C200.013 81.2268 205.249 84.0107 205.963 84.5798C206.568 85.0625 207.068 85.6442 207.618 86.1831Z" fill="white"/>
<path d="M197.438 119.375C198.962 119.485 200.327 120.214 201.824 120.487C213.288 122.583 226.737 122.964 238.366 121.816C242.492 121.409 246.723 120.134 250.795 119.968C256.985 131.436 259.005 147.641 249.99 158.283C236.026 174.766 215.534 164.122 205.492 149.402C199.47 140.575 196.758 130.021 197.438 119.375Z" fill="white"/>
<path d="M273.058 102.532C255.957 119.312 198.557 118.467 179.793 104.234C170.219 96.9728 174.052 90.3434 183.181 85.5694C182.493 89.2791 181.746 91.1321 183.665 94.661C194.295 114.219 238.168 112.462 254.88 102.886C260.49 99.6718 264.585 95.1902 264.109 88.2703C264.023 87.0189 262.854 85.0744 262.541 83.7961C262.417 83.2912 261.948 83.3492 262.814 82.7266C270.39 86.3514 282.186 93.5758 273.058 102.532Z" fill="white"/>
<path d="M138.38 41.1803C139.364 40.9614 139.041 41.3543 139.289 41.713C140.641 43.6705 141.577 46.2787 144.002 47.165C146.929 48.2349 150.827 45.9818 153.856 45.6625C151.716 50.5605 148.29 51.6476 150.936 57.3393C151.61 58.79 154.067 61.4714 154.272 62.5579C154.53 63.9171 152.885 62.6021 152.329 62.4625C144.165 60.4139 144.241 61.7193 139.721 67.5461C139.459 67.8827 139.728 68.293 138.79 68.0585C139.161 61.0644 137.277 56.4067 129.826 55.4307C129.639 54.372 129.977 54.802 130.405 54.5833C132.206 53.6635 134.265 53.4268 135.951 51.9873C136.796 51.2655 138.38 48.936 138.38 47.9003V41.1803Z" fill="white"/>
<path d="M216.579 50.5494C216.359 50.1969 210.744 47.4473 209.922 46.8206C209.463 46.471 209.089 46.3944 209.248 45.6678L217.406 43.027L219.435 35.4811C220.119 35.3253 220.256 35.7046 220.644 36.0991C221.595 37.0661 224.078 41.2332 225.01 41.5212L233.69 40.9822L228.796 47.9073L231.648 56.2491C228.685 56.6808 226.264 54.5649 223.382 54.275C221.192 55.9066 219.322 58.9545 216.579 59.5095V50.5494Z" fill="black"/>
<path d="M207.624 86.1798C207.074 85.6409 206.575 85.0592 205.969 84.5765C205.256 84.0074 200.019 81.2235 200.702 80.2785L208.672 78.2676L211.901 70.5078L216.18 76.8104C216.863 77.2215 220.588 77.0695 221.694 77.0344C222.932 76.9951 224.822 75.832 225.137 77.6212L219.989 84.5469L222.693 92.4904L214.783 89.6429L207.624 94.529V86.1798Z" fill="black"/>
<path d="M341.992 110.369C342.064 110.496 343.945 111.613 344.39 112.03C350.28 117.526 349.743 123.248 343.684 128.29C341.138 130.409 338.065 131.582 335.247 133.279C335.269 136.959 336.439 140.508 336.628 144.17C337.155 154.354 334.307 164.479 327.434 172.095C332.26 175.675 338.025 178.08 342.624 181.984C350.492 188.661 353.297 199.303 356.027 208.857C358.234 222.275 363.842 236.65 365.855 249.905C367.04 257.709 365.138 267.096 359.921 273.13C355.192 278.6 348.112 280.274 341.9 283.448L341.927 378.438C341.236 388.038 335.968 392.482 328.017 396.679C316.584 402.714 300.767 396.662 295.967 384.801C295.632 383.973 294.864 380.227 294.392 380.016C288.229 390.675 271.908 385.664 264.753 378.565C257.551 371.42 257.004 363.262 257.106 353.679C257.211 343.869 257.715 333.841 257.842 324.03C258.009 311.07 258.042 298.169 258.112 285.22C257.907 284.54 257.098 284.266 256.547 283.96C251.404 281.107 244.406 279.517 239.116 276.659C236.981 275.195 236.395 267.748 235.397 265.186C229.705 263.836 224.976 263.1 221.091 258.294C215.244 251.06 212.7 231.561 223.091 226.879C222.425 224.063 221.819 221.19 221.064 218.398C220.34 215.721 217.666 209.058 217.875 206.716C217.897 206.472 219.103 202.352 219.231 202.04C220.027 200.093 222.186 200.389 223.929 200.694C225.562 200.979 229.763 203.045 230.817 202.992C232.235 202.92 232.494 199.895 233.808 199.305C236.64 198.034 240.159 200.883 242.631 201.949C244.895 194.069 246.946 184.829 251.054 177.688C255.215 170.453 261.799 167.254 269.84 165.91C268.543 161.599 265.466 157.983 263.823 153.734C261.816 148.541 260.555 142.491 260.473 136.919C257.659 135.264 254.523 134.044 251.853 132.14C238.49 122.61 242.788 108.076 257.305 103.386C260.042 90.1531 265.825 77.9742 277.643 70.7276C305.624 53.5695 339.609 70.932 341.91 103.558C342 104.84 341.655 109.786 341.992 110.369Z" fill="black"/>
<path d="M308.701 258.834C310.183 258.973 311.583 258.687 313.014 258.377C317.563 257.394 322.477 255.682 326.922 254.266C328.267 253.837 331.281 253.727 331.837 252.468C332.529 250.9 331.867 243.197 331.623 241.039C331.258 237.809 329.261 224.555 327.916 222.487C326.785 220.749 324.393 219.657 323.904 222.278C323.203 226.034 324.291 233.665 324.637 237.779C324.724 238.802 325.237 239.798 325.321 240.981C325.437 242.618 325.576 246.979 325.31 248.415C325.071 249.709 320.652 250.685 319.383 250.967C317.568 251.369 310.663 252.685 309.216 252.5C308.273 252.38 306.013 250.895 304.476 250.521C300.035 249.439 293.271 248.275 288.736 247.889C285.287 247.595 281.736 248.143 278.304 247.369C276.77 242.061 275.168 236.71 273.83 231.351C273.032 228.156 272.696 224.396 271.862 221.306C270.922 217.819 268.926 217.413 265.599 217.145C265.968 213.338 267.027 204.5 263.57 201.948C257.74 197.644 261.198 213.021 259.064 215.019C255.561 213.2 258.737 211.143 256.247 207.951C254.182 205.305 251.494 205.882 248.978 204.191C248.807 203.507 251.066 195.073 251.49 193.673C253.515 186.981 256.218 178.768 262.537 175.043C265.536 173.275 272.642 171.221 275.94 172.358C277.089 172.754 282.442 177.306 284.354 178.431C294.445 184.37 307.378 185.949 317.907 180.205C328.487 185.224 336.757 190.069 341.129 201.502C346.362 215.189 350.143 236.08 352.96 250.793C354.483 258.749 355.708 268.426 347.675 273.252C341.301 277.081 329.015 281.02 321.614 281.462C319.643 281.579 314.483 281.766 312.774 281.439C311.725 281.239 309.955 279.115 309.847 278.007L308.701 258.834Z" fill="#FBFBFB"/>
<path d="M328.486 287.101C328.217 311.296 328.839 335.527 328.503 359.723C328.408 366.516 328.697 374.593 328.127 381.253C326.863 396.019 311.404 395.473 303.762 385.843C298.101 378.71 300.094 362.71 299.883 353.686C299.567 340.189 299.16 326.575 298.441 313.085C298.296 310.38 299.329 303.322 296.942 301.832C294.249 300.152 292.393 301.766 292.101 304.596C291.427 311.118 291.974 318.808 291.757 325.451C291.257 340.733 291.409 357.742 289.97 372.773C288.836 384.611 274.688 379.463 269.117 373.853C261.055 365.736 263.763 354.801 263.848 344.531C264.003 325.804 263.695 307.069 263.833 288.341L264.658 287.502C268.056 289.028 271.476 290.727 274.954 292.055C276.838 292.775 281.286 294.624 283.083 294.544C287.683 294.339 286.183 287.156 287.571 284.521C288.377 282.991 290.609 284.36 291.66 284.535C295.578 285.188 300.028 285.671 303.836 286.491C305.518 286.853 307.329 288.061 309.284 288.136C310.538 288.184 311.566 287.542 312.767 287.459C315.925 287.242 318.874 287.913 321.965 287.823C322.955 287.794 328.251 286.872 328.486 287.101Z" fill="#FBFBFB"/>
<path d="M315.06 74.407C304.732 74.4404 297.774 78.4909 291.207 86.0645C284.674 93.5984 278.793 107.718 278.322 117.693C278.209 120.088 278.79 125.52 282.34 123.478C284.767 122.081 284.624 115.541 285.126 112.841C288.245 96.0577 302.176 75.5474 321.726 80.64C332.037 83.3258 335.767 96.2216 336.273 105.663C336.409 108.216 335.779 109.585 335.583 111.727C335.085 117.164 343.535 116.063 340.806 121.533C339.429 124.292 333.508 126.231 330.592 127.216C310.308 134.061 278.099 139.206 258.647 128.527C250.283 123.934 246.894 116.075 256.589 110.454C257.197 110.452 258.178 118.116 261.015 115.578C262.665 114.101 263.332 105.915 263.935 103.309C266.239 93.3502 271.504 81.8936 280.553 76.4707C286.848 72.698 296.253 69.9884 303.592 70.5095C307.226 70.7675 312.124 72.2544 315.06 74.407Z" fill="#FBFBFB"/>
<path d="M324.243 135.18C325.372 140.376 326.303 145.584 326.732 150.886C325.986 178.699 298.714 186.31 280.073 167.164C272.535 159.421 266.811 149.872 267.013 138.714C267.217 138.477 269.918 139.566 270.463 139.677C288.309 143.319 306.932 139.676 324.243 135.18Z" fill="#FBFBFB"/>
<path d="M271.229 247.851C262.731 249.921 264.963 258.812 266.412 265.269C267.334 269.38 269.27 275.724 272.901 278.212C274.149 279.067 280.694 281.649 280.994 282.143C279.604 286.05 282.102 288.201 277.021 286.104C265.746 281.452 254.59 276.385 243.429 271.472C242.383 269.317 242.836 266.714 241.623 264.66C243.737 263.297 245.255 260.926 246.072 258.565C250.559 245.597 244.42 228.471 229.525 226.473C228.446 221 226.358 215.669 225.401 210.175C225.313 209.671 225.16 209.112 225.496 208.664L230.62 210.262C231.632 212.178 231.22 213.436 233.206 214.742C234.737 215.748 249.436 221.873 250.968 222.063C254.525 222.506 254.055 220.862 255.606 220.393C257.365 219.861 263.262 222.938 265.236 223.695C267.554 231.659 269.426 239.758 271.229 247.851Z" fill="#FBFBFB"/>
<path d="M304.456 280.383C297.255 278.83 288.944 278.47 282.123 275.691C277.575 273.838 275.593 272.446 273.715 267.847C272.065 263.805 269.681 254.785 276.048 253.918C284.777 253.602 293.452 254.798 301.972 256.549C303.731 257.752 302.886 266.174 303.048 268.545C303.158 270.145 304.892 279.908 304.456 280.383Z" fill="#FBFBFB"/>
<path d="M226.997 233.128C234.247 231.293 240.806 240.132 241.235 246.629C241.808 255.321 237.348 262.782 228.524 256.16C222.745 251.823 220.925 241.725 224.461 235.539C224.957 234.673 226.007 233.379 226.997 233.128Z" fill="#FBFBFB"/>
<path d="M251.108 210.791L248.111 215.377L238.391 211.318C236.927 210.23 236.791 206.402 238.854 205.898L251.108 210.791Z" fill="#FAFAFA"/>
<path d="M75.4531 337.262L162.508 353.517V325.386L75.4531 309.336V337.262ZM126.293 326.568L153.876 331.671C154.841 331.85 155.62 332.78 155.62 333.742C155.62 334.709 154.841 335.345 153.876 335.167L126.293 330.055C125.332 329.877 124.557 328.955 124.557 327.99C124.557 327.031 125.332 326.39 126.293 326.568ZM126.293 335.74L153.876 340.865C154.841 341.044 155.62 341.975 155.62 342.937C155.62 343.904 154.841 344.54 153.876 344.36L126.293 339.227C125.332 339.049 124.557 338.126 124.557 337.161C124.557 336.202 125.332 335.561 126.293 335.74ZM97.4489 324.165C102.72 324.248 103.516 332.668 97.5872 330.992C93.8628 329.941 93.8108 324.111 97.4489 324.165ZM85.7599 321.999C90.94 321.979 91.8892 330.403 86.0875 328.855C82.1002 327.79 82.1979 322.011 85.7599 321.999Z" fill="white"/>
<path d="M75.4531 368.662L162.508 385.148V357.023L75.4531 340.742V368.662ZM126.293 357.754L153.876 362.93C154.841 363.111 155.62 364.044 155.62 365.005C155.62 365.972 154.841 366.607 153.876 366.425L126.293 361.241C125.332 361.061 124.557 360.136 124.557 359.172C124.557 358.213 125.332 357.574 126.293 357.754ZM126.293 366.926L153.876 372.123C154.841 372.305 155.62 373.238 155.62 374.2C155.62 375.167 154.841 375.801 153.876 375.619L126.293 370.414C125.332 370.232 124.557 369.307 124.557 368.343C124.557 367.384 125.332 366.745 126.293 366.926ZM95.4281 355.777C98.2665 352.448 104.155 358.439 100.83 361.38C97.9556 363.93 92.6888 358.983 95.4281 355.777ZM84.3003 353.106C87.1507 351.319 91.383 355.185 89.715 358.447C88.7547 360.334 85.8345 360.248 84.1797 358.435C82.6287 356.73 82.6517 354.146 84.3003 353.106Z" fill="white"/>
<path d="M75.4531 400.051L162.508 416.767V388.636L75.4531 372.125V400.051ZM126.293 389.916L153.876 395.167C154.841 395.351 155.62 396.286 155.62 397.247C155.62 398.214 154.841 398.847 153.876 398.663L126.293 393.404C125.332 393.221 124.557 392.294 124.557 391.33C124.557 390.371 125.332 389.734 126.293 389.916ZM126.293 399.089L153.876 404.36C154.841 404.545 155.62 405.48 155.62 406.442C155.62 407.409 154.841 408.041 153.876 407.856L126.293 402.576C125.332 402.392 124.557 401.465 124.557 400.501C124.557 399.542 125.332 398.905 126.293 399.089ZM97.9672 387.302C100.588 387.692 102.426 390.56 101.475 392.838C100.582 394.97 97.3337 394.963 95.6814 392.891C93.6842 390.399 95.0081 386.866 97.9672 387.302ZM85.9553 385.077C88.933 385.239 91.1873 388.734 89.5482 391.093C88.2488 392.954 85.2024 392.481 83.743 390.204C82.2152 387.821 83.4041 384.932 85.9553 385.077Z" fill="white"/>
<path d="M75.4531 421.471L162.508 438.345V420.265L75.4531 403.523V421.471Z" fill="white"/>
<path d="M65.2726 294.305C63.9441 294.379 62.8163 295.121 62.4156 296.383L62.3125 428.15C62.45 430.402 64.4538 432.07 66.5328 432.476L172.43 453.115C173.785 453.263 174.865 452.984 175.579 452.296L176.542 368.631V318.945C176.55 318.204 176.395 317.48 176.106 316.819C175.691 316.062 175.154 315.384 174.521 314.801C174.024 314.426 173.451 314.133 172.809 313.958L65.2726 294.305ZM166.007 440.777C166.007 441.745 165.227 442.375 164.26 442.187L73.7376 424.615C72.7856 424.43 72.0173 423.506 72.0173 422.545V306.968C72.0173 306.008 72.7856 305.374 73.7376 305.549L164.26 322.212C165.227 322.39 166.007 323.315 166.007 324.283V440.777Z" fill="white"/>
<path d="M176.454 456.218C175.891 455.911 175.543 455.317 175.551 454.676L175.578 452.294C174.864 452.982 173.784 453.261 172.429 453.113L66.5321 432.474C64.4531 432.068 62.4493 430.4 62.3118 428.148L62.415 296.381C62.8156 295.119 63.9434 294.377 65.2719 294.303L172.808 313.956C173.45 314.131 174.023 314.424 174.52 314.799C173.428 313.796 172.049 313.084 170.485 312.811L62.9376 293.654C62.1864 293.52 61.6107 292.91 61.5204 292.152C61.4435 291.51 61.733 290.893 62.247 290.531C60.1936 291.262 58.6915 293.01 58.375 295.351V428.329C58.4836 429.547 59.3532 431.624 60.1314 432.671C61.1329 434.011 63.0618 435.446 64.5619 435.976L173.386 457.314C175.099 457.478 176.606 457.123 177.795 456.352C177.629 456.403 177.457 456.43 177.284 456.43C176.999 456.43 176.713 456.36 176.454 456.218Z" fill="black"/>
<path d="M176.538 368.632L177.088 320.832C177.114 319.379 176.755 318.009 176.102 316.82C176.391 317.482 176.545 318.205 176.538 318.946V368.632Z" fill="black"/>
<path d="M164.258 322.215L73.7359 305.553C72.7839 305.377 72.0156 306.011 72.0156 306.972V422.549C72.0156 423.509 72.7839 424.434 73.7359 424.619L164.258 442.191C165.225 442.378 166.006 441.748 166.006 440.78V324.286C166.006 323.318 165.225 322.393 164.258 322.215ZM162.512 438.353L75.4566 421.48V403.532L162.512 420.274V438.353ZM162.512 416.776L75.4566 400.059V372.133L162.512 388.644V416.776ZM162.512 385.146L75.4566 368.661V340.741L162.512 357.021V385.146ZM162.512 353.523L75.4566 337.268V309.342L162.512 325.392V353.523Z" fill="black"/>
<path d="M126.298 330.056L153.881 335.168C154.846 335.347 155.625 334.71 155.625 333.743C155.625 332.781 154.846 331.851 153.881 331.672L126.298 326.569C125.338 326.391 124.562 327.032 124.562 327.991C124.562 328.956 125.338 329.878 126.298 330.056Z" fill="black"/>
<path d="M126.298 339.228L153.881 344.361C154.846 344.541 155.625 343.905 155.625 342.938C155.625 341.976 154.846 341.045 153.881 340.866L126.298 335.741C125.338 335.562 124.562 336.203 124.562 337.162C124.562 338.127 125.338 339.05 126.298 339.228Z" fill="black"/>
<path d="M126.298 361.237L153.881 366.421C154.846 366.602 155.625 365.968 155.625 365C155.625 364.039 154.846 363.106 153.881 362.925L126.298 357.749C125.338 357.569 124.562 358.208 124.562 359.167C124.562 360.132 125.338 361.056 126.298 361.237Z" fill="black"/>
<path d="M126.298 370.409L153.881 375.614C154.846 375.796 155.625 375.162 155.625 374.195C155.625 373.234 154.846 372.3 153.881 372.118L126.298 366.921C125.338 366.74 124.562 367.379 124.562 368.338C124.562 369.302 125.338 370.228 126.298 370.409Z" fill="black"/>
<path d="M126.298 393.409L153.881 398.668C154.846 398.852 155.625 398.22 155.625 397.252C155.625 396.291 154.846 395.356 153.881 395.172L126.298 389.922C125.338 389.739 124.562 390.376 124.562 391.335C124.562 392.3 125.338 393.226 126.298 393.409Z" fill="black"/>
<path d="M126.298 402.582L153.881 407.861C154.846 408.046 155.625 407.414 155.625 406.447C155.625 405.486 154.846 404.55 153.881 404.366L126.298 399.094C125.338 398.91 124.562 399.547 124.562 400.506C124.562 401.471 125.338 402.398 126.298 402.582Z" fill="black"/>
<path d="M101.473 392.845C102.424 390.567 100.586 387.7 97.9652 387.31C95.0061 386.874 93.6822 390.407 95.6794 392.898C97.3318 394.971 100.58 394.977 101.473 392.845Z" fill="black"/>
<path d="M100.832 361.379C104.158 358.437 98.2688 352.447 95.4304 355.776C92.691 358.982 97.9579 363.928 100.832 361.379Z" fill="black"/>
<path d="M97.5884 330.992C103.517 332.668 102.721 324.248 97.4501 324.164C93.812 324.111 93.8639 329.94 97.5884 330.992Z" fill="black"/>
<path d="M89.7224 358.441C91.3903 355.18 87.158 351.313 84.3077 353.101C82.659 354.141 82.636 356.725 84.1871 358.43C85.8419 360.242 88.7621 360.329 89.7224 358.441Z" fill="black"/>
<path d="M89.546 391.099C91.185 388.741 88.9307 385.245 85.953 385.083C83.4018 384.939 82.2129 387.828 83.7407 390.21C85.2001 392.488 88.2465 392.96 89.546 391.099Z" fill="black"/>
<path d="M86.0892 328.856C91.8909 330.404 90.9418 321.98 85.7616 322C82.1996 322.012 82.1019 327.791 86.0892 328.856Z" fill="black"/>
<path d="M180.299 317.021C180.306 317.463 180.311 317.916 180.317 318.361C180.483 319.177 180.574 320.018 180.558 320.883L180.45 330.277C180.779 368.13 180.402 414.853 180.552 450.466L199.739 437.808C202.156 436.214 203.599 433.533 203.599 430.638V305.61C203.599 304.215 203.275 302.889 202.699 301.703L179.656 315.236C179.943 315.817 180.164 316.416 180.299 317.021Z" fill="white"/>
<path d="M177.596 312.425L200.589 298.921C199.39 297.858 197.899 297.105 196.223 296.808L98.8727 279.585C97.4036 279.324 95.9074 279.505 94.5432 280.104L69.3203 291.175C89.8469 294.775 110.487 298.464 131.189 302.291L171.091 309.398C172.227 309.597 173.293 309.963 174.276 310.455C174.532 310.505 174.788 310.554 175.044 310.604C175.955 311.048 176.827 311.676 177.596 312.425Z" fill="white"/>
<path d="M179.654 315.234L179.297 315.444C179.762 316.354 180.107 317.332 180.316 318.359C180.309 317.914 180.304 317.461 180.297 317.019C180.163 316.414 179.941 315.815 179.654 315.234Z" fill="white"/>
<path d="M180.451 330.273L179.055 451.45L180.552 450.462C180.403 414.849 180.779 368.126 180.451 330.273Z" fill="white"/>
<path d="M175.042 310.602C174.786 310.552 174.53 310.503 174.273 310.453C175.393 311.014 176.404 311.743 177.266 312.615L177.594 312.422C176.825 311.674 175.953 311.045 175.042 310.602Z" fill="white"/>
<path d="M69.1641 291.239L131.187 302.287C110.485 298.46 89.8448 294.771 69.3181 291.172L69.1641 291.239Z" fill="white"/>
<path d="M196.827 293.393L99.4773 276.169C97.3321 275.79 95.1445 276.052 93.1499 276.927L62.5477 290.36C62.4407 290.407 62.3429 290.467 62.25 290.533C62.7204 290.365 63.2196 290.251 63.7403 290.195C64.5721 290.34 65.407 290.488 66.2393 290.634L93.8468 278.515C95.5209 277.78 97.3751 277.558 99.1754 277.876L196.525 295.1C198.718 295.488 200.653 296.532 202.148 298.005L202.421 297.844L203.314 299.365C204.59 301.132 205.337 303.293 205.337 305.607V430.635C205.337 434.105 203.594 437.342 200.698 439.253L180.346 452.68C179.929 454.28 179.041 455.547 177.798 456.353C177.953 456.305 178.103 456.236 178.242 456.144L201.653 440.7C205.045 438.462 207.071 434.699 207.071 430.635V305.607C207.071 299.58 202.763 294.443 196.827 293.393Z" fill="black"/>
<path d="M176.101 316.814C175.756 316.024 175.215 315.326 174.516 314.797C175.149 315.379 175.686 316.058 176.101 316.814Z" fill="black"/>
<path d="M176.542 449.609V368.625L175.578 452.291C176.192 451.699 176.536 450.806 176.542 449.609Z" fill="black"/>
<path d="M180.342 452.68L177.284 454.698L178.825 320.85C178.854 319.233 178.476 317.695 177.791 316.33L177.764 316.346L176.923 314.914C175.482 312.962 173.326 311.55 170.784 311.104L63.2412 291.948L66.236 290.634C65.4037 290.488 64.5689 290.341 63.737 290.195C63.2163 290.251 62.7172 290.365 62.2467 290.533C61.7327 290.894 61.4432 291.512 61.5201 292.153C61.6104 292.912 62.1861 293.521 62.9373 293.655L170.485 312.812C172.049 313.086 173.428 313.797 174.52 314.801C175.219 315.33 175.76 316.028 176.105 316.818C176.758 318.007 177.117 319.377 177.092 320.83L176.541 368.63V449.614C176.536 450.811 176.191 451.704 175.578 452.296L175.55 454.678C175.543 455.319 175.891 455.912 176.453 456.219C176.713 456.361 176.999 456.431 177.284 456.431C177.457 456.431 177.628 456.405 177.794 456.353C179.038 455.547 179.926 454.281 180.342 452.68Z" fill="black"/>
<path d="M180.32 318.359C180.374 322.212 180.417 326.191 180.453 330.275L180.561 320.881C180.576 320.016 180.486 319.175 180.32 318.359Z" fill="black"/>
<path d="M131.188 302.289C145.528 304.94 159.896 307.656 174.274 310.454C173.291 309.961 172.226 309.596 171.089 309.397L131.188 302.289Z" fill="black"/>
<path d="M94.539 280.102C95.9032 279.503 97.3994 279.323 98.8685 279.583L196.219 296.807C197.894 297.103 199.386 297.857 200.585 298.919L202.143 298.004C200.648 296.531 198.713 295.487 196.52 295.1L99.1705 277.876C97.3702 277.557 95.5159 277.779 93.8419 278.514L66.2344 290.633C67.2607 290.813 68.2891 290.994 69.3161 291.174L94.539 280.102Z" fill="black"/>
<path d="M202.701 301.703C203.277 302.889 203.601 304.215 203.601 305.61V430.638C203.601 433.533 202.158 436.213 199.741 437.808L180.554 450.466C180.556 450.823 180.557 451.187 180.558 451.542C180.515 451.94 180.439 452.318 180.344 452.682L200.696 439.255C203.592 437.344 205.335 434.107 205.335 430.638V305.61C205.335 303.296 204.588 301.134 203.312 299.367L204.176 300.837L202.701 301.703Z" fill="black"/>
<path d="M170.785 311.103C173.327 311.549 175.483 312.961 176.924 314.913L176.008 313.355L177.267 312.616C176.404 311.744 175.394 311.015 174.274 310.453C159.896 307.656 145.528 304.94 131.187 302.289L69.1647 291.241L69.3188 291.174C68.2917 290.993 67.2634 290.812 66.237 290.633L63.2422 291.947L170.785 311.103Z" fill="black"/>
<path d="M180.55 450.465L179.052 451.453L180.448 330.276C180.413 326.192 180.369 322.213 180.316 318.36C180.107 317.333 179.762 316.355 179.297 315.445L177.788 316.331C178.473 317.697 178.851 319.235 178.823 320.851L177.281 454.699L180.34 452.681C180.435 452.317 180.511 451.94 180.554 451.541C180.553 451.187 180.552 450.822 180.55 450.465Z" fill="black"/>
<path d="M179.657 315.236L202.7 301.702C202.185 300.643 201.465 299.7 200.587 298.922L177.594 312.426C178.436 313.246 179.151 314.21 179.657 315.236Z" fill="black"/>
<path d="M179.292 315.442L179.649 315.232C179.143 314.206 178.428 313.242 177.586 312.422L177.258 312.615C178.077 313.443 178.759 314.399 179.292 315.442Z" fill="black"/>
<path d="M203.307 299.364L202.414 297.844L202.141 298.004C202.567 298.424 202.956 298.879 203.307 299.364Z" fill="black"/>
<path d="M177.763 316.346L177.79 316.33C177.541 315.832 177.251 315.36 176.922 314.914L177.763 316.346Z" fill="black"/>
<path d="M202.699 301.696L204.173 300.83L203.31 299.36C202.96 298.875 202.57 298.42 202.144 298L200.586 298.915C201.464 299.693 202.184 300.636 202.699 301.696Z" fill="black"/>
<path d="M177.266 312.617L176.008 313.356L176.923 314.915C177.252 315.36 177.542 315.833 177.791 316.33L179.3 315.444C178.767 314.402 178.086 313.445 177.266 312.617Z" fill="black"/>
<path d="M130.8 404.901L159.128 391.371L162.473 390.385C176.752 393.492 191.406 395.925 205.613 399.427C207.433 399.876 209.924 400.181 210.196 402.478C210.558 405.545 210.114 409.695 210.179 412.927C210.816 444.275 209.756 475.865 210.162 507.291C209.728 510.916 205.632 513.326 202.891 515.288C190.829 523.922 178.076 531.657 165.894 540.124C161.352 543.306 155.953 540.736 151.157 539.38C141.84 536.747 131.891 533.931 122.717 530.924C118.21 529.446 113.751 526.81 113.751 521.314V495.233C112.047 495.951 110.138 496.091 108.312 495.965L91.3606 491.671C91.3162 492.312 91.4145 493.064 92.0429 493.404C96.1766 494.808 104.243 495.585 105.943 500.37C107.245 504.037 105.231 506.084 102.379 507.907C97.0856 511.289 90.9353 513.869 85.68 517.417C82.8112 518.642 80.378 518.516 77.4102 517.96C65.4787 515.727 52.0013 511.415 40.1585 508.137C35.904 506.96 30.6256 505.868 26.5899 504.403C24.9378 503.803 23.5517 502.891 22.9821 501.14C21.3265 496.053 26.8158 493.839 30.3729 491.881C36.1743 488.687 42.279 486.009 48.1998 483.047L48.6059 480.738L8.01416 470.306C3.30169 468.564 0.549532 465.02 0 460L0.0365447 376.811C0.425695 374.334 1.67419 372.263 3.81801 370.923C9.34676 369.721 16.0643 365.526 21.3712 364.557C22.3393 364.38 23.3035 364.405 24.279 364.473L121.897 382.887C126.452 383.64 130.8 388.719 130.8 393.323V404.901ZM118.077 397.649V410.626L118.581 410.883C120.454 409.404 123.28 408.781 125.208 407.579C125.65 407.303 126.158 407.171 126.214 406.549C125.379 400.314 129.057 389.697 121.119 387.227L24.2763 369.051C21.8064 368.95 19.4693 369.87 17.3096 370.931L110.042 389.398C113.911 390.131 117.548 393.737 118.077 397.649ZM113.751 474.113V398.921C113.751 398.412 112.851 396.38 112.478 395.869C111.722 394.834 110.48 394.046 109.223 393.78C75.5507 387.383 41.9984 380.134 8.2821 374.115C5.96267 374.449 4.79681 375.062 4.57909 377.536L4.57387 446.985L113.751 474.113ZM202.302 403.377L162.762 394.993C151.159 399.998 139.785 405.531 128.418 411.044C127.446 411.515 126.158 412.006 125.456 412.786C125.893 412.76 126.313 412.807 126.741 412.904C136.739 415.159 148.012 417.491 157.775 420.292C160.112 420.962 162.108 421.841 163.959 423.436C172.031 419.257 180.261 415.354 188.312 411.14C192.502 408.948 197.807 406.395 201.715 403.933C201.939 403.792 202.28 403.69 202.302 403.377ZM205.864 406.936L166.147 427.457L166.69 431.225L166.68 533.91C169.864 531.768 173.271 529.907 176.48 527.808C184.695 522.437 194.732 516.121 202.382 510.198C203.303 509.486 205.864 507.515 205.864 506.301V406.936ZM118.077 415.588V521.06C118.077 522.603 119.63 525.379 121.319 525.706C133.138 528.764 145.116 533.639 156.954 536.382C158.534 536.749 160.657 537.516 162.098 536.582V430.219C162.098 429.726 161.154 427.459 160.784 426.953C160.257 426.232 159.567 425.784 158.788 425.386L118.077 415.588ZM4.58939 451.721V459.99C4.58939 462.51 7.81289 465.755 10.2427 466.297L108.566 491.385C109.55 491.654 113.379 491.203 113.71 490.23L113.768 479.065L4.58939 451.721ZM77.1069 501.594L74.0592 487.214L52.9369 482L50.6448 494.723L77.1069 501.594ZM47.0821 488.618C42.9376 490.611 38.6838 492.453 34.6098 494.591C33.5692 495.137 27.6848 498.268 27.3604 498.794C27.1278 499.171 27.1472 499.648 27.4859 499.946L79.2763 513.804C81.2064 513.968 82.5373 513.73 84.2875 512.971C89.577 510.675 94.9593 506.228 100.341 503.833C102.883 502.34 101.81 501.244 99.6738 500.277C98.8716 499.913 92.6465 498.002 92.3778 498.285C92.4218 499.132 92.4376 499.981 91.7405 500.576C89.1171 501.585 83.2414 506.921 80.8032 506.938C79.6997 506.946 77.4461 506.189 76.2388 505.9C68.76 504.111 61.0601 502.053 53.6447 499.995C52.1588 499.582 48.0144 498.708 46.9945 497.993C44.5007 496.247 47.1635 491.165 47.0821 488.618ZM87.7547 497.732L86.1432 490.397L79.146 488.619L81.6921 501.594L87.7547 497.732Z" fill="black"/>
<path d="M113.748 474.115L4.57031 446.988L4.57553 377.539C4.79325 375.065 5.95911 374.452 8.27854 374.117C41.9948 380.136 75.5472 387.386 109.22 393.782C110.477 394.049 111.719 394.836 112.474 395.871C112.847 396.382 113.748 398.414 113.748 398.924V474.115Z" fill="white"/>
<path d="M118.078 415.594L158.789 425.392C159.568 425.79 160.259 426.238 160.785 426.959C161.155 427.465 162.099 429.732 162.099 430.225V536.588C160.659 537.522 158.535 536.754 156.955 536.388C145.117 533.645 133.139 528.77 121.32 525.712C119.632 525.385 118.078 522.609 118.078 521.066V415.594ZM138.125 431.948C125.591 432.321 126.319 450.105 136.521 454.022C140.606 455.591 145.226 455.896 148.21 452.214C154.481 444.477 148.071 431.652 138.125 431.948ZM126.34 463.814C123.682 464.533 123.794 467.267 126.337 468.278C133.604 471.166 143.323 471.798 150.841 474.563C154.16 475.545 156.025 472.199 152.939 470.428L126.34 463.814Z" fill="white"/>
<path d="M205.865 406.938V506.303C205.865 507.517 203.304 509.487 202.383 510.2C194.733 516.122 184.696 522.438 176.481 527.81C173.272 529.908 169.865 531.769 166.681 533.911L166.691 431.226L166.148 427.458L205.865 406.938Z" fill="white"/>
<path d="M4.58594 451.727L113.765 479.071L113.707 490.236C113.376 491.209 109.546 491.66 108.562 491.391L10.2392 466.303C7.80943 465.761 4.58594 462.516 4.58594 459.996V451.727Z" fill="white"/>
<path d="M202.299 403.384C202.277 403.697 201.936 403.799 201.712 403.94C197.804 406.402 192.499 408.955 188.309 411.148C180.258 415.361 172.028 419.265 163.956 423.443C162.105 421.849 160.11 420.97 157.772 420.299C148.009 417.499 136.736 415.166 126.738 412.911C126.31 412.814 125.891 412.768 125.453 412.794C126.155 412.014 127.443 411.523 128.415 411.051C139.782 405.538 151.156 400.005 162.759 395L202.299 403.384Z" fill="white"/>
<path d="M47.0798 488.617C47.1612 491.164 44.4984 496.247 46.9922 497.993C48.012 498.707 52.1565 499.582 53.6423 499.994C61.0577 502.052 68.7577 504.11 76.2364 505.899C77.4438 506.188 79.6974 506.945 80.8009 506.938C83.239 506.921 89.1148 501.584 91.7382 500.575C92.4352 499.98 92.4194 499.131 92.3754 498.284C92.644 498.002 98.8692 499.913 99.6715 500.276C101.808 501.243 102.881 502.339 100.339 503.833C94.9569 506.228 89.5747 510.674 84.2852 512.97C82.535 513.729 81.2041 513.967 79.274 513.803L27.4835 499.945C27.1448 499.647 27.1255 499.17 27.3581 498.793C27.6825 498.267 33.5668 495.136 34.6075 494.59C38.6815 492.452 42.9352 490.61 47.0798 488.617Z" fill="white"/>
<path d="M118.08 397.652C117.55 393.74 113.914 390.135 110.045 389.402L17.3125 370.935C19.4722 369.874 21.8093 368.953 24.2791 369.054L121.122 387.231C129.06 389.701 125.382 400.318 126.217 406.553C126.161 407.175 125.653 407.307 125.211 407.583C123.283 408.785 120.457 409.408 118.584 410.887L118.08 410.63V397.652Z" fill="white"/>
<path d="M77.1106 501.601L50.6484 494.731L52.9406 482.008L74.0629 487.222L77.1106 501.601Z" fill="white"/>
<path d="M87.7572 497.73L81.6946 501.593L79.1484 488.617L86.1457 490.396L87.7572 497.73Z" fill="white"/>
<path d="M138.12 431.943C148.066 431.647 154.476 444.471 148.205 452.208C145.221 455.89 140.602 455.585 136.516 454.016C126.314 450.099 125.586 432.315 138.12 431.943ZM137.091 436.515C130.602 437.639 133.21 449.507 140.105 450.427C143.124 450.83 145.478 449.964 146.002 446.697C146.822 441.584 142.69 435.544 137.091 436.515Z" fill="black"/>
<path d="M126.343 463.812L152.942 470.427C156.028 472.198 154.163 475.544 150.843 474.561C143.325 471.797 133.607 471.165 126.339 468.276C123.797 467.266 123.684 464.531 126.343 463.812Z" fill="black"/>
<path d="M137.095 436.518C142.694 435.547 146.827 441.587 146.006 446.7C145.482 449.966 143.128 450.833 140.11 450.43C133.215 449.509 130.606 437.642 137.095 436.518Z" fill="white"/>
<path d="M145.095 508.142C141.829 510.845 138.497 505.157 141.824 503.46C145.182 501.748 147.554 506.108 145.095 508.142Z" fill="black"/>
<path d="M131.193 499.837C135.917 498.754 135.962 505.476 132.051 505.364C128.777 505.271 128.431 500.47 131.193 499.837Z" fill="black"/>
<path d="M138.826 440.829C143.55 439.746 143.595 446.468 139.683 446.356C136.41 446.263 136.064 441.462 138.826 440.829Z" fill="black"/>
<path d="M197.063 360.336C185.233 362.693 177.753 374.82 175.403 385.585C174.046 391.798 173.911 398.18 177.609 403.671C177.853 404.034 179.315 405.63 179.187 405.815C169.308 411.821 161.799 422.879 160.048 434.15C158.768 448.645 156.269 463.08 155.034 477.572C154.78 480.552 155.718 485.14 157.888 486.083C160.057 487.026 167.624 487.633 172.28 484.249L171.948 508.003C171.842 515.526 171.334 523.232 171.459 530.738C171.509 533.8 172.816 537.452 176.388 537.857C178.762 538.127 184.795 538.004 186.96 537.209C191.647 535.489 195.465 531.683 197.411 527.235C200.497 526.963 203.951 527.74 206.884 526.658C214.112 523.989 218.715 516.439 219.123 509.093L219.127 453.811C219.397 453.952 219.487 454.274 219.766 454.519C225.176 459.29 232.47 451.831 234.829 447.226C235.893 445.15 236.522 442.9 237 440.636V437.186C234.7 425.884 233.786 414.08 231.474 402.809C230.446 397.796 228.07 393.196 222.739 391.556L213.328 389.505C216.511 382.236 218.633 373.372 214.966 365.877C213.695 363.279 211.075 360.716 208.014 360.336H197.063ZM207.569 363.043C211.525 363.602 213.101 368.395 213.487 371.708C214.699 382.093 208.152 395.73 199.965 402.292C194.001 407.072 186.079 409.602 183.909 399.888C181.3 388.206 189.511 371.519 199.813 365.288C201.974 363.982 204.969 362.675 207.569 363.043ZM209.028 396.455C209.415 396.114 212.546 394.625 213.219 394.342C221.679 390.782 227.52 394.633 229.219 402.967C231.561 414.444 232.557 426.503 234.752 438.042C235.006 442.168 233.153 446.746 230.48 449.892C227.014 453.973 220.697 456.756 219.764 449.189L219.769 410.916C219.509 408.657 216.518 409.238 216.703 411.379L216.717 510.357C216.046 516.38 212.161 522.343 206.3 524.678C202.577 526.16 200.479 524.352 200.116 520.708L200.123 462.672C200.019 461.055 198.115 460.503 197.185 461.849L197.071 520.238C196.548 526.063 193.263 531.746 187.888 534.506C186.131 535.407 183.944 536.412 182.097 535.119C180.461 533.975 180.328 531.573 180.148 529.804L180.151 430.837C179.609 429.573 178.083 429.471 177.378 430.639L177.263 469.422C176.961 474.604 173.117 481.838 167.914 483.686C162.003 485.785 161.742 479.658 162.142 475.711C163.491 462.362 166.205 449.09 167.641 435.741C169.333 426.166 175.165 415.655 183.325 409.925C183.787 409.6 185.488 408.423 185.912 408.355C186.577 408.248 188.032 408.931 188.812 409.071C195.107 410.205 202.419 404.468 206.238 400.09C207.027 399.186 208.336 397.065 209.028 396.455Z" fill="black"/>
<path d="M209.041 396.448C208.35 397.057 207.04 399.178 206.252 400.082C202.433 404.46 195.12 410.197 188.825 409.064C188.045 408.923 186.591 408.24 185.925 408.347C185.502 408.415 183.801 409.593 183.338 409.917C175.179 415.647 169.347 426.158 167.654 435.733C166.219 449.082 163.505 462.354 162.155 475.703C161.756 479.65 162.017 485.777 167.928 483.678C173.13 481.83 176.975 474.596 177.276 469.414L177.392 430.631C178.096 429.463 179.623 429.565 180.165 430.829L180.162 529.796C180.342 531.565 180.475 533.967 182.111 535.112C183.958 536.404 186.145 535.399 187.901 534.498C193.276 531.738 196.562 526.055 197.085 520.23L197.198 461.841C198.128 460.495 200.033 461.047 200.136 462.664L200.129 520.7C200.493 524.344 202.591 526.153 206.314 524.67C212.175 522.336 216.06 516.373 216.731 510.349L216.716 411.372C216.532 409.23 219.523 408.649 219.783 410.908L219.777 449.181C220.71 456.748 227.027 453.965 230.494 449.884C233.166 446.738 235.02 442.16 234.766 438.034C232.571 426.495 231.574 414.436 229.233 402.959C227.533 394.625 221.692 390.774 213.233 394.334C212.56 394.618 209.429 396.106 209.041 396.448Z" fill="white"/>
<path d="M207.562 363.04C204.962 362.672 201.967 363.978 199.806 365.285C189.504 371.516 181.293 388.202 183.902 399.884C186.071 409.599 193.994 407.069 199.958 402.289C208.145 395.727 214.691 382.089 213.48 371.705C213.094 368.391 211.518 363.599 207.562 363.04Z" fill="white"/>
<path d="M308.701 258.834C310.183 258.973 311.583 258.687 313.014 258.377C317.563 257.394 322.477 255.682 326.922 254.266C328.267 253.837 331.281 253.727 331.837 252.468C332.529 250.9 331.867 243.197 331.623 241.039C331.258 237.809 329.261 224.555 327.916 222.487C326.785 220.749 324.393 219.657 323.904 222.278C323.203 226.034 324.291 233.665 324.637 237.779C324.724 238.802 325.237 239.798 325.321 240.981C325.437 242.618 325.576 246.979 325.31 248.415C325.071 249.709 320.652 250.685 319.383 250.967C317.568 251.369 310.663 252.685 309.216 252.5C308.273 252.38 306.013 250.895 304.476 250.521C300.035 249.439 293.271 248.275 288.736 247.889C285.287 247.595 281.736 248.143 278.304 247.369C276.77 242.061 275.168 236.71 273.83 231.351C273.032 228.156 272.696 224.396 271.862 221.306C270.922 217.819 268.926 217.413 265.599 217.145C265.968 213.338 267.027 204.5 263.57 201.948C257.74 197.644 261.198 213.021 259.064 215.019C255.561 213.2 258.737 211.143 256.247 207.951C254.182 205.305 251.494 205.882 248.978 204.191C248.807 203.507 251.066 195.073 251.49 193.673C253.515 186.981 256.218 178.768 262.537 175.043C265.536 173.275 272.642 171.221 275.94 172.358C277.089 172.754 282.442 177.306 284.354 178.431C294.445 184.37 307.378 185.949 317.907 180.205C328.487 185.224 336.757 190.069 341.129 201.502C346.362 215.189 350.143 236.08 352.96 250.793C354.483 258.749 355.708 268.426 347.675 273.252C341.301 277.081 329.015 281.02 321.614 281.462C319.643 281.579 314.483 281.766 312.774 281.439C311.725 281.239 309.955 279.115 309.847 278.007L308.701 258.834Z" fill="#FBFBFB"/>
<path d="M328.486 287.101C328.217 311.296 328.839 335.527 328.503 359.723C328.408 366.516 328.697 374.593 328.127 381.253C326.863 396.019 311.404 395.473 303.762 385.843C298.101 378.71 300.094 362.71 299.883 353.686C299.567 340.189 299.16 326.575 298.441 313.085C298.296 310.38 299.329 303.322 296.942 301.832C294.249 300.152 292.393 301.766 292.101 304.596C291.427 311.118 291.974 318.808 291.757 325.451C291.257 340.733 291.409 357.742 289.97 372.773C288.836 384.611 274.688 379.463 269.117 373.853C261.055 365.736 263.763 354.801 263.848 344.531C264.003 325.804 263.695 307.069 263.833 288.341L264.658 287.502C268.056 289.028 271.476 290.727 274.954 292.055C276.838 292.775 281.286 294.624 283.083 294.544C287.683 294.339 286.183 287.156 287.571 284.521C288.377 282.991 290.609 284.36 291.66 284.535C295.578 285.188 300.028 285.671 303.836 286.491C305.518 286.853 307.329 288.061 309.284 288.136C310.538 288.184 311.566 287.542 312.767 287.459C315.925 287.242 318.874 287.913 321.965 287.823C322.955 287.794 328.251 286.872 328.486 287.101Z" fill="#FBFBFB"/>
<path d="M315.06 74.407C304.732 74.4404 297.774 78.4909 291.207 86.0645C284.674 93.5984 278.793 107.718 278.322 117.693C278.209 120.088 278.79 125.52 282.34 123.478C284.767 122.081 284.624 115.541 285.126 112.841C288.245 96.0577 302.176 75.5474 321.726 80.64C332.037 83.3258 335.767 96.2216 336.273 105.663C336.409 108.216 335.779 109.585 335.583 111.727C335.085 117.164 343.535 116.063 340.806 121.533C339.429 124.292 333.508 126.231 330.592 127.216C310.308 134.061 278.099 139.206 258.647 128.527C250.283 123.934 246.894 116.075 256.589 110.454C257.197 110.452 258.178 118.116 261.015 115.578C262.665 114.101 263.332 105.915 263.935 103.309C266.239 93.3502 271.504 81.8936 280.553 76.4707C286.848 72.698 296.253 69.9884 303.592 70.5095C307.226 70.7675 312.124 72.2544 315.06 74.407Z" fill="#FBFBFB"/>
<path d="M324.243 135.18C325.372 140.376 326.303 145.584 326.732 150.886C325.986 178.699 298.714 186.31 280.073 167.164C272.535 159.421 266.811 149.872 267.013 138.714C267.217 138.477 269.918 139.566 270.463 139.677C288.309 143.319 306.932 139.676 324.243 135.18Z" fill="#FBFBFB"/>
<path d="M271.229 247.851C262.731 249.921 264.963 258.812 266.412 265.269C267.334 269.38 269.27 275.724 272.901 278.212C274.149 279.067 280.694 281.649 280.994 282.143C279.604 286.05 282.102 288.201 277.021 286.104C265.746 281.452 254.59 276.385 243.429 271.472C242.383 269.317 242.836 266.714 241.623 264.66C243.737 263.297 245.255 260.926 246.072 258.565C250.559 245.597 244.42 228.471 229.525 226.473C228.446 221 226.358 215.669 225.401 210.175C225.313 209.671 225.16 209.112 225.496 208.664L230.62 210.262C231.632 212.178 231.22 213.436 233.206 214.742C234.737 215.748 249.436 221.873 250.968 222.063C254.525 222.506 254.055 220.862 255.606 220.393C257.365 219.861 263.262 222.938 265.236 223.695C267.554 231.659 269.426 239.758 271.229 247.851Z" fill="#FBFBFB"/>
<path d="M304.456 280.383C297.255 278.83 288.944 278.47 282.123 275.691C277.575 273.838 275.593 272.446 273.715 267.847C272.065 263.805 269.681 254.785 276.048 253.918C284.777 253.602 293.452 254.798 301.972 256.549C303.731 257.752 302.886 266.174 303.048 268.545C303.158 270.145 304.892 279.908 304.456 280.383Z" fill="#FBFBFB"/>
<path d="M226.997 233.128C234.247 231.293 240.806 240.132 241.235 246.629C241.808 255.321 237.348 262.782 228.524 256.16C222.745 251.823 220.925 241.725 224.461 235.539C224.957 234.673 226.007 233.379 226.997 233.128Z" fill="#FBFBFB"/>
<path d="M251.108 210.791L248.111 215.377L238.391 211.318C236.927 210.23 236.791 206.402 238.854 205.898L251.108 210.791Z" fill="#FAFAFA"/>
<path d="M271.888 429.308L241.792 426.522C239.282 425.858 237.182 424.153 234.999 422.819L265.331 386.795C265.552 386.675 265.728 386.841 265.901 386.957C267.696 388.159 269.444 390.262 271.236 391.537C271.482 391.713 271.758 392.008 272.074 391.961L294.425 379L300.008 382.159L299.96 403.209L271.888 419.757V429.308Z" fill="white"/>
<path d="M271.888 429.308V419.757L299.96 403.209L300.008 382.159L294.425 379L272.074 391.961C271.758 392.008 271.482 391.713 271.236 391.537C269.444 390.262 267.696 388.159 265.901 386.957C265.728 386.841 265.552 386.675 265.331 386.795L234.999 422.819C237.182 424.153 239.282 425.858 241.792 426.522L271.888 429.308ZM269.993 401.457L298.135 385.126V402.113L270.138 418.591V427.121L244.473 424.859L269.993 393.146V401.457Z" fill="black"/>
<path d="M288.12 430.829L288.426 421.289L317.372 423.423L323.83 426.298L324 426.533L292.955 465.052L292.415 465.006L284.754 460.327L264.53 471.614C263.443 470.579 261.525 469.782 260.514 468.761C260.361 468.606 260.166 468.514 260.151 468.25L260.219 447.328L288.12 430.829Z" fill="white"/>
<path d="M288.12 430.829L260.219 447.328L260.151 468.25C260.166 468.514 260.361 468.606 260.514 468.761C261.525 469.782 263.443 470.579 264.53 471.614L284.754 460.327L292.415 465.006L292.955 465.052L324 426.533L323.83 426.298L317.372 423.423L288.426 421.289L288.12 430.829ZM294.414 425.894L320.371 428.01L294.56 460.015V452.724L266.417 468.473V451.266L294.414 435.008V425.894Z" fill="black"/>
<path d="M294.41 425.891V435.004L266.414 451.263V468.469L294.556 452.721V460.012L320.367 428.006L294.41 425.891Z" fill="white"/>
</svg>
