<?xml version="1.0" encoding="UTF-8" standalone="no" ?>
<!DOCTYPE svg PUBLIC "-//W3C//DTD SVG 1.1//EN" "http://www.w3.org/Graphics/SVG/1.1/DTD/svg11.dtd">
<svg xmlns="http://www.w3.org/2000/svg" xmlns:xlink="http://www.w3.org/1999/xlink" version="1.1" width="1080" height="1080" viewBox="0 0 1080 1080" xml:space="preserve">
<desc>Created with Fabric.js 5.2.4</desc>
<defs>
</defs>
<g transform="matrix(1 0 0 1 540 540)" id="81caaa6e-a2ec-427e-bafa-6468f9918485"  >
<rect style="stroke: none; stroke-width: 1; stroke-dasharray: none; stroke-linecap: butt; stroke-dashoffset: 0; stroke-linejoin: miter; stroke-miterlimit: 4; fill: rgb(255,255,255); fill-rule: nonzero; opacity: 1; visibility: hidden;" vector-effect="non-scaling-stroke"  x="-540" y="-540" rx="0" ry="0" width="1080" height="1080" />
</g>
<g transform="matrix(1 0 0 1 540 540)" id="f5e2fb24-8afb-49b7-9b42-45d051c4c862"  >
</g>
<g transform="matrix(1 0 0 1 540 540)"  >
<g style="" vector-effect="non-scaling-stroke"   >
		<g transform="matrix(1 0 0 1 110.55 4.54)"  >
<path style="stroke: none; stroke-width: 1; stroke-dasharray: none; stroke-linecap: butt; stroke-dashoffset: 0; stroke-linejoin: miter; stroke-miterlimit: 4; fill: rgb(255,255,255); fill-rule: nonzero; opacity: 1;" vector-effect="non-scaling-stroke"  transform=" translate(-358.7, -232.19)" d="M 370.985 242.185 C 366.729 243.506 362.793 245.557 359.324 248.19 L 346.417 221.978 C 350.7 220.732 354.67 218.753 358.182 216.184 Z" stroke-linecap="round" />
</g>
		<g transform="matrix(1 0 0 1 -116.82 7.9)"  >
<path style="stroke: none; stroke-width: 1; stroke-dasharray: none; stroke-linecap: butt; stroke-dashoffset: 0; stroke-linejoin: miter; stroke-miterlimit: 4; fill: rgb(255,255,255); fill-rule: nonzero; opacity: 1;" vector-effect="non-scaling-stroke"  transform=" translate(-131.33, -235.55)" d="M 130.498 219.005 C 134.302 221.299 138.542 222.945 143.065 223.787 L 132.041 252.097 C 128.29 249.705 124.09 247.955 119.596 247 Z" stroke-linecap="round" />
</g>
		<g transform="matrix(1 0 0 1 -23.27 9.09)"  >
<path style="stroke: none; stroke-width: 1; stroke-dasharray: none; stroke-linecap: butt; stroke-dashoffset: 0; stroke-linejoin: miter; stroke-miterlimit: 4; fill: rgb(255,255,255); fill-rule: nonzero; opacity: 1;" vector-effect="non-scaling-stroke"  transform=" translate(-224.88, -236.74)" d="M 212.949 233.345 C 212.952 233.358 212.955 233.371 212.958 233.385 C 214.054 238.47 216.171 243.177 219.082 247.28 L 149.119 277.988 C 148.28 272.815 146.395 267.992 143.688 263.745 Z M 299.19 195.492 C 300.552 200.52 302.922 205.132 306.069 209.1 L 287.142 217.407 C 286.87 216.13 286.534 214.877 286.137 213.651 C 284.947 209.978 283.213 206.551 281.028 203.463 Z" stroke-linecap="round" />
</g>
		<g transform="matrix(1 0 0 1 18.15 4.55)"  >
<path style="stroke: none; stroke-width: 1; stroke-dasharray: none; stroke-linecap: butt; stroke-dashoffset: 0; stroke-linejoin: miter; stroke-miterlimit: 4; fill: rgb(255,255,255); fill-rule: nonzero; opacity: 1;" vector-effect="non-scaling-stroke"  transform=" translate(-266.3, -232.19)" d="M 217.955 205.102 C 215.277 209.337 213.414 214.139 212.587 219.287 L 181.84 207.213 C 184.582 203.015 186.515 198.24 187.417 193.11 Z M 350.759 257.255 C 347.955 261.417 345.955 266.166 344.981 271.279 L 281.609 246.392 C 284.395 242.22 286.377 237.464 287.331 232.347 Z" stroke-linecap="round" />
</g>
		<g transform="matrix(1 0 0 1 0 0)"  >
<path style="stroke: none; stroke-width: 1; stroke-dasharray: none; stroke-linecap: butt; stroke-dashoffset: 0; stroke-linejoin: miter; stroke-miterlimit: 4; fill: rgb(255,255,255); fill-rule: nonzero; opacity: 1;" vector-effect="non-scaling-stroke"  transform=" translate(-248.15, -227.65)" d="M 457.327 332.096 C 441 349.246 420.469 358.05 396.881 360.44 C 374.999 362.657 355.408 356.763 338.617 343.191 C 333.541 339.088 330.214 332.925 328.426 326.947 C 326.777 321.43 324.416 316.529 323.6 310.646 C 323.282 313.09 321.07 316.443 319.974 317.612 C 298.682 340.334 274.976 348.305 242.582 346.667 C 218.04 345.426 197.473 335.49 180.46 318.757 C 178.189 316.523 175.967 314.245 173.275 311.537 C 172.006 316.288 171.057 320.512 169.729 324.626 C 168.451 328.588 168.714 332.886 166.44 336.637 C 162.967 342.362 157.003 345.426 151.577 348.77 C 135.944 358.403 118.786 362.235 99.989 360.883 C 74.443 359.046 54.883 347.231 38.427 329.659 C 30.851 321.568 23.976 312.943 20.215 302.535 C 14.437 286.543 12.007 270.104 15.038 253.348 C 21.085 219.917 41.919 197.291 73.406 182.798 C 75.761 181.714 76.966 180.393 77.318 177.967 C 81.196 151.205 97.001 132.588 121.04 119.234 C 137.281 110.213 154.545 108.476 172.391 111.97 C 184.375 114.317 195.04 120.01 204.373 127.684 C 207.279 130.073 210.103 132.552 213.295 135.272 C 215.557 132.928 217.746 130.636 219.963 128.367 C 236.481 111.467 256.823 100.876 280.457 96.332 C 308.938 90.856 335.778 95.732 360.25 110.474 C 386.119 126.056 402.588 148.322 408.921 176.913 C 409.832 181.033 411.519 182.162 415.4 183.054 C 427.047 185.734 437.198 191.235 446.325 198.673 C 463.228 212.449 475.643 229.117 480.165 249.91 C 486.83 280.556 479.801 308.281 457.327 332.096 M 62.477 329.274 C 83.485 343.889 106.169 348.991 131.261 340.131 C 142.553 336.145 152.505 330.41 159.014 320.336 C 160.463 318.094 162.159 315.809 162.083 313.146 C 161.87 305.694 163.892 298.384 163.436 290.936 C 163.331 289.207 163.91 287.628 164.591 286.084 C 164.97 285.224 165.466 284.474 166.603 284.195 C 172.06 282.857 177.785 285.385 180.39 290.24 C 184.013 296.993 188.216 303.478 194.148 308.555 C 218.462 329.364 246.153 336.135 277.26 324.772 C 295.656 318.052 309.676 305.865 319.334 289.516 C 321.857 285.247 323.46 283.858 328.527 284.138 C 332.725 284.37 334.201 286.114 334.353 290.124 C 334.637 297.645 336.382 293.426 336.096 300.961 C 336.047 302.262 336.842 314.305 337.422 315.44 C 340.557 321.562 344.72 327.001 350.501 331.028 C 373.294 346.908 401.961 348.304 426.175 334.903 C 452.233 320.482 463.965 297.597 464.972 269.599 C 465.485 255.381 461.332 242.011 453.037 230.02 C 441.183 212.886 425.515 201.099 403.461 198.261 C 400.001 197.815 396.414 197.587 393.172 196.143 C 388.99 194.28 387.457 188.327 390.747 185.968 C 393.069 184.303 393.189 182.574 392.65 180.25 C 388.121 160.707 377.514 144.537 361.66 131.678 C 340.605 114.6 316.057 107.534 288.541 111.108 C 263.261 114.392 242.878 126.263 226.549 144.652 C 222.966 148.686 220.648 153.483 218.481 158.309 C 217.69 160.072 216.706 160.433 214.641 160.018 C 211.033 159.294 208.697 157.61 207.552 154.264 C 207.15 153.09 206.422 151.976 205.656 150.964 C 190.478 130.955 168.188 122.224 143.964 126.662 C 125.233 130.093 110.991 140.693 101.623 156.713 C 98.295 162.407 95.837 168.464 94.558 174.903 C 94.064 177.386 94.123 179.438 97.645 179.861 C 99.332 180.063 101.054 180.83 102.519 181.707 C 105.377 183.417 106.063 186.147 105.469 189.138 C 104.933 191.839 102.952 192.751 100.173 192.875 C 97.106 193.011 93.973 193.192 91.017 193.905 C 76.934 197.303 64.917 203.82 54.709 213.96 C 35.416 233.125 28.712 255.855 32.499 281.542 C 35.381 301.091 45.874 316.765 62.477 329.274 Z" stroke-linecap="round" />
</g>
		<g transform="matrix(1 0 0 1 -9.96 90.36)"  >
<path style="stroke: none; stroke-width: 1; stroke-dasharray: none; stroke-linecap: butt; stroke-dashoffset: 0; stroke-linejoin: miter; stroke-miterlimit: 4; fill: rgb(255,255,255); fill-rule: nonzero; opacity: 1;"  transform=" translate(-238.19, -318)" d="M 166.33 284.477 C 166.914 284.346 167.817 284.271 168.48 284.477 C 169.154 284.687 169.914 284.957 170.336 285.747 C 170.956 286.909 170.856 289.635 170.922 291.61 C 170.985 293.494 171.056 294.679 170.781 297.196 C 171.746 297.344 172.757 297.705 173.341 298.522 C 174.996 300.836 175.566 307.578 174.937 312.883 C 174.188 319.197 170.48 328.91 167.756 334.025 C 165.743 337.808 163.803 340.232 161.174 342.203 C 158.65 344.096 153.992 345.83 152.398 345.793 C 151.594 345.775 151.352 345.398 151.002 344.796 C 150.489 343.913 149.974 341.486 150.204 340.408 C 150.344 339.754 150.632 339.483 151.15 339.02 C 151.161 338.981 151.172 338.942 151.184 338.903 C 151.304 338.519 151.532 338.083 151.833 337.622 C 151 338.166 150.158 338.696 149.328 339.196 C 144.94 341.842 139.18 344.65 134.476 346.622 C 130.237 348.399 126.203 349.925 122.359 350.726 C 118.877 351.452 114.297 351.911 112.393 351.508 C 111.344 351.285 110.947 350.899 110.536 350.237 C 110.053 349.459 109.771 347.817 109.95 346.915 C 110.102 346.148 110.273 345.582 111.22 345.059 C 113.027 344.06 118.625 344.112 122.359 343.104 C 126.245 342.056 130.338 340.454 134.085 338.805 C 137.758 337.188 141.162 335.518 144.638 333.333 C 148.3 331.031 153.18 327.73 155.484 325.223 C 157.132 323.429 157.609 321.964 158.415 320.142 C 159.249 318.26 159.693 316.893 160.369 314.084 C 161.418 309.729 163.175 300.201 163.692 295.323 C 164.064 291.807 163.412 288.619 163.887 286.92 C 164.168 285.917 164.7 285.474 165.157 285.063 C 165.526 284.733 165.85 284.584 166.33 284.477 Z M 326.976 284.85 C 328.038 284.632 330.828 284.472 331.991 284.85 C 332.832 285.123 333.204 285.309 333.715 286.26 C 334.668 288.034 335.555 293.274 335.909 296.604 C 336.075 298.163 336.206 299.988 336.231 301.644 C 336.948 307.068 337.509 313.218 338.989 317.373 C 339.428 318.606 339.874 319.857 340.335 321.099 C 340.492 321.323 340.665 321.568 340.862 321.85 C 342.456 324.132 346.608 327.567 347.704 329.756 C 347.746 329.84 347.786 329.923 347.824 330.006 C 349.318 331.178 350.878 332.303 351.658 333.101 C 352.345 333.805 352.642 334.119 352.874 334.774 C 353.068 335.32 353.168 336.041 353.112 336.687 C 356.714 337.43 360.71 337.378 362.57 338.259 C 364.211 339.036 364.851 339.632 365.49 340.73 C 366.176 341.91 366.687 343.794 366.388 345.221 C 366.074 346.72 364.933 348.612 363.469 349.488 C 361.835 350.467 359.269 350.51 356.731 350.387 C 353.703 350.24 349.674 349.546 346.401 348.141 C 342.998 346.68 339.746 345.29 336.744 341.628 C 332.584 336.555 328.062 325.947 325.515 317.823 C 324.773 315.458 324.054 312.759 323.429 310.011 C 322.654 309.555 321.949 308.899 321.472 307.941 C 320.022 305.028 319.866 296.601 320.574 292.67 C 321.113 289.677 322.777 286.896 323.943 285.708 C 324.674 284.961 325.18 284.743 326.188 284.809 C 326.368 284.821 326.578 284.847 326.809 284.887 C 326.861 284.874 326.917 284.862 326.976 284.85 Z" stroke-linecap="round" />
</g>
		<g transform="matrix(-0.58 0.82 -0.82 -0.58 -98.12 -40.98)"  >
<path style="stroke: none; stroke-width: 1; stroke-dasharray: none; stroke-linecap: butt; stroke-dashoffset: 0; stroke-linejoin: miter; stroke-miterlimit: 4; fill: rgb(255,255,255); fill-rule: nonzero; opacity: 1;" vector-effect="non-scaling-stroke"  transform=" translate(-1076, -365)" d="M 1076 365 M 1047.529 365 C 1047.529 380.7240991124325 1060.2759008875676 393.471 1076 393.471 C 1091.7240991124324 393.471 1104.471 380.7240991124325 1104.471 365 C 1104.471 349.2759008875675 1091.7240991124324 336.529 1076 336.529 C 1060.2759008875676 336.529 1047.529 349.2759008875675 1047.529 365 Z M 1076 365 M 1061.195 365 C 1061.1950006598327 356.82342474532743 1067.8234247453272 350.1950011947331 1076 350.1950011947331 C 1084.1765752546726 350.1950011947331 1090.8049993401671 356.82342474532743 1090.8049999999998 365 C 1090.8049993401671 373.17657525467257 1084.1765752546726 379.8049988052669 1075.9999999999998 379.8049988052669 C 1067.8234247453272 379.8049988052669 1061.1950006598327 373.17657525467257 1061.195 365 Z" stroke-linecap="round" />
</g>
		<g transform="matrix(-0.58 0.82 -0.82 -0.58 -135.79 56.88)"  >
<path style="stroke: none; stroke-width: 1; stroke-dasharray: none; stroke-linecap: butt; stroke-dashoffset: 0; stroke-linejoin: miter; stroke-miterlimit: 4; fill: rgb(255,255,255); fill-rule: nonzero; opacity: 1;" vector-effect="non-scaling-stroke"  transform=" translate(-1076, -365)" d="M 1076 365 M 1047.529 365 C 1047.529 380.7240991124325 1060.2759008875676 393.471 1076 393.471 C 1091.7240991124324 393.471 1104.471 380.7240991124325 1104.471 365 C 1104.471 349.2759008875675 1091.7240991124324 336.529 1076 336.529 C 1060.2759008875676 336.529 1047.529 349.2759008875675 1047.529 365 Z M 1076 365 M 1061.195 365 C 1061.1950006598327 356.82342474532743 1067.8234247453272 350.1950011947331 1076 350.1950011947331 C 1084.1765752546726 350.1950011947331 1090.8049993401671 356.82342474532743 1090.8049999999998 365 C 1090.8049993401671 373.17657525467257 1084.1765752546726 379.8049988052669 1075.9999999999998 379.8049988052669 C 1067.8234247453272 379.8049988052669 1061.1950006598327 373.17657525467257 1061.195 365 Z" stroke-linecap="round" />
</g>
		<g transform="matrix(-0.58 0.82 -0.82 -0.58 1.69 -1.98)"  >
<path style="stroke: none; stroke-width: 1; stroke-dasharray: none; stroke-linecap: butt; stroke-dashoffset: 0; stroke-linejoin: miter; stroke-miterlimit: 4; fill: rgb(255,255,255); fill-rule: nonzero; opacity: 1;" vector-effect="non-scaling-stroke"  transform=" translate(-1076, -365)" d="M 1076 365 M 1047.529 365 C 1047.529 380.7240991124325 1060.2759008875676 393.471 1076 393.471 C 1091.7240991124324 393.471 1104.471 380.7240991124325 1104.471 365 C 1104.471 349.2759008875675 1091.7240991124324 336.529 1076 336.529 C 1060.2759008875676 336.529 1047.529 349.2759008875675 1047.529 365 Z M 1076 365 M 1061.195 365 C 1061.1950006598327 356.82342474532743 1067.8234247453272 350.1950011947331 1076 350.1950011947331 C 1084.1765752546726 350.1950011947331 1090.8049993401671 356.82342474532743 1090.8049999999998 365 C 1090.8049993401671 373.17657525467257 1084.1765752546726 379.8049988052669 1075.9999999999998 379.8049988052669 C 1067.8234247453272 379.8049988052669 1061.1950006598327 373.17657525467257 1061.195 365 Z" stroke-linecap="round" />
</g>
		<g transform="matrix(-0.58 0.82 -0.82 -0.58 87.95 -41.29)"  >
<path style="stroke: none; stroke-width: 1; stroke-dasharray: none; stroke-linecap: butt; stroke-dashoffset: 0; stroke-linejoin: miter; stroke-miterlimit: 4; fill: rgb(255,255,255); fill-rule: nonzero; opacity: 1;" vector-effect="non-scaling-stroke"  transform=" translate(-1076, -365)" d="M 1076 365 M 1047.529 365 C 1047.529 380.7240991124325 1060.2759008875676 393.471 1076 393.471 C 1091.7240991124324 393.471 1104.471 380.7240991124325 1104.471 365 C 1104.471 349.2759008875675 1091.7240991124324 336.529 1076 336.529 C 1060.2759008875676 336.529 1047.529 349.2759008875675 1047.529 365 Z M 1076 365 M 1061.195 365 C 1061.1950006598327 356.82342474532743 1067.8234247453272 350.1950011947331 1076 350.1950011947331 C 1084.1765752546726 350.1950011947331 1090.8049993401671 356.82342474532743 1090.8049999999998 365 C 1090.8049993401671 373.17657525467257 1084.1765752546726 379.8049988052669 1075.9999999999998 379.8049988052669 C 1067.8234247453272 379.8049988052669 1061.1950006598327 373.17657525467257 1061.195 365 Z" stroke-linecap="round" />
</g>
		<g transform="matrix(-0.58 0.82 -0.82 -0.58 134.52 50.63)"  >
<path style="stroke: none; stroke-width: 1; stroke-dasharray: none; stroke-linecap: butt; stroke-dashoffset: 0; stroke-linejoin: miter; stroke-miterlimit: 4; fill: rgb(255,255,255); fill-rule: nonzero; opacity: 1;" vector-effect="non-scaling-stroke"  transform=" translate(-1076, -365)" d="M 1076 365 M 1047.529 365 C 1047.529 380.7240991124325 1060.2759008875676 393.471 1076 393.471 C 1091.7240991124324 393.471 1104.471 380.7240991124325 1104.471 365 C 1104.471 349.2759008875675 1091.7240991124324 336.529 1076 336.529 C 1060.2759008875676 336.529 1047.529 349.2759008875675 1047.529 365 Z M 1076 365 M 1061.195 365 C 1061.1950006598327 356.82342474532743 1067.8234247453272 350.1950011947331 1076 350.1950011947331 C 1084.1765752546726 350.1950011947331 1090.8049993401671 356.82342474532743 1090.8049999999998 365 C 1090.8049993401671 373.17657525467257 1084.1765752546726 379.8049988052669 1075.9999999999998 379.8049988052669 C 1067.8234247453272 379.8049988052669 1061.1950006598327 373.17657525467257 1061.195 365 Z" stroke-linecap="round" />
</g>
		<g transform="matrix(1 0 0 1 5.21 89.07)"  >
<path style="stroke: none; stroke-width: 1; stroke-dasharray: none; stroke-linecap: butt; stroke-dashoffset: 0; stroke-linejoin: miter; stroke-miterlimit: 4; fill: rgb(255,255,255); fill-rule: nonzero; opacity: 1;"  transform=" translate(-253.36, -316.71)" d="M 326.067 285.694 C 327.195 285.51 328.619 285.529 329.772 285.968 C 330.984 286.43 332.32 287.451 333.134 288.507 C 333.931 289.541 334.083 290.211 334.643 292.212 C 335.715 296.04 337.12 306.973 338.485 312.109 C 339.492 315.896 340.226 318.117 341.641 321.028 C 343.12 324.069 346.385 327.554 347.267 329.948 C 347.616 330.894 347.749 331.73 347.77 332.49 C 347.924 332.573 348.079 332.664 348.232 332.761 C 349.087 332.762 350.011 332.868 350.771 333.153 C 351.938 333.591 353.207 334.628 353.945 335.467 C 354.566 336.172 354.891 336.866 355.129 337.726 C 355.39 338.673 355.461 339.998 355.344 340.955 C 355.241 341.801 355 342.497 354.591 343.214 C 354.148 343.991 353.507 344.76 352.708 345.42 C 352.377 345.694 351.993 345.981 351.582 346.253 C 351.527 346.3 351.472 346.345 351.417 346.389 C 350.729 346.939 350.017 347.335 349.157 347.573 C 348.21 347.834 346.885 347.905 345.929 347.788 C 345.082 347.684 344.377 347.435 343.669 347.035 C 342.919 346.61 342.137 345.953 341.57 345.259 C 341.562 345.25 341.555 345.24 341.547 345.231 C 341.465 345.189 341.383 345.144 341.301 345.098 C 340.551 344.673 339.769 344.016 339.203 343.322 C 338.641 342.633 338.167 341.846 337.912 340.955 C 337.764 340.438 337.679 339.819 337.65 339.208 C 337.398 339.089 337.149 338.954 336.907 338.799 C 336.055 338.255 335.424 337.669 334.506 336.534 C 333.126 334.83 331.074 331.86 329.566 328.85 C 327.826 325.376 326.212 321.097 324.9 316.637 C 323.464 311.752 322.251 304.579 321.47 300.582 C 320.933 297.84 320.526 295.922 320.372 294.27 C 320.26 293.071 320.204 292.294 320.372 291.389 C 320.535 290.513 320.868 289.659 321.333 288.919 C 321.802 288.171 322.427 287.459 323.185 286.929 C 323.988 286.368 325.013 285.866 326.067 285.694 Z M 157.622 325.085 C 158.287 325.011 158.996 325.054 159.611 325.151 C 160.183 325.241 160.625 325.325 161.202 325.615 C 161.933 325.983 163.033 326.789 163.622 327.372 C 164.093 327.838 164.35 328.274 164.617 328.765 C 164.879 329.247 165.08 329.686 165.214 330.29 C 165.374 331.015 165.508 332.021 165.413 332.876 C 165.315 333.745 165.013 334.703 164.617 335.462 C 164.239 336.186 163.768 336.801 163.125 337.351 C 162.417 337.957 161.403 338.58 160.473 338.876 C 159.566 339.165 158.537 339.235 157.622 339.142 C 156.726 339.05 155.794 338.742 155.036 338.346 C 154.312 337.968 153.696 337.497 153.146 336.854 C 152.541 336.146 151.918 335.132 151.621 334.202 C 151.332 333.295 151.262 332.266 151.356 331.351 C 151.447 330.455 151.755 329.523 152.151 328.765 C 152.529 328.041 153.067 327.403 153.643 326.875 C 154.208 326.357 154.891 325.914 155.566 325.615 C 156.22 325.325 156.939 325.16 157.622 325.085 Z" stroke-linecap="round" />
</g>
</g>
</g>
</svg>