<svg width="545" height="671" viewBox="0 0 545 671" fill="none" xmlns="http://www.w3.org/2000/svg">
<path d="M364.52 264C382.151 267.607 393.299 286.165 396.802 302.638C398.824 312.146 399.025 321.912 393.514 330.314C393.15 330.869 390.972 333.311 391.161 333.596C405.885 342.786 417.077 359.707 419.686 376.954C421.593 399.136 425.318 421.226 427.159 443.401C427.537 447.963 426.139 454.982 422.906 456.426C419.673 457.869 408.394 458.798 401.456 453.619L401.95 489.97C402.108 501.481 402.866 513.273 402.68 524.76C402.604 529.446 400.657 535.034 395.334 535.654C391.795 536.067 382.805 535.879 379.577 534.663C372.593 532.03 366.903 526.206 364.002 519.399C359.402 518.983 354.254 520.172 349.884 518.516C339.111 514.432 332.251 502.878 331.642 491.638L331.638 407.041C331.235 407.257 331.101 407.749 330.685 408.125C322.622 415.425 311.751 404.011 308.235 396.965C306.65 393.788 305.713 390.344 305 386.88V381.6C308.428 364.306 309.791 346.242 313.236 328.996C314.768 321.323 318.309 314.284 326.255 311.775L340.28 308.637C335.537 297.513 332.374 283.948 337.839 272.479C339.733 268.504 343.638 264.582 348.2 264H364.52ZM348.863 268.142C342.967 268.998 340.619 276.332 340.043 281.403C338.237 297.293 347.994 318.162 360.196 328.204C369.085 335.519 380.891 339.39 384.125 324.525C388.013 306.648 375.775 281.113 360.421 271.579C357.201 269.579 352.737 267.58 348.863 268.142ZM346.689 319.272C346.111 318.75 341.445 316.472 340.442 316.038C327.834 310.59 319.129 316.484 316.596 329.236C313.106 346.8 311.621 365.253 308.35 382.91C307.971 389.225 310.734 396.23 314.716 401.044C319.883 407.289 329.298 411.548 330.689 399.969L330.68 341.4C331.067 337.944 335.525 338.833 335.25 342.11L335.229 493.571C336.228 502.789 342.019 511.914 350.754 515.486C356.303 517.755 359.43 514.988 359.971 509.411L359.96 420.6C360.115 418.127 362.953 417.282 364.339 419.341L364.508 508.692C365.287 517.606 370.185 526.303 378.195 530.525C380.813 531.905 384.072 533.442 386.825 531.465C389.263 529.713 389.462 526.037 389.73 523.33L389.725 371.885C390.533 369.95 392.808 369.794 393.858 371.582L394.03 430.93C394.479 438.86 400.209 449.93 407.963 452.757C416.772 455.97 417.161 446.594 416.566 440.554C414.554 420.126 410.51 399.816 408.37 379.39C405.848 364.738 397.156 348.653 384.996 339.884C384.307 339.388 381.772 337.586 381.14 337.481C380.148 337.318 377.98 338.363 376.818 338.578C367.436 340.312 356.538 331.533 350.846 324.834C349.671 323.45 347.719 320.205 346.689 319.272Z" fill="black"/>
<path d="M346.686 319.272C347.716 320.204 349.668 323.449 350.843 324.833C356.535 331.532 367.433 340.311 376.815 338.577C377.977 338.362 380.145 337.317 381.137 337.481C381.769 337.585 384.304 339.387 384.993 339.884C397.153 348.652 405.845 364.737 408.367 379.389C410.507 399.815 414.551 420.126 416.563 440.553C417.158 446.593 416.769 455.969 407.96 452.756C400.206 449.929 394.476 438.859 394.027 430.929L393.855 371.582C392.805 369.793 390.53 369.95 389.723 371.885L389.727 523.329C389.459 526.036 389.26 529.712 386.822 531.464C384.069 533.441 380.81 531.904 378.192 530.524C370.182 526.302 365.284 517.606 364.505 508.691L364.336 419.34C362.95 417.281 360.112 418.126 359.957 420.599L359.968 509.41C359.427 514.987 356.3 517.754 350.751 515.485C342.016 511.913 336.225 502.788 335.226 493.571L335.247 342.109C335.522 338.832 331.064 337.943 330.677 341.399L330.686 399.968C329.295 411.547 319.88 407.288 314.714 401.043C310.731 396.229 307.968 389.224 308.347 382.909C311.618 365.252 313.104 346.799 316.593 329.235C319.126 316.483 327.831 310.59 340.439 316.038C341.442 316.471 346.108 318.749 346.686 319.272Z" fill="white"/>
<path d="M348.864 268.143C352.739 267.581 357.203 269.58 360.423 271.58C375.777 281.114 388.015 306.649 384.126 324.526C380.893 339.391 369.086 335.52 360.197 328.205C347.996 318.163 338.239 297.294 340.044 281.403C340.62 276.333 342.969 268.999 348.864 268.143Z" fill="white"/>
<path d="M258.629 202.668C247.104 179.4 240.706 147.028 215.515 134.387C209.787 131.513 200.374 128.581 193.983 129.05C188.416 129.458 178.302 133.239 180.205 140.374C182.211 147.896 195.987 145.809 196.645 156.117C197.023 162.035 194.445 171.461 193.087 177.435C190.993 186.654 188.329 195.768 185.947 204.914L185.382 205.571C166.657 212.103 158.366 229.016 178.43 241.114C182.185 243.378 186.494 244.614 190.316 246.741C190.244 258.293 191.673 270.203 198.66 279.732C187.357 280.711 179.187 289.764 177.475 300.674L176.673 300.912C174.104 296.463 169.367 292.717 164.432 291.278C163.403 284.429 162.911 277.489 161.944 270.631C159.336 252.143 156.416 233.607 153.899 215.14C153.197 209.994 152.482 204.83 151.837 199.68C151.731 198.827 152.112 199.023 152.755 199.174C156.394 200.03 161.711 203.503 164.995 201.476C167.188 200.123 167.004 198.026 166.246 195.868L157.917 182.979C159.713 178.794 163.078 175.165 165.064 171C166.943 167.057 165.348 165.527 161.39 164.451L146.819 168.082C145.587 167.752 139.944 159.123 138.171 157.556C135.829 155.489 132.048 156.055 131.477 159.409C130.639 164.336 131.419 169.708 130.85 174.666C126.386 177.451 109.762 178.901 116.65 186.814L130.86 192.968C131.084 196.029 131.613 199.102 131.857 202.154C132.111 205.327 130.549 210.841 134.907 211.323C139.159 211.793 140.319 207.22 142.866 204.601C143.254 204.203 143.399 203.83 144.078 203.985C146.13 224.691 150.224 245.182 153.393 265.74C154.466 272.699 156.576 282.57 156.732 289.293C156.747 289.97 156.847 290.994 156.508 291.552C156.354 291.806 152.384 293.812 151.407 294.597C143.463 300.987 145.606 312.057 147.06 320.947C149.379 335.127 155.939 363.821 169.653 370.851C176.391 374.305 184.767 373.502 190.51 368.523C189.863 381.874 189.933 395.227 189.634 408.581C189.343 421.571 188.609 434.725 188.461 447.722C188.394 453.568 188.149 459.347 189.492 465.052C192.407 477.433 204.182 491.203 218.078 485.075C219.719 484.351 221.093 483.318 222.688 482.563C225.699 495.855 239.964 510.668 254.412 503.486C277.181 492.167 268.742 472.222 270.327 451.42L270.343 439.595L269.942 421.878C278.268 425.009 284.854 423.631 291.533 418.012C297.961 412.604 300.396 406.999 299.625 398.508C298.759 388.975 295.384 376.773 293.683 366.979C290.602 349.24 288.368 319.179 278.418 304.859C273.317 297.517 266.183 293.617 258.125 290.113C268.293 277.48 268.305 260.132 261.387 245.937C270.197 243.278 283.481 236.263 283.808 225.79C284.222 212.508 269.185 206.052 258.629 202.668Z" fill="white"/>
<path d="M258.629 202.668C269.185 206.052 284.222 212.508 283.808 225.79C283.481 236.263 270.197 243.278 261.387 245.937C268.305 260.132 268.293 277.48 258.125 290.113C266.183 293.617 273.317 297.517 278.418 304.859C288.368 319.179 290.602 349.24 293.683 366.979C295.384 376.773 298.759 388.975 299.625 398.508C300.396 406.999 297.961 412.604 291.533 418.012C284.854 423.631 278.268 425.009 269.942 421.878L270.343 439.595L270.327 451.42C268.742 472.222 277.181 492.167 254.412 503.486C239.964 510.668 225.699 495.855 222.688 482.563C221.093 483.318 219.719 484.351 218.078 485.075C204.182 491.203 192.407 477.433 189.492 465.052C188.149 459.347 188.394 453.568 188.461 447.722C188.609 434.725 189.343 421.571 189.634 408.581C189.933 395.227 189.863 381.874 190.51 368.523C184.767 373.502 176.391 374.305 169.653 370.851C155.939 363.821 149.379 335.127 147.06 320.947C145.606 312.057 143.463 300.987 151.407 294.597C152.384 293.812 156.354 291.806 156.508 291.552C156.847 290.994 156.747 289.97 156.732 289.293C156.576 282.57 154.466 272.699 153.393 265.74C150.224 245.182 146.13 224.691 144.078 203.985C143.399 203.83 143.254 204.203 142.866 204.601C140.319 207.22 139.159 211.793 134.907 211.323C130.549 210.84 132.111 205.327 131.857 202.154C131.613 199.102 131.084 196.029 130.86 192.968L116.65 186.814C109.762 178.901 126.386 177.451 130.85 174.666C131.419 169.708 130.639 164.336 131.477 159.409C132.048 156.055 135.829 155.489 138.171 157.556C139.944 159.123 145.587 167.752 146.819 168.082L161.39 164.451C165.348 165.527 166.943 167.057 165.064 171C163.078 175.165 159.713 178.794 157.917 182.979L166.246 195.868C167.004 198.026 167.188 200.123 164.995 201.476C161.711 203.503 156.394 200.03 152.755 199.174C152.112 199.023 151.731 198.827 151.837 199.68C152.482 204.83 153.197 209.994 153.899 215.14C156.416 233.607 159.336 252.143 161.944 270.631C162.911 277.489 163.403 284.429 164.432 291.278C169.367 292.717 174.104 296.463 176.673 300.912L177.475 300.674C179.187 289.764 187.357 280.711 198.66 279.732C191.673 270.203 190.244 258.293 190.316 246.741C186.494 244.614 182.185 243.378 178.43 241.114C158.366 229.016 166.657 212.103 185.382 205.571L185.947 204.914C188.329 195.768 190.993 186.654 193.087 177.435C194.445 171.461 197.023 162.035 196.645 156.117C195.987 145.809 182.211 147.896 180.205 140.374C178.302 133.239 188.416 129.458 193.983 129.05C200.374 128.581 209.787 131.513 215.515 134.387C240.706 147.028 247.104 179.4 258.629 202.668ZM220.92 147.107C212.997 140.108 199.757 135.078 189.294 138.006C188.448 138.788 194.012 141.16 194.555 141.498C198.696 144.081 203.092 147.576 203.565 152.853C204.209 160.053 202.852 167.335 201.385 174.328C198.212 189.456 193.593 204.297 189.688 219.234C189.778 219.862 191.216 221.539 191.725 222.117C201.998 233.779 232.555 232.761 246.015 227.914C250.17 226.418 255.734 223.766 257.219 219.323C249.111 200.663 241.895 181.584 233.087 163.246C230.071 157.68 225.674 151.307 220.92 147.107ZM138.378 170.178V176.899C138.378 177.934 136.793 180.264 135.948 180.985C134.263 182.425 132.204 182.662 130.403 183.582C129.974 183.8 129.637 183.37 129.824 184.429C137.275 185.405 139.158 190.063 138.787 197.057C139.726 197.291 139.457 196.881 139.718 196.544C144.239 190.717 144.162 189.412 152.326 191.461C152.883 191.6 154.527 192.915 154.27 191.556C154.064 190.47 151.608 187.788 150.933 186.337C148.287 180.646 151.714 179.559 153.854 174.661C150.824 174.98 146.926 177.233 143.999 176.163C141.575 175.277 140.639 172.669 139.286 170.711C139.038 170.352 139.361 169.96 138.378 170.178ZM273.056 231.534C282.183 222.578 270.387 215.354 262.811 211.729C261.946 212.352 262.414 212.294 262.538 212.799C262.851 214.077 264.021 216.021 264.107 217.273C264.582 224.193 260.487 228.674 254.877 231.889C238.166 241.465 194.293 243.221 183.662 223.663C181.744 220.135 182.49 218.282 183.178 214.572C174.049 219.346 170.216 225.975 179.79 233.237C198.554 247.469 255.955 248.314 273.056 231.534ZM197.441 248.374C196.761 259.02 199.472 269.573 205.495 278.401C215.536 293.12 236.029 303.764 249.993 287.282C259.008 276.64 256.988 260.434 250.798 248.967C246.726 249.133 242.495 250.407 238.369 250.815C226.739 251.963 213.291 251.582 201.827 249.486C200.33 249.213 198.965 248.483 197.441 248.374ZM203.871 287.156C197.461 286.387 191.446 288.555 187.99 294.115C182.206 303.42 182.219 321.363 178.992 331.955C178.011 335.178 174.833 336.818 172.377 333.915C170.666 331.893 171.883 327.511 172.303 324.859C173.079 319.97 174.454 315.146 175.22 310.261C170.89 306.331 165.818 296.629 158.857 298.79C154.845 300.035 152.594 303.938 152.622 308.024C152.677 316.251 157.031 332.036 159.55 340.225C163.761 353.914 171.63 374.973 189.022 360.688L191.837 325.657C192.456 322.835 196.333 322.661 197.612 324.974C198.825 327.166 197.854 328.828 197.829 330.833C197.341 369.404 195.725 407.902 195.419 446.534C195.367 453.095 194.192 458.778 196.017 465.451C198.088 473.021 206.533 483.792 215.319 479.461C218.535 477.875 218.842 471.864 219.043 468.527C219.546 460.181 219.526 451.61 219.858 443.275C220.347 430.94 219.863 417.102 221.067 404.979C221.675 398.865 227.013 399.75 227.589 404.558C228.162 409.334 227.922 417.321 228.006 422.468C228.305 440.616 226.764 460.094 228.401 478.278C229.169 486.815 238.009 499.584 247.646 497.939C254.155 496.829 255.005 489.341 255.294 484.003C257.224 448.375 253.797 411.031 255.296 375.224C254.396 365.527 254.88 355.643 255.297 345.939C255.393 343.721 254.116 336.858 258.231 337.24C262.908 337.675 261.231 346.967 261.37 350.416C262.024 366.683 262.396 384.361 264.242 400.491C264.751 404.942 265.225 408.121 267.974 411.828C272.652 418.136 282.564 418.705 286.459 411.31C289.247 406.017 287.063 397.116 286.114 391.245C283.121 372.713 279.845 353.804 275.931 335.449C272.79 320.715 270.445 308.847 255.264 302.354C253.283 301.506 249.252 299.875 247.223 299.794C245.908 299.742 242.433 301.538 240.615 301.935C227.028 304.897 212.291 297.624 203.871 287.156Z" fill="black"/>
<path d="M203.875 287.158C212.295 297.626 227.031 304.899 240.619 301.936C242.436 301.54 245.912 299.744 247.226 299.796C249.256 299.877 253.286 301.508 255.267 302.356C270.449 308.849 272.793 320.717 275.935 335.45C279.849 353.806 283.124 372.715 286.118 391.247C287.066 397.118 289.25 406.019 286.463 411.312C282.568 418.707 272.656 418.138 267.977 411.83C265.228 408.123 264.754 404.943 264.245 400.493C262.399 384.363 262.028 366.685 261.373 350.418C261.235 346.969 262.911 337.677 258.234 337.242C254.12 336.86 255.396 343.723 255.301 345.941C254.883 355.645 254.399 365.529 255.3 375.226C253.801 411.033 257.228 448.377 255.297 484.005C255.008 489.343 254.158 496.831 247.65 497.941C238.012 499.586 229.173 486.817 228.404 478.28C226.767 460.096 228.308 440.617 228.01 422.47C227.925 417.323 228.165 409.335 227.593 404.56C227.016 399.752 221.678 398.866 221.071 404.981C219.867 417.104 220.351 430.942 219.861 443.277C219.53 451.612 219.55 460.183 219.047 468.529C218.846 471.866 218.538 477.877 215.323 479.462C206.537 483.794 198.092 473.023 196.021 465.453C194.195 458.78 195.37 453.097 195.422 446.536C195.728 407.904 197.345 369.405 197.833 330.835C197.858 328.83 198.828 327.168 197.616 324.976C196.336 322.663 192.459 322.837 191.841 325.658L189.026 360.69C171.633 374.975 163.765 353.916 159.554 340.227C157.034 332.037 152.681 316.253 152.625 308.026C152.598 303.94 154.849 300.037 158.86 298.792C165.822 296.631 170.893 306.332 175.224 310.263C174.458 315.148 173.083 319.972 172.307 324.861C171.886 327.513 170.67 331.894 172.381 333.917C174.836 336.82 178.014 335.18 178.996 331.957C182.222 321.365 182.21 303.421 187.994 294.117C191.45 288.557 197.464 286.389 203.875 287.158Z" fill="white"/>
<path d="M220.916 147.108C225.671 151.307 230.067 157.681 233.084 163.246C241.892 181.585 249.107 200.663 257.216 219.324C255.73 223.766 250.166 226.418 246.011 227.915C232.551 232.762 201.994 233.779 191.722 222.118C191.213 221.54 189.774 219.862 189.684 219.235C193.589 204.297 198.209 189.456 201.381 174.329C202.848 167.336 204.206 160.054 203.561 152.853C203.088 147.576 198.693 144.082 194.551 141.498C194.009 141.16 188.444 138.788 189.291 138.006C199.754 135.078 212.993 140.109 220.916 147.108ZM216.579 179.546V188.506C219.322 187.951 221.192 184.903 223.382 183.272C226.264 183.562 228.685 185.678 231.647 185.246L228.796 176.904L233.69 169.979L225.01 170.518C224.078 170.23 221.595 166.063 220.644 165.096C220.256 164.701 220.119 164.322 219.435 164.478L217.406 172.024L209.248 174.665C209.088 175.391 209.463 175.468 209.921 175.817C210.744 176.444 216.359 179.194 216.579 179.546ZM207.618 215.183V223.532L214.776 218.646L222.686 221.494L219.982 213.55L225.131 206.624C224.816 204.835 222.925 205.998 221.687 206.038C220.581 206.073 216.856 206.225 216.173 205.814L211.894 199.511L208.666 207.271L200.695 209.282C200.013 210.227 205.249 213.011 205.963 213.58C206.568 214.062 207.068 214.644 207.618 215.183Z" fill="white"/>
<path d="M197.438 248.375C198.962 248.485 200.327 249.214 201.824 249.487C213.288 251.583 226.737 251.964 238.366 250.816C242.492 250.409 246.723 249.134 250.795 248.968C256.985 260.436 259.005 276.641 249.99 287.283C236.026 303.766 215.534 293.122 205.492 278.402C199.47 269.575 196.758 259.021 197.438 248.375Z" fill="white"/>
<path d="M273.058 231.532C255.957 248.312 198.557 247.467 179.793 233.234C170.219 225.973 174.052 219.343 183.181 214.569C182.493 218.279 181.746 220.132 183.665 223.661C194.295 243.219 238.168 241.462 254.88 231.886C260.49 228.672 264.585 224.19 264.109 217.27C264.023 216.019 262.854 214.074 262.541 212.796C262.417 212.291 261.948 212.349 262.814 211.727C270.39 215.351 282.186 222.576 273.058 231.532Z" fill="white"/>
<path d="M138.38 170.18C139.364 169.961 139.041 170.354 139.289 170.713C140.641 172.67 141.577 175.279 144.002 176.165C146.929 177.235 150.827 174.982 153.856 174.662C151.716 179.56 148.29 180.648 150.936 186.339C151.61 187.79 154.067 190.471 154.272 191.558C154.53 192.917 152.885 191.602 152.329 191.463C144.165 189.414 144.241 190.719 139.721 196.546C139.459 196.883 139.728 197.293 138.79 197.058C139.161 190.064 137.277 185.407 129.826 184.431C129.639 183.372 129.977 183.802 130.405 183.583C132.206 182.664 134.265 182.427 135.951 180.987C136.796 180.265 138.38 177.936 138.38 176.9V170.18Z" fill="white"/>
<path d="M216.579 179.549C216.359 179.197 210.744 176.447 209.922 175.821C209.463 175.471 209.089 175.394 209.248 174.668L217.406 172.027L219.435 164.481C220.119 164.325 220.256 164.705 220.644 165.099C221.595 166.066 224.078 170.233 225.01 170.521L233.69 169.982L228.796 176.907L231.648 185.249C228.685 185.681 226.264 183.565 223.382 183.275C221.192 184.907 219.322 187.955 216.579 188.51V179.549Z" fill="black"/>
<path d="M207.624 215.18C207.074 214.641 206.575 214.059 205.969 213.576C205.256 213.007 200.019 210.223 200.702 209.279L208.672 207.268L211.901 199.508L216.18 205.81C216.863 206.222 220.588 206.07 221.694 206.034C222.932 205.995 224.822 204.832 225.137 206.621L219.989 213.547L222.693 221.49L214.783 218.643L207.624 223.529V215.18Z" fill="black"/>
<path d="M341.992 239.369C342.064 239.496 343.945 240.613 344.39 241.03C350.28 246.526 349.743 252.248 343.684 257.29C341.138 259.409 338.065 260.582 335.247 262.279C335.269 265.959 336.439 269.508 336.628 273.17C337.155 283.354 334.307 293.479 327.434 301.095C332.26 304.675 338.025 307.08 342.624 310.984C350.492 317.661 353.297 328.303 356.027 337.857C358.234 351.275 363.842 365.65 365.855 378.905C367.04 386.709 365.138 396.096 359.921 402.13C355.192 407.6 348.112 409.274 341.9 412.448L341.927 507.438C341.236 517.038 335.968 521.482 328.017 525.679C316.584 531.714 300.767 525.662 295.967 513.801C295.632 512.973 294.864 509.227 294.392 509.016C288.229 519.675 271.908 514.664 264.753 507.565C257.551 500.42 257.004 492.262 257.106 482.679C257.211 472.869 257.715 462.841 257.842 453.03C258.009 440.07 258.042 427.169 258.112 414.22C257.907 413.54 257.098 413.266 256.547 412.96C251.404 410.107 244.406 408.517 239.116 405.659C236.981 404.195 236.395 396.748 235.397 394.186C229.705 392.836 224.976 392.1 221.091 387.294C215.244 380.06 212.7 360.561 223.091 355.879C222.425 353.063 221.819 350.19 221.064 347.398C220.34 344.721 217.666 338.058 217.875 335.716C217.897 335.472 219.103 331.352 219.231 331.04C220.027 329.093 222.186 329.389 223.929 329.694C225.562 329.979 229.763 332.045 230.817 331.992C232.235 331.92 232.494 328.895 233.808 328.305C236.64 327.034 240.159 329.883 242.631 330.949C244.895 323.069 246.946 313.829 251.054 306.688C255.215 299.453 261.799 296.254 269.84 294.91C268.543 290.599 265.466 286.983 263.823 282.734C261.816 277.541 260.555 271.491 260.473 265.919C257.659 264.264 254.523 263.044 251.853 261.14C238.49 251.61 242.788 237.076 257.305 232.386C260.042 219.153 265.825 206.974 277.643 199.728C305.624 182.57 339.609 199.932 341.91 232.558C342 233.84 341.655 238.786 341.992 239.369Z" fill="black"/>
<path d="M308.701 387.834C310.183 387.973 311.583 387.687 313.014 387.377C317.563 386.394 322.477 384.682 326.922 383.266C328.267 382.837 331.281 382.727 331.837 381.468C332.529 379.9 331.867 372.197 331.623 370.039C331.258 366.809 329.261 353.555 327.916 351.487C326.785 349.749 324.393 348.657 323.904 351.278C323.203 355.034 324.291 362.665 324.637 366.779C324.724 367.802 325.237 368.798 325.321 369.981C325.437 371.618 325.576 375.979 325.31 377.415C325.071 378.709 320.652 379.685 319.383 379.967C317.568 380.369 310.663 381.685 309.216 381.5C308.273 381.38 306.013 379.895 304.476 379.521C300.035 378.439 293.271 377.275 288.736 376.889C285.287 376.595 281.736 377.143 278.304 376.369C276.77 371.061 275.168 365.71 273.83 360.351C273.032 357.156 272.696 353.396 271.862 350.306C270.922 346.819 268.926 346.413 265.599 346.145C265.968 342.338 267.027 333.5 263.57 330.948C257.74 326.644 261.198 342.021 259.064 344.019C255.561 342.2 258.737 340.143 256.247 336.951C254.182 334.305 251.494 334.882 248.978 333.191C248.807 332.507 251.066 324.073 251.49 322.673C253.515 315.981 256.218 307.768 262.537 304.043C265.536 302.275 272.642 300.221 275.94 301.358C277.089 301.754 282.442 306.306 284.354 307.431C294.445 313.37 307.378 314.949 317.907 309.205C328.487 314.224 336.757 319.069 341.129 330.502C346.362 344.189 350.143 365.08 352.96 379.793C354.483 387.749 355.708 397.426 347.675 402.252C341.301 406.081 329.015 410.02 321.614 410.462C319.643 410.579 314.483 410.766 312.774 410.439C311.725 410.239 309.955 408.115 309.847 407.007L308.701 387.834Z" fill="#FBFBFB"/>
<path d="M328.486 416.101C328.217 440.296 328.839 464.527 328.503 488.723C328.408 495.516 328.697 503.593 328.127 510.253C326.863 525.019 311.404 524.473 303.762 514.843C298.101 507.71 300.094 491.71 299.883 482.686C299.567 469.189 299.16 455.575 298.441 442.085C298.296 439.38 299.329 432.322 296.942 430.832C294.249 429.152 292.393 430.766 292.101 433.596C291.427 440.118 291.974 447.808 291.757 454.451C291.257 469.733 291.409 486.742 289.97 501.773C288.836 513.611 274.688 508.463 269.117 502.853C261.055 494.736 263.763 483.801 263.848 473.531C264.003 454.804 263.695 436.069 263.833 417.341L264.658 416.502C268.056 418.028 271.476 419.727 274.954 421.055C276.838 421.775 281.286 423.624 283.083 423.544C287.683 423.339 286.183 416.156 287.571 413.521C288.377 411.991 290.609 413.36 291.66 413.535C295.578 414.188 300.028 414.671 303.836 415.491C305.518 415.853 307.329 417.061 309.284 417.136C310.538 417.184 311.566 416.542 312.767 416.459C315.925 416.242 318.874 416.913 321.965 416.823C322.955 416.794 328.251 415.872 328.486 416.101Z" fill="#FBFBFB"/>
<path d="M315.06 203.407C304.732 203.44 297.774 207.491 291.207 215.064C284.674 222.598 278.793 236.718 278.322 246.693C278.209 249.088 278.79 254.52 282.34 252.478C284.767 251.081 284.624 244.541 285.126 241.841C288.245 225.058 302.176 204.547 321.726 209.64C332.037 212.326 335.767 225.222 336.273 234.663C336.409 237.216 335.779 238.585 335.583 240.727C335.085 246.164 343.535 245.063 340.806 250.533C339.429 253.292 333.508 255.231 330.592 256.216C310.308 263.061 278.099 268.206 258.647 257.527C250.283 252.934 246.894 245.075 256.589 239.454C257.197 239.452 258.178 247.116 261.015 244.578C262.665 243.101 263.332 234.915 263.935 232.309C266.239 222.35 271.504 210.894 280.553 205.471C286.848 201.698 296.253 198.988 303.592 199.51C307.226 199.767 312.124 201.254 315.06 203.407Z" fill="#FBFBFB"/>
<path d="M324.243 264.18C325.372 269.376 326.303 274.584 326.732 279.886C325.986 307.699 298.714 315.31 280.073 296.164C272.535 288.421 266.811 278.872 267.013 267.714C267.217 267.477 269.918 268.566 270.463 268.677C288.309 272.319 306.932 268.676 324.243 264.18Z" fill="#FBFBFB"/>
<path d="M271.229 376.851C262.731 378.921 264.963 387.812 266.412 394.269C267.334 398.38 269.27 404.724 272.901 407.212C274.149 408.067 280.694 410.649 280.994 411.143C279.604 415.05 282.102 417.201 277.021 415.104C265.746 410.452 254.59 405.385 243.429 400.472C242.383 398.317 242.836 395.714 241.623 393.66C243.737 392.297 245.255 389.926 246.072 387.565C250.559 374.597 244.42 357.471 229.525 355.473C228.446 350 226.358 344.669 225.401 339.175C225.313 338.671 225.16 338.112 225.496 337.664L230.62 339.262C231.632 341.178 231.22 342.436 233.206 343.742C234.737 344.748 249.436 350.873 250.968 351.063C254.525 351.506 254.055 349.862 255.606 349.393C257.365 348.861 263.262 351.938 265.236 352.695C267.554 360.659 269.426 368.758 271.229 376.851Z" fill="#FBFBFB"/>
<path d="M304.456 409.383C297.255 407.83 288.944 407.47 282.123 404.691C277.575 402.838 275.593 401.446 273.715 396.847C272.065 392.805 269.681 383.785 276.048 382.918C284.777 382.602 293.452 383.798 301.972 385.549C303.731 386.752 302.886 395.174 303.048 397.545C303.158 399.145 304.892 408.908 304.456 409.383Z" fill="#FBFBFB"/>
<path d="M226.997 362.128C234.247 360.293 240.806 369.132 241.235 375.629C241.808 384.321 237.348 391.782 228.524 385.16C222.745 380.823 220.925 370.725 224.461 364.539C224.957 363.673 226.007 362.379 226.997 362.128Z" fill="#FBFBFB"/>
<path d="M251.108 339.791L248.111 344.377L238.391 340.318C236.927 339.23 236.791 335.402 238.854 334.898L251.108 339.791Z" fill="#FAFAFA"/>
<path d="M75.4531 466.262L162.508 482.517V454.386L75.4531 438.336V466.262ZM126.293 455.568L153.876 460.671C154.841 460.85 155.62 461.78 155.62 462.742C155.62 463.709 154.841 464.345 153.876 464.167L126.293 459.055C125.332 458.877 124.557 457.955 124.557 456.99C124.557 456.031 125.332 455.39 126.293 455.568ZM126.293 464.74L153.876 469.865C154.841 470.044 155.62 470.975 155.62 471.937C155.62 472.904 154.841 473.54 153.876 473.36L126.293 468.227C125.332 468.049 124.557 467.126 124.557 466.161C124.557 465.202 125.332 464.561 126.293 464.74ZM97.4489 453.165C102.72 453.248 103.516 461.668 97.5872 459.992C93.8628 458.941 93.8108 453.111 97.4489 453.165ZM85.7599 450.999C90.94 450.979 91.8892 459.403 86.0875 457.855C82.1002 456.79 82.1979 451.011 85.7599 450.999Z" fill="white"/>
<path d="M75.4531 497.662L162.508 514.148V486.023L75.4531 469.742V497.662ZM126.293 486.754L153.876 491.93C154.841 492.111 155.62 493.044 155.62 494.005C155.62 494.972 154.841 495.607 153.876 495.425L126.293 490.241C125.332 490.061 124.557 489.136 124.557 488.172C124.557 487.213 125.332 486.574 126.293 486.754ZM126.293 495.926L153.876 501.123C154.841 501.305 155.62 502.238 155.62 503.2C155.62 504.167 154.841 504.801 153.876 504.619L126.293 499.414C125.332 499.232 124.557 498.307 124.557 497.343C124.557 496.384 125.332 495.745 126.293 495.926ZM95.4281 484.777C98.2665 481.448 104.155 487.439 100.83 490.38C97.9556 492.93 92.6888 487.983 95.4281 484.777ZM84.3003 482.106C87.1507 480.319 91.383 484.185 89.715 487.447C88.7547 489.334 85.8345 489.248 84.1797 487.435C82.6287 485.73 82.6517 483.146 84.3003 482.106Z" fill="white"/>
<path d="M75.4531 529.051L162.508 545.767V517.636L75.4531 501.125V529.051ZM126.293 518.916L153.876 524.167C154.841 524.351 155.62 525.286 155.62 526.247C155.62 527.214 154.841 527.847 153.876 527.663L126.293 522.404C125.332 522.221 124.557 521.294 124.557 520.33C124.557 519.371 125.332 518.734 126.293 518.916ZM126.293 528.089L153.876 533.36C154.841 533.545 155.62 534.48 155.62 535.442C155.62 536.409 154.841 537.041 153.876 536.856L126.293 531.576C125.332 531.392 124.557 530.465 124.557 529.501C124.557 528.542 125.332 527.905 126.293 528.089ZM97.9672 516.302C100.588 516.692 102.426 519.56 101.475 521.838C100.582 523.97 97.3337 523.963 95.6814 521.891C93.6842 519.399 95.0081 515.866 97.9672 516.302ZM85.9553 514.077C88.933 514.239 91.1873 517.734 89.5482 520.093C88.2488 521.954 85.2024 521.481 83.743 519.204C82.2152 516.821 83.4041 513.932 85.9553 514.077Z" fill="white"/>
<path d="M75.4531 550.471L162.508 567.345V549.265L75.4531 532.523V550.471Z" fill="white"/>
<path d="M65.2726 423.305C63.9441 423.379 62.8163 424.121 62.4156 425.383L62.3125 557.15C62.45 559.402 64.4538 561.07 66.5328 561.476L172.43 582.115C173.785 582.263 174.865 581.984 175.579 581.296L176.542 497.631V447.945C176.55 447.204 176.395 446.48 176.106 445.819C175.691 445.062 175.154 444.384 174.521 443.801C174.024 443.426 173.451 443.133 172.809 442.958L65.2726 423.305ZM166.007 569.777C166.007 570.745 165.227 571.375 164.26 571.187L73.7376 553.615C72.7856 553.43 72.0173 552.506 72.0173 551.545V435.968C72.0173 435.008 72.7856 434.374 73.7376 434.549L164.26 451.212C165.227 451.39 166.007 452.315 166.007 453.283V569.777Z" fill="white"/>
<path d="M176.454 585.218C175.891 584.911 175.543 584.317 175.551 583.676L175.578 581.294C174.864 581.982 173.784 582.261 172.429 582.113L66.5321 561.474C64.4531 561.068 62.4493 559.4 62.3118 557.148L62.415 425.381C62.8156 424.119 63.9434 423.377 65.2719 423.303L172.808 442.956C173.45 443.131 174.023 443.424 174.52 443.799C173.428 442.796 172.049 442.084 170.485 441.811L62.9376 422.654C62.1864 422.52 61.6107 421.91 61.5204 421.152C61.4435 420.51 61.733 419.893 62.247 419.531C60.1936 420.262 58.6915 422.01 58.375 424.351V557.329C58.4836 558.547 59.3532 560.624 60.1314 561.671C61.1329 563.011 63.0618 564.446 64.5619 564.976L173.386 586.314C175.099 586.478 176.606 586.123 177.795 585.352C177.629 585.403 177.457 585.43 177.284 585.43C176.999 585.43 176.713 585.36 176.454 585.218Z" fill="black"/>
<path d="M176.538 497.632L177.088 449.832C177.114 448.379 176.755 447.009 176.102 445.82C176.391 446.482 176.545 447.205 176.538 447.946V497.632Z" fill="black"/>
<path d="M164.258 451.215L73.7359 434.553C72.7839 434.377 72.0156 435.011 72.0156 435.972V551.549C72.0156 552.509 72.7839 553.434 73.7359 553.619L164.258 571.191C165.225 571.378 166.006 570.748 166.006 569.78V453.286C166.006 452.318 165.225 451.393 164.258 451.215ZM162.512 567.353L75.4566 550.48V532.532L162.512 549.274V567.353ZM162.512 545.776L75.4566 529.059V501.133L162.512 517.644V545.776ZM162.512 514.146L75.4566 497.661V469.741L162.512 486.021V514.146ZM162.512 482.523L75.4566 466.268V438.342L162.512 454.392V482.523Z" fill="black"/>
<path d="M126.298 459.056L153.881 464.168C154.846 464.347 155.625 463.71 155.625 462.743C155.625 461.781 154.846 460.851 153.881 460.672L126.298 455.569C125.338 455.391 124.562 456.032 124.562 456.991C124.562 457.956 125.338 458.878 126.298 459.056Z" fill="black"/>
<path d="M126.298 468.228L153.881 473.361C154.846 473.541 155.625 472.905 155.625 471.938C155.625 470.976 154.846 470.045 153.881 469.866L126.298 464.741C125.338 464.562 124.562 465.203 124.562 466.162C124.562 467.127 125.338 468.05 126.298 468.228Z" fill="black"/>
<path d="M126.298 490.237L153.881 495.421C154.846 495.602 155.625 494.968 155.625 494C155.625 493.039 154.846 492.106 153.881 491.925L126.298 486.749C125.338 486.569 124.562 487.208 124.562 488.167C124.562 489.132 125.338 490.056 126.298 490.237Z" fill="black"/>
<path d="M126.298 499.409L153.881 504.614C154.846 504.796 155.625 504.162 155.625 503.195C155.625 502.234 154.846 501.3 153.881 501.118L126.298 495.921C125.338 495.74 124.562 496.379 124.562 497.338C124.562 498.302 125.338 499.228 126.298 499.409Z" fill="black"/>
<path d="M126.298 522.409L153.881 527.668C154.846 527.852 155.625 527.22 155.625 526.252C155.625 525.291 154.846 524.356 153.881 524.172L126.298 518.922C125.338 518.739 124.562 519.376 124.562 520.335C124.562 521.3 125.338 522.226 126.298 522.409Z" fill="black"/>
<path d="M126.298 531.582L153.881 536.861C154.846 537.046 155.625 536.414 155.625 535.447C155.625 534.486 154.846 533.55 153.881 533.366L126.298 528.094C125.338 527.91 124.562 528.547 124.562 529.506C124.562 530.471 125.338 531.398 126.298 531.582Z" fill="black"/>
<path d="M101.473 521.845C102.424 519.567 100.586 516.7 97.9652 516.31C95.0061 515.874 93.6822 519.407 95.6794 521.898C97.3318 523.971 100.58 523.977 101.473 521.845Z" fill="black"/>
<path d="M100.832 490.379C104.158 487.437 98.2688 481.447 95.4304 484.776C92.691 487.982 97.9579 492.928 100.832 490.379Z" fill="black"/>
<path d="M97.5884 459.992C103.517 461.668 102.721 453.248 97.4501 453.164C93.812 453.111 93.8639 458.94 97.5884 459.992Z" fill="black"/>
<path d="M89.7224 487.441C91.3903 484.18 87.158 480.313 84.3077 482.101C82.659 483.141 82.636 485.725 84.1871 487.43C85.8419 489.242 88.7621 489.329 89.7224 487.441Z" fill="black"/>
<path d="M89.546 520.099C91.185 517.741 88.9307 514.245 85.953 514.083C83.4018 513.939 82.2129 516.828 83.7407 519.21C85.2001 521.488 88.2465 521.96 89.546 520.099Z" fill="black"/>
<path d="M86.0892 457.856C91.8909 459.404 90.9418 450.98 85.7616 451C82.1996 451.012 82.1019 456.791 86.0892 457.856Z" fill="black"/>
<path d="M180.299 446.021C180.306 446.463 180.311 446.916 180.317 447.361C180.483 448.177 180.574 449.018 180.558 449.883L180.45 459.277C180.779 497.13 180.402 543.853 180.552 579.466L199.739 566.808C202.156 565.214 203.599 562.533 203.599 559.638V434.61C203.599 433.215 203.275 431.889 202.699 430.703L179.656 444.236C179.943 444.817 180.164 445.416 180.299 446.021Z" fill="white"/>
<path d="M177.596 441.425L200.589 427.921C199.39 426.858 197.899 426.105 196.223 425.808L98.8727 408.585C97.4036 408.324 95.9074 408.505 94.5432 409.104L69.3203 420.175C89.8469 423.775 110.487 427.464 131.189 431.291L171.091 438.398C172.227 438.597 173.293 438.963 174.276 439.455C174.532 439.505 174.788 439.554 175.044 439.604C175.955 440.048 176.827 440.676 177.596 441.425Z" fill="white"/>
<path d="M179.654 444.234L179.297 444.444C179.762 445.354 180.107 446.332 180.316 447.359C180.309 446.914 180.304 446.461 180.297 446.019C180.163 445.414 179.941 444.815 179.654 444.234Z" fill="white"/>
<path d="M180.451 459.273L179.055 580.45L180.552 579.462C180.403 543.849 180.779 497.126 180.451 459.273Z" fill="white"/>
<path d="M175.042 439.602C174.786 439.552 174.53 439.503 174.273 439.453C175.393 440.014 176.404 440.743 177.266 441.615L177.594 441.422C176.825 440.674 175.953 440.045 175.042 439.602Z" fill="white"/>
<path d="M69.1641 420.239L131.187 431.287C110.485 427.46 89.8448 423.771 69.3181 420.172L69.1641 420.239Z" fill="white"/>
<path d="M196.827 422.393L99.4773 405.169C97.3321 404.79 95.1445 405.052 93.1499 405.927L62.5477 419.36C62.4407 419.407 62.3429 419.467 62.25 419.533C62.7204 419.365 63.2196 419.251 63.7403 419.195C64.5721 419.34 65.407 419.488 66.2393 419.634L93.8468 407.515C95.5209 406.78 97.3751 406.558 99.1754 406.876L196.525 424.1C198.718 424.488 200.653 425.532 202.148 427.005L202.421 426.844L203.314 428.365C204.59 430.132 205.337 432.293 205.337 434.607V559.635C205.337 563.105 203.594 566.342 200.698 568.253L180.346 581.68C179.929 583.28 179.041 584.547 177.798 585.353C177.953 585.305 178.103 585.236 178.242 585.144L201.653 569.7C205.045 567.462 207.071 563.699 207.071 559.635V434.607C207.071 428.58 202.763 423.443 196.827 422.393Z" fill="black"/>
<path d="M176.101 445.814C175.756 445.024 175.215 444.326 174.516 443.797C175.149 444.379 175.686 445.058 176.101 445.814Z" fill="black"/>
<path d="M176.542 578.609V497.625L175.578 581.291C176.192 580.699 176.536 579.806 176.542 578.609Z" fill="black"/>
<path d="M180.342 581.68L177.284 583.698L178.825 449.85C178.854 448.233 178.476 446.695 177.791 445.33L177.764 445.346L176.923 443.914C175.482 441.962 173.326 440.55 170.784 440.104L63.2412 420.948L66.236 419.634C65.4037 419.488 64.5689 419.341 63.737 419.195C63.2163 419.251 62.7172 419.365 62.2467 419.533C61.7327 419.894 61.4432 420.512 61.5201 421.153C61.6104 421.912 62.1861 422.521 62.9373 422.655L170.485 441.812C172.049 442.086 173.428 442.797 174.52 443.801C175.219 444.33 175.76 445.028 176.105 445.818C176.758 447.007 177.117 448.377 177.092 449.83L176.541 497.63V578.614C176.536 579.811 176.191 580.704 175.578 581.296L175.55 583.678C175.543 584.319 175.891 584.912 176.453 585.219C176.713 585.361 176.999 585.431 177.284 585.431C177.457 585.431 177.628 585.405 177.794 585.353C179.038 584.547 179.926 583.281 180.342 581.68Z" fill="black"/>
<path d="M180.32 447.359C180.374 451.212 180.417 455.191 180.453 459.275L180.561 449.881C180.576 449.016 180.486 448.175 180.32 447.359Z" fill="black"/>
<path d="M131.188 431.289C145.528 433.94 159.896 436.656 174.274 439.454C173.291 438.961 172.226 438.596 171.089 438.397L131.188 431.289Z" fill="black"/>
<path d="M94.539 409.102C95.9032 408.503 97.3994 408.323 98.8685 408.583L196.219 425.807C197.894 426.103 199.386 426.857 200.585 427.919L202.143 427.004C200.648 425.531 198.713 424.487 196.52 424.1L99.1705 406.876C97.3702 406.557 95.5159 406.779 93.8419 407.514L66.2344 419.633C67.2607 419.813 68.2891 419.994 69.3161 420.174L94.539 409.102Z" fill="black"/>
<path d="M202.701 430.703C203.277 431.889 203.601 433.215 203.601 434.61V559.638C203.601 562.533 202.158 565.213 199.741 566.808L180.554 579.466C180.556 579.823 180.557 580.187 180.558 580.542C180.515 580.94 180.439 581.318 180.344 581.682L200.696 568.255C203.592 566.344 205.335 563.107 205.335 559.638V434.61C205.335 432.296 204.588 430.134 203.312 428.367L204.176 429.837L202.701 430.703Z" fill="black"/>
<path d="M170.785 440.103C173.327 440.549 175.483 441.961 176.924 443.913L176.008 442.355L177.267 441.616C176.404 440.744 175.394 440.015 174.274 439.453C159.896 436.656 145.528 433.94 131.187 431.289L69.1647 420.241L69.3188 420.174C68.2917 419.993 67.2634 419.812 66.237 419.633L63.2422 420.947L170.785 440.103Z" fill="black"/>
<path d="M180.55 579.465L179.052 580.453L180.448 459.276C180.413 455.192 180.369 451.213 180.316 447.36C180.107 446.333 179.762 445.355 179.297 444.445L177.788 445.331C178.473 446.697 178.851 448.235 178.823 449.851L177.281 583.699L180.34 581.681C180.435 581.317 180.511 580.94 180.554 580.541C180.553 580.187 180.552 579.822 180.55 579.465Z" fill="black"/>
<path d="M179.657 444.236L202.7 430.702C202.185 429.643 201.465 428.7 200.587 427.922L177.594 441.426C178.436 442.246 179.151 443.21 179.657 444.236Z" fill="black"/>
<path d="M179.292 444.442L179.649 444.232C179.143 443.206 178.428 442.242 177.586 441.422L177.258 441.615C178.077 442.443 178.759 443.399 179.292 444.442Z" fill="black"/>
<path d="M203.307 428.364L202.414 426.844L202.141 427.004C202.567 427.424 202.956 427.879 203.307 428.364Z" fill="black"/>
<path d="M177.763 445.346L177.79 445.33C177.541 444.832 177.251 444.36 176.922 443.914L177.763 445.346Z" fill="black"/>
<path d="M202.699 430.696L204.173 429.83L203.31 428.36C202.96 427.875 202.57 427.42 202.144 427L200.586 427.915C201.464 428.693 202.184 429.636 202.699 430.696Z" fill="black"/>
<path d="M177.266 441.617L176.008 442.356L176.923 443.915C177.252 444.36 177.542 444.833 177.791 445.33L179.3 444.444C178.767 443.402 178.086 442.445 177.266 441.617Z" fill="black"/>
<path d="M130.8 533.901L159.128 520.371L162.473 519.385C176.752 522.492 191.406 524.925 205.613 528.427C207.433 528.876 209.924 529.181 210.196 531.478C210.558 534.545 210.114 538.695 210.179 541.927C210.816 573.275 209.756 604.865 210.162 636.291C209.728 639.916 205.632 642.326 202.891 644.288C190.829 652.922 178.076 660.657 165.894 669.124C161.352 672.306 155.953 669.736 151.157 668.38C141.84 665.747 131.891 662.931 122.717 659.924C118.21 658.446 113.751 655.81 113.751 650.314V624.233C112.047 624.951 110.138 625.091 108.312 624.965L91.3606 620.671C91.3162 621.312 91.4145 622.064 92.0429 622.404C96.1766 623.808 104.243 624.585 105.943 629.37C107.245 633.037 105.231 635.084 102.379 636.907C97.0856 640.289 90.9353 642.869 85.68 646.417C82.8112 647.642 80.378 647.516 77.4102 646.96C65.4787 644.727 52.0013 640.415 40.1585 637.137C35.904 635.96 30.6256 634.868 26.5899 633.403C24.9378 632.803 23.5517 631.891 22.9821 630.14C21.3265 625.053 26.8158 622.839 30.3729 620.881C36.1743 617.687 42.279 615.009 48.1998 612.047L48.6059 609.738L8.01416 599.306C3.30169 597.564 0.549532 594.02 0 589L0.0365447 505.811C0.425695 503.334 1.67419 501.263 3.81801 499.923C9.34676 498.721 16.0643 494.526 21.3712 493.557C22.3393 493.38 23.3035 493.405 24.279 493.473L121.897 511.887C126.452 512.64 130.8 517.719 130.8 522.323V533.901ZM118.077 526.649V539.626L118.581 539.883C120.454 538.404 123.28 537.781 125.208 536.579C125.65 536.303 126.158 536.171 126.214 535.549C125.379 529.314 129.057 518.697 121.119 516.227L24.2763 498.051C21.8064 497.95 19.4693 498.87 17.3096 499.931L110.042 518.398C113.911 519.131 117.548 522.737 118.077 526.649ZM113.751 603.113V527.921C113.751 527.412 112.851 525.38 112.478 524.869C111.722 523.834 110.48 523.046 109.223 522.78C75.5507 516.383 41.9984 509.134 8.2821 503.115C5.96267 503.449 4.79681 504.062 4.57909 506.536L4.57387 575.985L113.751 603.113ZM202.302 532.377L162.762 523.993C151.159 528.998 139.785 534.531 128.418 540.044C127.446 540.515 126.158 541.006 125.456 541.786C125.893 541.76 126.313 541.807 126.741 541.904C136.739 544.159 148.012 546.491 157.775 549.292C160.112 549.962 162.108 550.841 163.959 552.436C172.031 548.257 180.261 544.354 188.312 540.14C192.502 537.948 197.807 535.395 201.715 532.933C201.939 532.792 202.28 532.69 202.302 532.377ZM205.864 535.936L166.147 556.457L166.69 560.225L166.68 662.91C169.864 660.768 173.271 658.907 176.48 656.808C184.695 651.437 194.732 645.121 202.382 639.198C203.303 638.486 205.864 636.515 205.864 635.301V535.936ZM118.077 544.588V650.06C118.077 651.603 119.63 654.379 121.319 654.706C133.138 657.764 145.116 662.639 156.954 665.382C158.534 665.749 160.657 666.516 162.098 665.582V559.219C162.098 558.726 161.154 556.459 160.784 555.953C160.257 555.232 159.567 554.784 158.788 554.386L118.077 544.588ZM4.58939 580.721V588.99C4.58939 591.51 7.81289 594.755 10.2427 595.297L108.566 620.385C109.55 620.654 113.379 620.203 113.71 619.23L113.768 608.065L4.58939 580.721ZM77.1069 630.594L74.0592 616.214L52.9369 611L50.6448 623.723L77.1069 630.594ZM47.0821 617.618C42.9376 619.611 38.6838 621.453 34.6098 623.591C33.5692 624.137 27.6848 627.268 27.3604 627.794C27.1278 628.171 27.1472 628.648 27.4859 628.946L79.2763 642.804C81.2064 642.968 82.5373 642.73 84.2875 641.971C89.577 639.675 94.9593 635.228 100.341 632.833C102.883 631.34 101.81 630.244 99.6738 629.277C98.8716 628.913 92.6465 627.002 92.3778 627.285C92.4218 628.132 92.4376 628.981 91.7405 629.576C89.1171 630.585 83.2414 635.921 80.8032 635.938C79.6997 635.946 77.4461 635.189 76.2388 634.9C68.76 633.111 61.0601 631.053 53.6447 628.995C52.1588 628.582 48.0144 627.708 46.9945 626.993C44.5007 625.247 47.1635 620.165 47.0821 617.618ZM87.7547 626.732L86.1432 619.397L79.146 617.619L81.6921 630.594L87.7547 626.732Z" fill="black"/>
<path d="M113.748 603.115L4.57031 575.988L4.57553 506.539C4.79325 504.065 5.95911 503.452 8.27854 503.117C41.9948 509.136 75.5472 516.386 109.22 522.782C110.477 523.049 111.719 523.836 112.474 524.871C112.847 525.382 113.748 527.414 113.748 527.924V603.115Z" fill="white"/>
<path d="M118.078 544.594L158.789 554.392C159.568 554.79 160.259 555.238 160.785 555.959C161.155 556.465 162.099 558.732 162.099 559.225V665.588C160.659 666.522 158.535 665.754 156.955 665.388C145.117 662.645 133.139 657.77 121.32 654.712C119.632 654.385 118.078 651.609 118.078 650.066V544.594ZM138.125 560.948C125.591 561.321 126.319 579.105 136.521 583.022C140.606 584.591 145.226 584.896 148.21 581.214C154.481 573.477 148.071 560.652 138.125 560.948ZM126.34 592.814C123.682 593.533 123.794 596.267 126.337 597.278C133.604 600.166 143.323 600.798 150.841 603.563C154.16 604.545 156.025 601.199 152.939 599.428L126.34 592.814Z" fill="white"/>
<path d="M205.865 535.938V635.303C205.865 636.517 203.304 638.487 202.383 639.2C194.733 645.122 184.696 651.438 176.481 656.81C173.272 658.908 169.865 660.769 166.681 662.911L166.691 560.226L166.148 556.458L205.865 535.938Z" fill="white"/>
<path d="M4.58594 580.727L113.765 608.071L113.707 619.236C113.376 620.209 109.546 620.66 108.562 620.391L10.2392 595.303C7.80943 594.761 4.58594 591.516 4.58594 588.996V580.727Z" fill="white"/>
<path d="M202.299 532.384C202.277 532.697 201.936 532.799 201.712 532.94C197.804 535.402 192.499 537.955 188.309 540.148C180.258 544.361 172.028 548.265 163.956 552.443C162.105 550.849 160.11 549.97 157.772 549.299C148.009 546.499 136.736 544.166 126.738 541.911C126.31 541.814 125.891 541.768 125.453 541.794C126.155 541.014 127.443 540.523 128.415 540.051C139.782 534.538 151.156 529.005 162.759 524L202.299 532.384Z" fill="white"/>
<path d="M47.0798 617.617C47.1612 620.164 44.4984 625.247 46.9922 626.993C48.012 627.707 52.1565 628.582 53.6423 628.994C61.0577 631.052 68.7577 633.11 76.2364 634.899C77.4438 635.188 79.6974 635.945 80.8009 635.938C83.239 635.921 89.1148 630.584 91.7382 629.575C92.4352 628.98 92.4194 628.131 92.3754 627.284C92.644 627.002 98.8692 628.913 99.6715 629.276C101.808 630.243 102.881 631.339 100.339 632.833C94.9569 635.228 89.5747 639.674 84.2852 641.97C82.535 642.729 81.2041 642.967 79.274 642.803L27.4835 628.945C27.1448 628.647 27.1255 628.17 27.3581 627.793C27.6825 627.267 33.5668 624.136 34.6075 623.59C38.6815 621.452 42.9352 619.61 47.0798 617.617Z" fill="white"/>
<path d="M118.08 526.652C117.55 522.74 113.914 519.135 110.045 518.402L17.3125 499.935C19.4722 498.874 21.8093 497.953 24.2791 498.054L121.122 516.231C129.06 518.701 125.382 529.318 126.217 535.553C126.161 536.175 125.653 536.307 125.211 536.583C123.283 537.785 120.457 538.408 118.584 539.887L118.08 539.63V526.652Z" fill="white"/>
<path d="M77.1106 630.601L50.6484 623.731L52.9406 611.008L74.0629 616.222L77.1106 630.601Z" fill="white"/>
<path d="M87.7572 626.73L81.6946 630.593L79.1484 617.617L86.1457 619.396L87.7572 626.73Z" fill="white"/>
<path d="M138.12 560.943C148.066 560.647 154.476 573.471 148.205 581.208C145.221 584.89 140.602 584.585 136.516 583.016C126.314 579.099 125.586 561.315 138.12 560.943ZM137.091 565.515C130.602 566.639 133.21 578.507 140.105 579.427C143.124 579.83 145.478 578.964 146.002 575.697C146.822 570.584 142.69 564.544 137.091 565.515Z" fill="black"/>
<path d="M126.343 592.812L152.942 599.427C156.028 601.198 154.163 604.544 150.843 603.561C143.325 600.797 133.607 600.165 126.339 597.276C123.797 596.266 123.684 593.531 126.343 592.812Z" fill="black"/>
<path d="M137.095 565.518C142.694 564.547 146.827 570.587 146.006 575.7C145.482 578.966 143.128 579.833 140.11 579.43C133.215 578.509 130.606 566.642 137.095 565.518Z" fill="white"/>
<path d="M145.095 637.142C141.829 639.845 138.497 634.157 141.824 632.46C145.182 630.748 147.554 635.108 145.095 637.142Z" fill="black"/>
<path d="M131.193 628.837C135.917 627.754 135.962 634.476 132.051 634.364C128.777 634.271 128.431 629.47 131.193 628.837Z" fill="black"/>
<path d="M138.826 569.829C143.55 568.746 143.595 575.468 139.683 575.356C136.41 575.263 136.064 570.462 138.826 569.829Z" fill="black"/>
<path d="M197.063 489.336C185.233 491.693 177.753 503.82 175.403 514.585C174.046 520.798 173.911 527.18 177.609 532.671C177.853 533.034 179.315 534.63 179.187 534.815C169.308 540.821 161.799 551.879 160.048 563.15C158.768 577.645 156.269 592.08 155.034 606.572C154.78 609.552 155.718 614.14 157.888 615.083C160.057 616.026 167.624 616.633 172.28 613.249L171.948 637.003C171.842 644.526 171.334 652.232 171.459 659.738C171.509 662.8 172.816 666.452 176.388 666.857C178.762 667.127 184.795 667.004 186.96 666.209C191.647 664.489 195.465 660.683 197.411 656.235C200.497 655.963 203.951 656.74 206.884 655.658C214.112 652.989 218.715 645.439 219.123 638.093L219.127 582.811C219.397 582.952 219.487 583.274 219.766 583.519C225.176 588.29 232.47 580.831 234.829 576.226C235.893 574.15 236.522 571.9 237 569.636V566.186C234.7 554.884 233.786 543.08 231.474 531.809C230.446 526.796 228.07 522.196 222.739 520.556L213.328 518.505C216.511 511.236 218.633 502.372 214.966 494.877C213.695 492.279 211.075 489.716 208.014 489.336H197.063ZM207.569 492.043C211.525 492.602 213.101 497.395 213.487 500.708C214.699 511.093 208.152 524.73 199.965 531.292C194.001 536.072 186.079 538.602 183.909 528.888C181.3 517.206 189.511 500.519 199.813 494.288C201.974 492.982 204.969 491.675 207.569 492.043ZM209.028 525.455C209.415 525.114 212.546 523.625 213.219 523.342C221.679 519.782 227.52 523.633 229.219 531.967C231.561 543.444 232.557 555.503 234.752 567.042C235.006 571.168 233.153 575.746 230.48 578.892C227.014 582.973 220.697 585.756 219.764 578.189L219.769 539.916C219.509 537.657 216.518 538.238 216.703 540.379L216.717 639.357C216.046 645.38 212.161 651.343 206.3 653.678C202.577 655.16 200.479 653.352 200.116 649.708L200.123 591.672C200.019 590.055 198.115 589.503 197.185 590.849L197.071 649.238C196.548 655.063 193.263 660.746 187.888 663.506C186.131 664.407 183.944 665.412 182.097 664.119C180.461 662.975 180.328 660.573 180.148 658.804L180.151 559.837C179.609 558.573 178.083 558.471 177.378 559.639L177.263 598.422C176.961 603.604 173.117 610.838 167.914 612.686C162.003 614.785 161.742 608.658 162.142 604.711C163.491 591.362 166.205 578.09 167.641 564.741C169.333 555.166 175.165 544.655 183.325 538.925C183.787 538.6 185.488 537.423 185.912 537.355C186.577 537.248 188.032 537.931 188.812 538.071C195.107 539.205 202.419 533.468 206.238 529.09C207.027 528.186 208.336 526.065 209.028 525.455Z" fill="black"/>
<path d="M209.041 525.448C208.35 526.057 207.04 528.178 206.252 529.082C202.433 533.46 195.12 539.197 188.825 538.064C188.045 537.923 186.591 537.24 185.925 537.347C185.502 537.415 183.801 538.593 183.338 538.917C175.179 544.647 169.347 555.158 167.654 564.733C166.219 578.082 163.505 591.354 162.155 604.703C161.756 608.65 162.017 614.777 167.928 612.678C173.13 610.83 176.975 603.596 177.276 598.414L177.392 559.631C178.096 558.463 179.623 558.565 180.165 559.829L180.162 658.796C180.342 660.565 180.475 662.967 182.111 664.112C183.958 665.404 186.145 664.399 187.901 663.498C193.276 660.738 196.562 655.055 197.085 649.23L197.198 590.841C198.128 589.495 200.033 590.047 200.136 591.664L200.129 649.7C200.493 653.344 202.591 655.153 206.314 653.67C212.175 651.336 216.06 645.373 216.731 639.349L216.716 540.372C216.532 538.23 219.523 537.649 219.783 539.908L219.777 578.181C220.71 585.748 227.027 582.965 230.494 578.884C233.166 575.738 235.02 571.16 234.766 567.034C232.571 555.495 231.574 543.436 229.233 531.959C227.533 523.625 221.692 519.774 213.233 523.334C212.56 523.618 209.429 525.106 209.041 525.448Z" fill="white"/>
<path d="M207.562 492.04C204.962 491.672 201.967 492.978 199.806 494.285C189.504 500.516 181.293 517.202 183.902 528.884C186.071 538.599 193.994 536.069 199.958 531.289C208.145 524.727 214.691 511.089 213.48 500.705C213.094 497.391 211.518 492.599 207.562 492.04Z" fill="white"/>
<path d="M308.701 387.834C310.183 387.973 311.583 387.687 313.014 387.377C317.563 386.394 322.477 384.682 326.922 383.266C328.267 382.837 331.281 382.727 331.837 381.468C332.529 379.9 331.867 372.197 331.623 370.039C331.258 366.809 329.261 353.555 327.916 351.487C326.785 349.749 324.393 348.657 323.904 351.278C323.203 355.034 324.291 362.665 324.637 366.779C324.724 367.802 325.237 368.798 325.321 369.981C325.437 371.618 325.576 375.979 325.31 377.415C325.071 378.709 320.652 379.685 319.383 379.967C317.568 380.369 310.663 381.685 309.216 381.5C308.273 381.38 306.013 379.895 304.476 379.521C300.035 378.439 293.271 377.275 288.736 376.889C285.287 376.595 281.736 377.143 278.304 376.369C276.77 371.061 275.168 365.71 273.83 360.351C273.032 357.156 272.696 353.396 271.862 350.306C270.922 346.819 268.926 346.413 265.599 346.145C265.968 342.338 267.027 333.5 263.57 330.948C257.74 326.644 261.198 342.021 259.064 344.019C255.561 342.2 258.737 340.143 256.247 336.951C254.182 334.305 251.494 334.882 248.978 333.191C248.807 332.507 251.066 324.073 251.49 322.673C253.515 315.981 256.218 307.768 262.537 304.043C265.536 302.275 272.642 300.221 275.94 301.358C277.089 301.754 282.442 306.306 284.354 307.431C294.445 313.37 307.378 314.949 317.907 309.205C328.487 314.224 336.757 319.069 341.129 330.502C346.362 344.189 350.143 365.08 352.96 379.793C354.483 387.749 355.708 397.426 347.675 402.252C341.301 406.081 329.015 410.02 321.614 410.462C319.643 410.579 314.483 410.766 312.774 410.439C311.725 410.239 309.955 408.115 309.847 407.007L308.701 387.834Z" fill="#FBFBFB"/>
<path d="M328.486 416.101C328.217 440.296 328.839 464.527 328.503 488.723C328.408 495.516 328.697 503.593 328.127 510.253C326.863 525.019 311.404 524.473 303.762 514.843C298.101 507.71 300.094 491.71 299.883 482.686C299.567 469.189 299.16 455.575 298.441 442.085C298.296 439.38 299.329 432.322 296.942 430.832C294.249 429.152 292.393 430.766 292.101 433.596C291.427 440.118 291.974 447.808 291.757 454.451C291.257 469.733 291.409 486.742 289.97 501.773C288.836 513.611 274.688 508.463 269.117 502.853C261.055 494.736 263.763 483.801 263.848 473.531C264.003 454.804 263.695 436.069 263.833 417.341L264.658 416.502C268.056 418.028 271.476 419.727 274.954 421.055C276.838 421.775 281.286 423.624 283.083 423.544C287.683 423.339 286.183 416.156 287.571 413.521C288.377 411.991 290.609 413.36 291.66 413.535C295.578 414.188 300.028 414.671 303.836 415.491C305.518 415.853 307.329 417.061 309.284 417.136C310.538 417.184 311.566 416.542 312.767 416.459C315.925 416.242 318.874 416.913 321.965 416.823C322.955 416.794 328.251 415.872 328.486 416.101Z" fill="#FBFBFB"/>
<path d="M315.06 203.407C304.732 203.44 297.774 207.491 291.207 215.064C284.674 222.598 278.793 236.718 278.322 246.693C278.209 249.088 278.79 254.52 282.34 252.478C284.767 251.081 284.624 244.541 285.126 241.841C288.245 225.058 302.176 204.547 321.726 209.64C332.037 212.326 335.767 225.222 336.273 234.663C336.409 237.216 335.779 238.585 335.583 240.727C335.085 246.164 343.535 245.063 340.806 250.533C339.429 253.292 333.508 255.231 330.592 256.216C310.308 263.061 278.099 268.206 258.647 257.527C250.283 252.934 246.894 245.075 256.589 239.454C257.197 239.452 258.178 247.116 261.015 244.578C262.665 243.101 263.332 234.915 263.935 232.309C266.239 222.35 271.504 210.894 280.553 205.471C286.848 201.698 296.253 198.988 303.592 199.51C307.226 199.767 312.124 201.254 315.06 203.407Z" fill="#FBFBFB"/>
<path d="M324.243 264.18C325.372 269.376 326.303 274.584 326.732 279.886C325.986 307.699 298.714 315.31 280.073 296.164C272.535 288.421 266.811 278.872 267.013 267.714C267.217 267.477 269.918 268.566 270.463 268.677C288.309 272.319 306.932 268.676 324.243 264.18Z" fill="#FBFBFB"/>
<path d="M271.229 376.851C262.731 378.921 264.963 387.812 266.412 394.269C267.334 398.38 269.27 404.724 272.901 407.212C274.149 408.067 280.694 410.649 280.994 411.143C279.604 415.05 282.102 417.201 277.021 415.104C265.746 410.452 254.59 405.385 243.429 400.472C242.383 398.317 242.836 395.714 241.623 393.66C243.737 392.297 245.255 389.926 246.072 387.565C250.559 374.597 244.42 357.471 229.525 355.473C228.446 350 226.358 344.669 225.401 339.175C225.313 338.671 225.16 338.112 225.496 337.664L230.62 339.262C231.632 341.178 231.22 342.436 233.206 343.742C234.737 344.748 249.436 350.873 250.968 351.063C254.525 351.506 254.055 349.862 255.606 349.393C257.365 348.861 263.262 351.938 265.236 352.695C267.554 360.659 269.426 368.758 271.229 376.851Z" fill="#FBFBFB"/>
<path d="M304.456 409.383C297.255 407.83 288.944 407.47 282.123 404.691C277.575 402.838 275.593 401.446 273.715 396.847C272.065 392.805 269.681 383.785 276.048 382.918C284.777 382.602 293.452 383.798 301.972 385.549C303.731 386.752 302.886 395.174 303.048 397.545C303.158 399.145 304.892 408.908 304.456 409.383Z" fill="#FBFBFB"/>
<path d="M226.997 362.128C234.247 360.293 240.806 369.132 241.235 375.629C241.808 384.321 237.348 391.782 228.524 385.16C222.745 380.823 220.925 370.725 224.461 364.539C224.957 363.673 226.007 362.379 226.997 362.128Z" fill="#FBFBFB"/>
<path d="M251.108 339.791L248.111 344.377L238.391 340.318C236.927 339.23 236.791 335.402 238.854 334.898L251.108 339.791Z" fill="#FAFAFA"/>
<path d="M271.888 558.308L241.792 555.522C239.282 554.858 237.182 553.153 234.999 551.819L265.331 515.795C265.552 515.675 265.728 515.841 265.901 515.957C267.696 517.159 269.444 519.262 271.236 520.537C271.482 520.713 271.758 521.008 272.074 520.961L294.425 508L300.008 511.159L299.96 532.209L271.888 548.757V558.308Z" fill="white"/>
<path d="M271.888 558.308V548.757L299.96 532.209L300.008 511.159L294.425 508L272.074 520.961C271.758 521.008 271.482 520.713 271.236 520.537C269.444 519.262 267.696 517.159 265.901 515.957C265.728 515.841 265.552 515.675 265.331 515.795L234.999 551.819C237.182 553.153 239.282 554.858 241.792 555.522L271.888 558.308ZM269.993 530.457L298.135 514.126V531.113L270.138 547.591V556.121L244.473 553.859L269.993 522.146V530.457Z" fill="black"/>
<path d="M288.12 559.829L288.426 550.289L317.372 552.423L323.83 555.298L324 555.533L292.955 594.052L292.415 594.006L284.754 589.327L264.53 600.614C263.443 599.579 261.525 598.782 260.514 597.761C260.361 597.606 260.166 597.514 260.151 597.25L260.219 576.328L288.12 559.829Z" fill="white"/>
<path d="M288.12 559.829L260.219 576.328L260.151 597.25C260.166 597.514 260.361 597.606 260.514 597.761C261.525 598.782 263.443 599.579 264.53 600.614L284.754 589.327L292.415 594.006L292.955 594.052L324 555.533L323.83 555.298L317.372 552.423L288.426 550.289L288.12 559.829ZM294.414 554.894L320.371 557.01L294.56 589.015V581.724L266.417 597.473V580.266L294.414 564.008V554.894Z" fill="black"/>
<path d="M294.41 554.891V564.004L266.414 580.263V597.469L294.556 581.721V589.012L320.367 557.006L294.41 554.891Z" fill="white"/>
</svg>
