<svg width="485" height="618" viewBox="0 0 485 618" fill="none" xmlns="http://www.w3.org/2000/svg">
<path d="M364.52 211C382.151 214.607 393.299 233.165 396.802 249.638C398.824 259.146 399.025 268.912 393.514 277.314C393.15 277.869 390.972 280.311 391.161 280.596C405.885 289.786 417.077 306.707 419.686 323.954C421.593 346.136 425.318 368.226 427.159 390.401C427.537 394.963 426.139 401.982 422.906 403.426C419.673 404.869 408.394 405.798 401.456 400.619L401.95 436.97C402.108 448.481 402.866 460.273 402.68 471.76C402.604 476.446 400.657 482.034 395.334 482.654C391.795 483.067 382.805 482.879 379.577 481.663C372.593 479.03 366.903 473.206 364.002 466.399C359.402 465.983 354.254 467.172 349.884 465.516C339.111 461.432 332.251 449.878 331.642 438.638L331.638 354.041C331.235 354.257 331.101 354.749 330.685 355.125C322.622 362.425 311.751 351.011 308.235 343.965C306.65 340.788 305.713 337.344 305 333.88V328.6C308.428 311.306 309.791 293.242 313.236 275.996C314.768 268.323 318.309 261.284 326.255 258.775L340.28 255.637C335.537 244.513 332.374 230.948 337.839 219.479C339.733 215.504 343.638 211.582 348.2 211H364.52ZM348.863 215.142C342.967 215.998 340.619 223.332 340.043 228.403C338.237 244.293 347.994 265.162 360.196 275.204C369.085 282.519 380.891 286.39 384.125 271.525C388.013 253.648 375.775 228.113 360.421 218.579C357.201 216.579 352.737 214.58 348.863 215.142ZM346.689 266.272C346.111 265.75 341.445 263.472 340.442 263.038C327.834 257.59 319.129 263.484 316.596 276.236C313.106 293.8 311.621 312.253 308.35 329.91C307.971 336.225 310.734 343.23 314.716 348.044C319.883 354.289 329.298 358.548 330.689 346.969L330.68 288.4C331.067 284.944 335.525 285.833 335.25 289.11L335.229 440.571C336.228 449.789 342.019 458.914 350.754 462.486C356.303 464.755 359.43 461.988 359.971 456.411L359.96 367.6C360.115 365.127 362.953 364.282 364.339 366.341L364.508 455.692C365.287 464.606 370.185 473.303 378.195 477.525C380.813 478.905 384.072 480.442 386.825 478.465C389.263 476.713 389.462 473.037 389.73 470.33L389.725 318.885C390.533 316.95 392.808 316.794 393.858 318.582L394.03 377.93C394.479 385.86 400.209 396.93 407.963 399.757C416.772 402.97 417.161 393.594 416.566 387.554C414.554 367.126 410.51 346.816 408.37 326.39C405.848 311.738 397.156 295.653 384.996 286.884C384.307 286.388 381.772 284.586 381.14 284.481C380.148 284.318 377.98 285.363 376.818 285.578C367.436 287.312 356.538 278.533 350.846 271.834C349.671 270.45 347.719 267.205 346.689 266.272Z" fill="black"/>
<path d="M346.686 266.272C347.716 267.204 349.668 270.449 350.843 271.833C356.535 278.532 367.433 287.311 376.815 285.577C377.977 285.362 380.145 284.317 381.137 284.481C381.769 284.585 384.304 286.387 384.993 286.884C397.153 295.652 405.845 311.737 408.367 326.389C410.507 346.815 414.551 367.126 416.563 387.553C417.158 393.593 416.769 402.969 407.96 399.756C400.206 396.929 394.476 385.859 394.027 377.929L393.855 318.582C392.805 316.793 390.53 316.95 389.723 318.885L389.727 470.329C389.459 473.036 389.26 476.712 386.822 478.464C384.069 480.441 380.81 478.904 378.192 477.524C370.182 473.302 365.284 464.606 364.505 455.691L364.336 366.34C362.95 364.281 360.112 365.126 359.957 367.599L359.968 456.41C359.427 461.987 356.3 464.754 350.751 462.485C342.016 458.913 336.225 449.788 335.226 440.571L335.247 289.109C335.522 285.832 331.064 284.943 330.677 288.399L330.686 346.968C329.295 358.547 319.88 354.288 314.714 348.043C310.731 343.229 307.968 336.224 308.347 329.909C311.618 312.252 313.104 293.799 316.593 276.235C319.126 263.483 327.831 257.59 340.439 263.038C341.442 263.471 346.108 265.749 346.686 266.272Z" fill="white"/>
<path d="M348.864 215.143C352.739 214.581 357.203 216.58 360.423 218.58C375.777 228.114 388.015 253.649 384.126 271.526C380.893 286.391 369.086 282.52 360.197 275.205C347.996 265.163 338.239 244.294 340.044 228.403C340.62 223.333 342.969 215.999 348.864 215.143Z" fill="white"/>
<path d="M258.629 149.668C247.104 126.4 240.706 94.0278 215.515 81.387C209.787 78.5125 200.374 75.5812 193.983 76.0496C188.416 76.4575 178.302 80.2395 180.205 87.3736C182.211 94.8958 195.987 92.8093 196.645 103.117C197.023 109.035 194.445 118.461 193.087 124.435C190.993 133.654 188.329 142.768 185.947 151.914L185.382 152.571C166.657 159.103 158.366 176.016 178.43 188.114C182.185 190.378 186.494 191.614 190.316 193.741C190.244 205.293 191.673 217.203 198.66 226.732C187.357 227.711 179.187 236.764 177.475 247.674L176.673 247.912C174.104 243.463 169.367 239.717 164.432 238.278C163.403 231.429 162.911 224.489 161.944 217.631C159.336 199.143 156.416 180.607 153.899 162.14C153.197 156.994 152.482 151.83 151.837 146.68C151.731 145.827 152.112 146.023 152.755 146.174C156.394 147.03 161.711 150.503 164.995 148.476C167.188 147.123 167.004 145.026 166.246 142.868L157.917 129.979C159.713 125.794 163.078 122.165 165.064 118C166.943 114.057 165.348 112.527 161.39 111.451L146.819 115.082C145.587 114.752 139.944 106.123 138.171 104.556C135.829 102.489 132.048 103.055 131.477 106.409C130.639 111.336 131.419 116.708 130.85 121.666C126.386 124.451 109.762 125.901 116.65 133.814L130.86 139.968C131.084 143.029 131.613 146.102 131.857 149.154C132.111 152.327 130.549 157.841 134.907 158.323C139.159 158.793 140.319 154.22 142.866 151.601C143.254 151.203 143.399 150.83 144.078 150.985C146.13 171.691 150.224 192.182 153.393 212.74C154.466 219.699 156.576 229.57 156.732 236.293C156.747 236.97 156.847 237.994 156.508 238.552C156.354 238.806 152.384 240.812 151.407 241.597C143.463 247.987 145.606 259.057 147.06 267.947C149.379 282.127 155.939 310.821 169.653 317.851C176.391 321.305 184.767 320.502 190.51 315.523C189.863 328.874 189.933 342.227 189.634 355.581C189.343 368.571 188.609 381.725 188.461 394.722C188.394 400.568 188.149 406.347 189.492 412.052C192.407 424.433 204.182 438.203 218.078 432.075C219.719 431.351 221.093 430.318 222.688 429.563C225.699 442.855 239.964 457.668 254.412 450.486C277.181 439.167 268.742 419.222 270.327 398.42L270.343 386.595L269.942 368.878C278.268 372.009 284.854 370.631 291.533 365.012C297.961 359.604 300.396 353.999 299.625 345.508C298.759 335.975 295.384 323.773 293.683 313.979C290.602 296.24 288.368 266.179 278.418 251.859C273.317 244.517 266.183 240.617 258.125 237.113C268.293 224.48 268.305 207.132 261.387 192.937C270.197 190.278 283.481 183.263 283.808 172.79C284.222 159.508 269.185 153.052 258.629 149.668Z" fill="white"/>
<path d="M258.629 149.668C269.185 153.052 284.222 159.508 283.808 172.79C283.481 183.263 270.197 190.278 261.387 192.937C268.305 207.132 268.293 224.48 258.125 237.113C266.183 240.617 273.317 244.517 278.418 251.859C288.368 266.179 290.602 296.24 293.683 313.979C295.384 323.773 298.759 335.975 299.625 345.508C300.396 353.999 297.961 359.604 291.533 365.012C284.854 370.631 278.268 372.009 269.942 368.878L270.343 386.595L270.327 398.42C268.742 419.222 277.181 439.167 254.412 450.486C239.964 457.668 225.699 442.855 222.688 429.563C221.093 430.318 219.719 431.351 218.078 432.075C204.182 438.203 192.407 424.433 189.492 412.052C188.149 406.347 188.394 400.568 188.461 394.722C188.609 381.725 189.343 368.571 189.634 355.581C189.933 342.227 189.863 328.874 190.51 315.523C184.767 320.502 176.391 321.305 169.653 317.851C155.939 310.821 149.379 282.127 147.06 267.947C145.606 259.057 143.463 247.987 151.407 241.597C152.384 240.812 156.354 238.806 156.508 238.552C156.847 237.994 156.747 236.97 156.732 236.293C156.576 229.57 154.466 219.699 153.393 212.74C150.224 192.182 146.13 171.691 144.078 150.985C143.399 150.83 143.254 151.203 142.866 151.601C140.319 154.22 139.159 158.793 134.907 158.323C130.549 157.84 132.111 152.327 131.857 149.154C131.613 146.102 131.084 143.029 130.86 139.968L116.65 133.814C109.762 125.901 126.386 124.451 130.85 121.666C131.419 116.708 130.639 111.336 131.477 106.409C132.048 103.055 135.829 102.489 138.171 104.556C139.944 106.123 145.587 114.752 146.819 115.082L161.39 111.451C165.348 112.527 166.943 114.057 165.064 118C163.078 122.165 159.713 125.794 157.917 129.979L166.246 142.868C167.004 145.026 167.188 147.123 164.995 148.476C161.711 150.503 156.394 147.03 152.755 146.174C152.112 146.023 151.731 145.827 151.837 146.68C152.482 151.83 153.197 156.994 153.899 162.14C156.416 180.607 159.336 199.143 161.944 217.631C162.911 224.489 163.403 231.429 164.432 238.278C169.367 239.717 174.104 243.463 176.673 247.912L177.475 247.674C179.187 236.764 187.357 227.711 198.66 226.732C191.673 217.203 190.244 205.293 190.316 193.741C186.494 191.614 182.185 190.378 178.43 188.114C158.366 176.016 166.657 159.103 185.382 152.571L185.947 151.914C188.329 142.768 190.993 133.654 193.087 124.435C194.445 118.461 197.023 109.035 196.645 103.117C195.987 92.8093 182.211 94.8958 180.205 87.3736C178.302 80.2394 188.416 76.4575 193.983 76.0496C200.374 75.5812 209.787 78.5125 215.515 81.387C240.706 94.0278 247.104 126.4 258.629 149.668ZM220.92 94.1074C212.997 87.1083 199.757 82.0775 189.294 85.0057C188.448 85.7876 194.012 88.1595 194.555 88.4979C198.696 91.0814 203.092 94.5757 203.565 99.8527C204.209 107.053 202.852 114.335 201.385 121.328C198.212 136.456 193.593 151.297 189.688 166.234C189.778 166.862 191.216 168.539 191.725 169.117C201.998 180.779 232.555 179.761 246.015 174.914C250.17 173.418 255.734 170.766 257.219 166.323C249.111 147.663 241.895 128.584 233.087 110.246C230.071 104.68 225.674 98.3071 220.92 94.1074ZM138.378 117.178V123.899C138.378 124.934 136.793 127.264 135.948 127.985C134.263 129.425 132.204 129.662 130.403 130.582C129.974 130.8 129.637 130.37 129.824 131.429C137.275 132.405 139.158 137.063 138.787 144.057C139.726 144.291 139.457 143.881 139.718 143.544C144.239 137.717 144.162 136.412 152.326 138.461C152.883 138.6 154.527 139.915 154.27 138.556C154.064 137.47 151.608 134.788 150.933 133.337C148.287 127.646 151.714 126.559 153.854 121.661C150.824 121.98 146.926 124.233 143.999 123.163C141.575 122.277 140.639 119.669 139.286 117.711C139.038 117.352 139.361 116.96 138.378 117.178ZM273.056 178.534C282.183 169.578 270.387 162.354 262.811 158.729C261.946 159.352 262.414 159.294 262.538 159.799C262.851 161.077 264.021 163.021 264.107 164.273C264.582 171.193 260.487 175.674 254.877 178.889C238.166 188.465 194.293 190.221 183.662 170.663C181.744 167.135 182.49 165.282 183.178 161.572C174.049 166.346 170.216 172.975 179.79 180.237C198.554 194.469 255.955 195.314 273.056 178.534ZM197.441 195.374C196.761 206.02 199.472 216.573 205.495 225.401C215.536 240.12 236.029 250.764 249.993 234.282C259.008 223.64 256.988 207.434 250.798 195.967C246.726 196.133 242.495 197.407 238.369 197.815C226.739 198.963 213.291 198.582 201.827 196.486C200.33 196.213 198.965 195.483 197.441 195.374ZM203.871 234.156C197.461 233.387 191.446 235.555 187.99 241.115C182.206 250.42 182.219 268.363 178.992 278.955C178.011 282.178 174.833 283.818 172.377 280.915C170.666 278.893 171.883 274.511 172.303 271.859C173.079 266.97 174.454 262.146 175.22 257.261C170.89 253.331 165.818 243.629 158.857 245.79C154.845 247.035 152.594 250.938 152.622 255.024C152.677 263.251 157.031 279.036 159.55 287.225C163.761 300.914 171.63 321.973 189.022 307.688L191.837 272.657C192.456 269.835 196.333 269.661 197.612 271.974C198.825 274.166 197.854 275.828 197.829 277.833C197.341 316.404 195.725 354.902 195.419 393.534C195.367 400.095 194.192 405.778 196.017 412.451C198.088 420.021 206.533 430.792 215.319 426.461C218.535 424.875 218.842 418.864 219.043 415.527C219.546 407.181 219.526 398.61 219.858 390.275C220.347 377.94 219.863 364.102 221.067 351.979C221.675 345.865 227.013 346.75 227.589 351.558C228.162 356.334 227.922 364.321 228.006 369.468C228.305 387.616 226.764 407.094 228.401 425.278C229.169 433.815 238.009 446.584 247.646 444.939C254.155 443.829 255.005 436.341 255.294 431.003C257.224 395.375 253.797 358.031 255.296 322.224C254.396 312.527 254.88 302.643 255.297 292.939C255.393 290.721 254.116 283.858 258.231 284.24C262.908 284.675 261.231 293.967 261.37 297.416C262.024 313.683 262.396 331.361 264.242 347.491C264.751 351.942 265.225 355.121 267.974 358.828C272.652 365.136 282.564 365.705 286.459 358.31C289.247 353.017 287.063 344.116 286.114 338.245C283.121 319.713 279.845 300.804 275.931 282.449C272.79 267.715 270.445 255.847 255.264 249.354C253.283 248.506 249.252 246.875 247.223 246.794C245.908 246.742 242.433 248.538 240.615 248.935C227.028 251.897 212.291 244.624 203.871 234.156Z" fill="black"/>
<path d="M203.875 234.158C212.295 244.626 227.031 251.899 240.619 248.936C242.436 248.54 245.912 246.744 247.226 246.796C249.256 246.877 253.286 248.508 255.267 249.356C270.449 255.849 272.793 267.717 275.935 282.45C279.849 300.806 283.124 319.715 286.118 338.247C287.066 344.118 289.25 353.019 286.463 358.312C282.568 365.707 272.656 365.138 267.977 358.83C265.228 355.123 264.754 351.943 264.245 347.493C262.399 331.363 262.028 313.685 261.373 297.418C261.235 293.969 262.911 284.677 258.234 284.242C254.12 283.86 255.396 290.723 255.301 292.941C254.883 302.645 254.399 312.529 255.3 322.226C253.801 358.033 257.228 395.377 255.297 431.005C255.008 436.343 254.158 443.831 247.65 444.941C238.012 446.586 229.173 433.817 228.404 425.28C226.767 407.096 228.308 387.617 228.01 369.47C227.925 364.323 228.165 356.335 227.593 351.56C227.016 346.752 221.678 345.866 221.071 351.981C219.867 364.104 220.351 377.942 219.861 390.277C219.53 398.612 219.55 407.183 219.047 415.529C218.846 418.866 218.538 424.877 215.323 426.462C206.537 430.794 198.092 420.023 196.021 412.453C194.195 405.78 195.37 400.097 195.422 393.536C195.728 354.904 197.345 316.405 197.833 277.835C197.858 275.83 198.828 274.168 197.616 271.976C196.336 269.663 192.459 269.837 191.841 272.658L189.026 307.69C171.633 321.975 163.765 300.916 159.554 287.227C157.034 279.037 152.681 263.253 152.625 255.026C152.598 250.94 154.849 247.037 158.86 245.792C165.822 243.631 170.893 253.332 175.224 257.263C174.458 262.148 173.083 266.972 172.307 271.861C171.886 274.513 170.67 278.894 172.381 280.917C174.836 283.82 178.014 282.18 178.996 278.957C182.222 268.365 182.21 250.421 187.994 241.117C191.45 235.557 197.464 233.389 203.875 234.158Z" fill="white"/>
<path d="M220.916 94.1077C225.671 98.3075 230.067 104.681 233.084 110.246C241.892 128.585 249.107 147.663 257.216 166.324C255.73 170.766 250.166 173.418 246.011 174.915C232.551 179.762 201.994 180.779 191.722 169.118C191.213 168.54 189.774 166.862 189.684 166.235C193.589 151.297 198.209 136.456 201.381 121.329C202.848 114.336 204.206 107.054 203.561 99.8531C203.088 94.576 198.693 91.0818 194.551 88.4982C194.009 88.1599 188.444 85.7879 189.291 85.006C199.754 82.0779 212.993 87.1087 220.916 94.1077ZM216.579 126.546V135.506C219.322 134.951 221.192 131.903 223.382 130.272C226.264 130.562 228.685 132.678 231.647 132.246L228.796 123.904L233.69 116.979L225.01 117.518C224.078 117.23 221.595 113.063 220.644 112.096C220.256 111.701 220.119 111.322 219.435 111.478L217.406 119.024L209.248 121.665C209.088 122.391 209.463 122.468 209.921 122.817C210.744 123.444 216.359 126.194 216.579 126.546ZM207.618 162.183V170.532L214.776 165.646L222.686 168.494L219.982 160.55L225.131 153.624C224.816 151.835 222.925 152.998 221.687 153.038C220.581 153.073 216.856 153.225 216.173 152.814L211.894 146.511L208.666 154.271L200.695 156.282C200.013 157.227 205.249 160.011 205.963 160.58C206.568 161.062 207.068 161.644 207.618 162.183Z" fill="white"/>
<path d="M197.438 195.375C198.962 195.485 200.327 196.214 201.824 196.487C213.288 198.583 226.737 198.964 238.366 197.816C242.492 197.409 246.723 196.134 250.795 195.968C256.985 207.436 259.005 223.641 249.99 234.283C236.026 250.766 215.534 240.122 205.492 225.402C199.47 216.575 196.758 206.021 197.438 195.375Z" fill="white"/>
<path d="M273.058 178.532C255.957 195.312 198.557 194.467 179.793 180.234C170.219 172.973 174.052 166.343 183.181 161.569C182.493 165.279 181.746 167.132 183.665 170.661C194.295 190.219 238.168 188.462 254.88 178.886C260.49 175.672 264.585 171.19 264.109 164.27C264.023 163.019 262.854 161.074 262.541 159.796C262.417 159.291 261.948 159.349 262.814 158.727C270.39 162.351 282.186 169.576 273.058 178.532Z" fill="white"/>
<path d="M138.38 117.18C139.364 116.961 139.041 117.354 139.289 117.713C140.641 119.67 141.577 122.279 144.002 123.165C146.929 124.235 150.827 121.982 153.856 121.662C151.716 126.56 148.29 127.648 150.936 133.339C151.61 134.79 154.067 137.471 154.272 138.558C154.53 139.917 152.885 138.602 152.329 138.463C144.165 136.414 144.241 137.719 139.721 143.546C139.459 143.883 139.728 144.293 138.79 144.058C139.161 137.064 137.277 132.407 129.826 131.431C129.639 130.372 129.977 130.802 130.405 130.583C132.206 129.664 134.265 129.427 135.951 127.987C136.796 127.265 138.38 124.936 138.38 123.9V117.18Z" fill="white"/>
<path d="M216.579 126.549C216.359 126.197 210.744 123.447 209.922 122.821C209.463 122.471 209.089 122.394 209.248 121.668L217.406 119.027L219.435 111.481C220.119 111.325 220.256 111.705 220.644 112.099C221.595 113.066 224.078 117.233 225.01 117.521L233.69 116.982L228.796 123.907L231.648 132.249C228.685 132.681 226.264 130.565 223.382 130.275C221.192 131.907 219.322 134.955 216.579 135.51V126.549Z" fill="black"/>
<path d="M207.624 162.18C207.074 161.641 206.575 161.059 205.969 160.576C205.256 160.007 200.019 157.223 200.702 156.279L208.672 154.268L211.901 146.508L216.18 152.81C216.863 153.222 220.588 153.07 221.694 153.034C222.932 152.995 224.822 151.832 225.137 153.621L219.989 160.547L222.693 168.49L214.783 165.643L207.624 170.529V162.18Z" fill="black"/>
<path d="M341.992 186.369C342.064 186.496 343.945 187.613 344.39 188.03C350.28 193.526 349.743 199.248 343.684 204.29C341.138 206.409 338.065 207.582 335.247 209.279C335.269 212.959 336.439 216.508 336.628 220.17C337.155 230.354 334.307 240.479 327.434 248.095C332.26 251.675 338.025 254.08 342.624 257.984C350.492 264.661 353.297 275.303 356.027 284.857C358.234 298.275 363.842 312.65 365.855 325.905C367.04 333.709 365.138 343.096 359.921 349.13C355.192 354.6 348.112 356.274 341.9 359.448L341.927 454.438C341.236 464.038 335.968 468.482 328.017 472.679C316.584 478.714 300.767 472.662 295.967 460.801C295.632 459.973 294.864 456.227 294.392 456.016C288.229 466.675 271.908 461.664 264.753 454.565C257.551 447.42 257.004 439.262 257.106 429.679C257.211 419.869 257.715 409.841 257.842 400.03C258.009 387.07 258.042 374.169 258.112 361.22C257.907 360.54 257.098 360.266 256.547 359.96C251.404 357.107 244.406 355.517 239.116 352.659C236.981 351.195 236.395 343.748 235.397 341.186C229.705 339.836 224.976 339.1 221.091 334.294C215.244 327.06 212.7 307.561 223.091 302.879C222.425 300.063 221.819 297.19 221.064 294.398C220.34 291.721 217.666 285.058 217.875 282.716C217.897 282.472 219.103 278.352 219.231 278.04C220.027 276.093 222.186 276.389 223.929 276.694C225.562 276.979 229.763 279.045 230.817 278.992C232.235 278.92 232.494 275.895 233.808 275.305C236.64 274.034 240.159 276.883 242.631 277.949C244.895 270.069 246.946 260.829 251.054 253.688C255.215 246.453 261.799 243.254 269.84 241.91C268.543 237.599 265.466 233.983 263.823 229.734C261.816 224.541 260.555 218.491 260.473 212.919C257.659 211.264 254.523 210.044 251.853 208.14C238.49 198.61 242.788 184.076 257.305 179.386C260.042 166.153 265.825 153.974 277.643 146.728C305.624 129.57 339.609 146.932 341.91 179.558C342 180.84 341.655 185.786 341.992 186.369Z" fill="black"/>
<path d="M308.701 334.834C310.183 334.973 311.583 334.687 313.014 334.377C317.563 333.394 322.477 331.682 326.922 330.266C328.267 329.837 331.281 329.727 331.837 328.468C332.529 326.9 331.867 319.197 331.623 317.039C331.258 313.809 329.261 300.555 327.916 298.487C326.785 296.749 324.393 295.657 323.904 298.278C323.203 302.034 324.291 309.665 324.637 313.779C324.724 314.802 325.237 315.798 325.321 316.981C325.437 318.618 325.576 322.979 325.31 324.415C325.071 325.709 320.652 326.685 319.383 326.967C317.568 327.369 310.663 328.685 309.216 328.5C308.273 328.38 306.013 326.895 304.476 326.521C300.035 325.439 293.271 324.275 288.736 323.889C285.287 323.595 281.736 324.143 278.304 323.369C276.77 318.061 275.168 312.71 273.83 307.351C273.032 304.156 272.696 300.396 271.862 297.306C270.922 293.819 268.926 293.413 265.599 293.145C265.968 289.338 267.027 280.5 263.57 277.948C257.74 273.644 261.198 289.021 259.064 291.019C255.561 289.2 258.737 287.143 256.247 283.951C254.182 281.305 251.494 281.882 248.978 280.191C248.807 279.507 251.066 271.073 251.49 269.673C253.515 262.981 256.218 254.768 262.537 251.043C265.536 249.275 272.642 247.221 275.94 248.358C277.089 248.754 282.442 253.306 284.354 254.431C294.445 260.37 307.378 261.949 317.907 256.205C328.487 261.224 336.757 266.069 341.129 277.502C346.362 291.189 350.143 312.08 352.96 326.793C354.483 334.749 355.708 344.426 347.675 349.252C341.301 353.081 329.015 357.02 321.614 357.462C319.643 357.579 314.483 357.766 312.774 357.439C311.725 357.239 309.955 355.115 309.847 354.007L308.701 334.834Z" fill="#FBFBFB"/>
<path d="M328.486 363.101C328.217 387.296 328.839 411.527 328.503 435.723C328.408 442.516 328.697 450.593 328.127 457.253C326.863 472.019 311.404 471.473 303.762 461.843C298.101 454.71 300.094 438.71 299.883 429.686C299.567 416.189 299.16 402.575 298.441 389.085C298.296 386.38 299.329 379.322 296.942 377.832C294.249 376.152 292.393 377.766 292.101 380.596C291.427 387.118 291.974 394.808 291.757 401.451C291.257 416.733 291.409 433.742 289.97 448.773C288.836 460.611 274.688 455.463 269.117 449.853C261.055 441.736 263.763 430.801 263.848 420.531C264.003 401.804 263.695 383.069 263.833 364.341L264.658 363.502C268.056 365.028 271.476 366.727 274.954 368.055C276.838 368.775 281.286 370.624 283.083 370.544C287.683 370.339 286.183 363.156 287.571 360.521C288.377 358.991 290.609 360.36 291.66 360.535C295.578 361.188 300.028 361.671 303.836 362.491C305.518 362.853 307.329 364.061 309.284 364.136C310.538 364.184 311.566 363.542 312.767 363.459C315.925 363.242 318.874 363.913 321.965 363.823C322.955 363.794 328.251 362.872 328.486 363.101Z" fill="#FBFBFB"/>
<path d="M315.06 150.407C304.732 150.44 297.774 154.491 291.207 162.064C284.674 169.598 278.793 183.718 278.322 193.693C278.209 196.088 278.79 201.52 282.34 199.478C284.767 198.081 284.624 191.541 285.126 188.841C288.245 172.058 302.176 151.547 321.726 156.64C332.037 159.326 335.767 172.222 336.273 181.663C336.409 184.216 335.779 185.585 335.583 187.727C335.085 193.164 343.535 192.063 340.806 197.533C339.429 200.292 333.508 202.231 330.592 203.216C310.308 210.061 278.099 215.206 258.647 204.527C250.283 199.934 246.894 192.075 256.589 186.454C257.197 186.452 258.178 194.116 261.015 191.578C262.665 190.101 263.332 181.915 263.935 179.309C266.239 169.35 271.504 157.894 280.553 152.471C286.848 148.698 296.253 145.988 303.592 146.51C307.226 146.767 312.124 148.254 315.06 150.407Z" fill="#FBFBFB"/>
<path d="M324.243 211.18C325.372 216.376 326.303 221.584 326.732 226.886C325.986 254.699 298.714 262.31 280.073 243.164C272.535 235.421 266.811 225.872 267.013 214.714C267.217 214.477 269.918 215.566 270.463 215.677C288.309 219.319 306.932 215.676 324.243 211.18Z" fill="#FBFBFB"/>
<path d="M271.229 323.851C262.731 325.921 264.963 334.812 266.412 341.269C267.334 345.38 269.27 351.724 272.901 354.212C274.149 355.067 280.694 357.649 280.994 358.143C279.604 362.05 282.102 364.201 277.021 362.104C265.746 357.452 254.59 352.385 243.429 347.472C242.383 345.317 242.836 342.714 241.623 340.66C243.737 339.297 245.255 336.926 246.072 334.565C250.559 321.597 244.42 304.471 229.525 302.473C228.446 297 226.358 291.669 225.401 286.175C225.313 285.671 225.16 285.112 225.496 284.664L230.62 286.262C231.632 288.178 231.22 289.436 233.206 290.742C234.737 291.748 249.436 297.873 250.968 298.063C254.525 298.506 254.055 296.862 255.606 296.393C257.365 295.861 263.262 298.938 265.236 299.695C267.554 307.659 269.426 315.758 271.229 323.851Z" fill="#FBFBFB"/>
<path d="M304.456 356.383C297.255 354.83 288.944 354.47 282.123 351.691C277.575 349.838 275.593 348.446 273.715 343.847C272.065 339.805 269.681 330.785 276.048 329.918C284.777 329.602 293.452 330.798 301.972 332.549C303.731 333.752 302.886 342.174 303.048 344.545C303.158 346.145 304.892 355.908 304.456 356.383Z" fill="#FBFBFB"/>
<path d="M226.997 309.128C234.247 307.293 240.806 316.132 241.235 322.629C241.808 331.321 237.348 338.782 228.524 332.16C222.745 327.823 220.925 317.725 224.461 311.539C224.957 310.673 226.007 309.379 226.997 309.128Z" fill="#FBFBFB"/>
<path d="M251.108 286.791L248.111 291.377L238.391 287.318C236.927 286.23 236.791 282.402 238.854 281.898L251.108 286.791Z" fill="#FAFAFA"/>
<path d="M75.4531 413.262L162.508 429.517V401.386L75.4531 385.336V413.262ZM126.293 402.568L153.876 407.671C154.841 407.85 155.62 408.78 155.62 409.742C155.62 410.709 154.841 411.345 153.876 411.167L126.293 406.055C125.332 405.877 124.557 404.955 124.557 403.99C124.557 403.031 125.332 402.39 126.293 402.568ZM126.293 411.74L153.876 416.865C154.841 417.044 155.62 417.975 155.62 418.937C155.62 419.904 154.841 420.54 153.876 420.36L126.293 415.227C125.332 415.049 124.557 414.126 124.557 413.161C124.557 412.202 125.332 411.561 126.293 411.74ZM97.4489 400.165C102.72 400.248 103.516 408.668 97.5872 406.992C93.8628 405.941 93.8108 400.111 97.4489 400.165ZM85.7599 397.999C90.94 397.979 91.8892 406.403 86.0875 404.855C82.1002 403.79 82.1979 398.011 85.7599 397.999Z" fill="white"/>
<path d="M75.4531 444.662L162.508 461.148V433.023L75.4531 416.742V444.662ZM126.293 433.754L153.876 438.93C154.841 439.111 155.62 440.044 155.62 441.005C155.62 441.972 154.841 442.607 153.876 442.425L126.293 437.241C125.332 437.061 124.557 436.136 124.557 435.172C124.557 434.213 125.332 433.574 126.293 433.754ZM126.293 442.926L153.876 448.123C154.841 448.305 155.62 449.238 155.62 450.2C155.62 451.167 154.841 451.801 153.876 451.619L126.293 446.414C125.332 446.232 124.557 445.307 124.557 444.343C124.557 443.384 125.332 442.745 126.293 442.926ZM95.4281 431.777C98.2665 428.448 104.155 434.439 100.83 437.38C97.9556 439.93 92.6888 434.983 95.4281 431.777ZM84.3003 429.106C87.1507 427.319 91.383 431.185 89.715 434.447C88.7547 436.334 85.8345 436.248 84.1797 434.435C82.6287 432.73 82.6517 430.146 84.3003 429.106Z" fill="white"/>
<path d="M75.4531 476.051L162.508 492.767V464.636L75.4531 448.125V476.051ZM126.293 465.916L153.876 471.167C154.841 471.351 155.62 472.286 155.62 473.247C155.62 474.214 154.841 474.847 153.876 474.663L126.293 469.404C125.332 469.221 124.557 468.294 124.557 467.33C124.557 466.371 125.332 465.734 126.293 465.916ZM126.293 475.089L153.876 480.36C154.841 480.545 155.62 481.48 155.62 482.442C155.62 483.409 154.841 484.041 153.876 483.856L126.293 478.576C125.332 478.392 124.557 477.465 124.557 476.501C124.557 475.542 125.332 474.905 126.293 475.089ZM97.9672 463.302C100.588 463.692 102.426 466.56 101.475 468.838C100.582 470.97 97.3337 470.963 95.6814 468.891C93.6842 466.399 95.0081 462.866 97.9672 463.302ZM85.9553 461.077C88.933 461.239 91.1873 464.734 89.5482 467.093C88.2488 468.954 85.2024 468.481 83.743 466.204C82.2152 463.821 83.4041 460.932 85.9553 461.077Z" fill="white"/>
<path d="M75.4531 497.471L162.508 514.345V496.265L75.4531 479.523V497.471Z" fill="white"/>
<path d="M65.2726 370.305C63.9441 370.379 62.8163 371.121 62.4156 372.383L62.3125 504.15C62.45 506.402 64.4538 508.07 66.5328 508.476L172.43 529.115C173.785 529.263 174.865 528.984 175.579 528.296L176.542 444.631V394.945C176.55 394.204 176.395 393.48 176.106 392.819C175.691 392.062 175.154 391.384 174.521 390.801C174.024 390.426 173.451 390.133 172.809 389.958L65.2726 370.305ZM166.007 516.777C166.007 517.745 165.227 518.375 164.26 518.187L73.7376 500.615C72.7856 500.43 72.0173 499.506 72.0173 498.545V382.968C72.0173 382.008 72.7856 381.374 73.7376 381.549L164.26 398.212C165.227 398.39 166.007 399.315 166.007 400.283V516.777Z" fill="white"/>
<path d="M176.454 532.218C175.891 531.911 175.543 531.317 175.551 530.676L175.578 528.294C174.864 528.982 173.784 529.261 172.429 529.113L66.5321 508.474C64.4531 508.068 62.4493 506.4 62.3118 504.148L62.415 372.381C62.8156 371.119 63.9434 370.377 65.2719 370.303L172.808 389.956C173.45 390.131 174.023 390.424 174.52 390.799C173.428 389.796 172.049 389.084 170.485 388.811L62.9376 369.654C62.1864 369.52 61.6107 368.91 61.5204 368.152C61.4435 367.51 61.733 366.893 62.247 366.531C60.1936 367.262 58.6915 369.01 58.375 371.351V504.329C58.4836 505.547 59.3532 507.624 60.1314 508.671C61.1329 510.011 63.0618 511.446 64.5619 511.976L173.386 533.314C175.099 533.478 176.606 533.123 177.795 532.352C177.629 532.403 177.457 532.43 177.284 532.43C176.999 532.43 176.713 532.36 176.454 532.218Z" fill="black"/>
<path d="M176.538 444.632L177.088 396.832C177.114 395.379 176.755 394.009 176.102 392.82C176.391 393.482 176.545 394.205 176.538 394.946V444.632Z" fill="black"/>
<path d="M164.258 398.215L73.7359 381.553C72.7839 381.377 72.0156 382.011 72.0156 382.972V498.549C72.0156 499.509 72.7839 500.434 73.7359 500.619L164.258 518.191C165.225 518.378 166.006 517.748 166.006 516.78V400.286C166.006 399.318 165.225 398.393 164.258 398.215ZM162.512 514.353L75.4566 497.48V479.532L162.512 496.274V514.353ZM162.512 492.776L75.4566 476.059V448.133L162.512 464.644V492.776ZM162.512 461.146L75.4566 444.661V416.741L162.512 433.021V461.146ZM162.512 429.523L75.4566 413.268V385.342L162.512 401.392V429.523Z" fill="black"/>
<path d="M126.298 406.056L153.881 411.168C154.846 411.347 155.625 410.71 155.625 409.743C155.625 408.781 154.846 407.851 153.881 407.672L126.298 402.569C125.338 402.391 124.562 403.032 124.562 403.991C124.562 404.956 125.338 405.878 126.298 406.056Z" fill="black"/>
<path d="M126.298 415.228L153.881 420.361C154.846 420.541 155.625 419.905 155.625 418.938C155.625 417.976 154.846 417.045 153.881 416.866L126.298 411.741C125.338 411.562 124.562 412.203 124.562 413.162C124.562 414.127 125.338 415.05 126.298 415.228Z" fill="black"/>
<path d="M126.298 437.237L153.881 442.421C154.846 442.602 155.625 441.968 155.625 441C155.625 440.039 154.846 439.106 153.881 438.925L126.298 433.749C125.338 433.569 124.562 434.208 124.562 435.167C124.562 436.132 125.338 437.056 126.298 437.237Z" fill="black"/>
<path d="M126.298 446.409L153.881 451.614C154.846 451.796 155.625 451.162 155.625 450.195C155.625 449.234 154.846 448.3 153.881 448.118L126.298 442.921C125.338 442.74 124.562 443.379 124.562 444.338C124.562 445.302 125.338 446.228 126.298 446.409Z" fill="black"/>
<path d="M126.298 469.409L153.881 474.668C154.846 474.852 155.625 474.22 155.625 473.252C155.625 472.291 154.846 471.356 153.881 471.172L126.298 465.922C125.338 465.739 124.562 466.376 124.562 467.335C124.562 468.3 125.338 469.226 126.298 469.409Z" fill="black"/>
<path d="M126.298 478.582L153.881 483.861C154.846 484.046 155.625 483.414 155.625 482.447C155.625 481.486 154.846 480.55 153.881 480.366L126.298 475.094C125.338 474.91 124.562 475.547 124.562 476.506C124.562 477.471 125.338 478.398 126.298 478.582Z" fill="black"/>
<path d="M101.473 468.845C102.424 466.567 100.586 463.7 97.9652 463.31C95.0061 462.874 93.6822 466.407 95.6794 468.898C97.3318 470.971 100.58 470.977 101.473 468.845Z" fill="black"/>
<path d="M100.832 437.379C104.158 434.437 98.2688 428.447 95.4304 431.776C92.691 434.982 97.9579 439.928 100.832 437.379Z" fill="black"/>
<path d="M97.5884 406.992C103.517 408.668 102.721 400.248 97.4501 400.164C93.812 400.111 93.8639 405.94 97.5884 406.992Z" fill="black"/>
<path d="M89.7224 434.441C91.3903 431.18 87.158 427.313 84.3077 429.101C82.659 430.141 82.636 432.725 84.1871 434.43C85.8419 436.242 88.7621 436.329 89.7224 434.441Z" fill="black"/>
<path d="M89.546 467.099C91.185 464.741 88.9307 461.245 85.953 461.083C83.4018 460.939 82.2129 463.828 83.7407 466.21C85.2001 468.488 88.2465 468.96 89.546 467.099Z" fill="black"/>
<path d="M86.0892 404.856C91.8909 406.404 90.9418 397.98 85.7616 398C82.1996 398.012 82.1019 403.791 86.0892 404.856Z" fill="black"/>
<path d="M180.299 393.021C180.306 393.463 180.311 393.916 180.317 394.361C180.483 395.177 180.574 396.018 180.558 396.883L180.45 406.277C180.779 444.13 180.402 490.853 180.552 526.466L199.739 513.808C202.156 512.214 203.599 509.533 203.599 506.638V381.61C203.599 380.215 203.275 378.889 202.699 377.703L179.656 391.236C179.943 391.817 180.164 392.416 180.299 393.021Z" fill="white"/>
<path d="M177.596 388.425L200.589 374.921C199.39 373.858 197.899 373.105 196.223 372.808L98.8727 355.585C97.4036 355.324 95.9074 355.505 94.5432 356.104L69.3203 367.175C89.8469 370.775 110.487 374.464 131.189 378.291L171.091 385.398C172.227 385.597 173.293 385.963 174.276 386.455C174.532 386.505 174.788 386.554 175.044 386.604C175.955 387.048 176.827 387.676 177.596 388.425Z" fill="white"/>
<path d="M179.654 391.234L179.297 391.444C179.762 392.354 180.107 393.332 180.316 394.359C180.309 393.914 180.304 393.461 180.297 393.019C180.163 392.414 179.941 391.815 179.654 391.234Z" fill="white"/>
<path d="M180.451 406.273L179.055 527.45L180.552 526.462C180.403 490.849 180.779 444.126 180.451 406.273Z" fill="white"/>
<path d="M175.042 386.602C174.786 386.552 174.53 386.503 174.273 386.453C175.393 387.014 176.404 387.743 177.266 388.615L177.594 388.422C176.825 387.674 175.953 387.045 175.042 386.602Z" fill="white"/>
<path d="M69.1641 367.239L131.187 378.287C110.485 374.46 89.8448 370.771 69.3181 367.172L69.1641 367.239Z" fill="white"/>
<path d="M196.827 369.393L99.4773 352.169C97.3321 351.79 95.1445 352.052 93.1499 352.927L62.5477 366.36C62.4407 366.407 62.3429 366.467 62.25 366.533C62.7204 366.365 63.2196 366.251 63.7403 366.195C64.5721 366.34 65.407 366.488 66.2393 366.634L93.8468 354.515C95.5209 353.78 97.3751 353.558 99.1754 353.876L196.525 371.1C198.718 371.488 200.653 372.532 202.148 374.005L202.421 373.844L203.314 375.365C204.59 377.132 205.337 379.293 205.337 381.607V506.635C205.337 510.105 203.594 513.342 200.698 515.253L180.346 528.68C179.929 530.28 179.041 531.547 177.798 532.353C177.953 532.305 178.103 532.236 178.242 532.144L201.653 516.7C205.045 514.462 207.071 510.699 207.071 506.635V381.607C207.071 375.58 202.763 370.443 196.827 369.393Z" fill="black"/>
<path d="M176.101 392.814C175.756 392.024 175.215 391.326 174.516 390.797C175.149 391.379 175.686 392.058 176.101 392.814Z" fill="black"/>
<path d="M176.542 525.609V444.625L175.578 528.291C176.192 527.699 176.536 526.806 176.542 525.609Z" fill="black"/>
<path d="M180.342 528.68L177.284 530.698L178.825 396.85C178.854 395.233 178.476 393.695 177.791 392.33L177.764 392.346L176.923 390.914C175.482 388.962 173.326 387.55 170.784 387.104L63.2412 367.948L66.236 366.634C65.4037 366.488 64.5689 366.341 63.737 366.195C63.2163 366.251 62.7172 366.365 62.2467 366.533C61.7327 366.894 61.4432 367.512 61.5201 368.153C61.6104 368.912 62.1861 369.521 62.9373 369.655L170.485 388.812C172.049 389.086 173.428 389.797 174.52 390.801C175.219 391.33 175.76 392.028 176.105 392.818C176.758 394.007 177.117 395.377 177.092 396.83L176.541 444.63V525.614C176.536 526.811 176.191 527.704 175.578 528.296L175.55 530.678C175.543 531.319 175.891 531.912 176.453 532.219C176.713 532.361 176.999 532.431 177.284 532.431C177.457 532.431 177.628 532.405 177.794 532.353C179.038 531.547 179.926 530.281 180.342 528.68Z" fill="black"/>
<path d="M180.32 394.359C180.374 398.212 180.417 402.191 180.453 406.275L180.561 396.881C180.576 396.016 180.486 395.175 180.32 394.359Z" fill="black"/>
<path d="M131.188 378.289C145.528 380.94 159.896 383.656 174.274 386.454C173.291 385.961 172.226 385.596 171.089 385.397L131.188 378.289Z" fill="black"/>
<path d="M94.539 356.102C95.9032 355.503 97.3994 355.323 98.8685 355.583L196.219 372.807C197.894 373.103 199.386 373.857 200.585 374.919L202.143 374.004C200.648 372.531 198.713 371.487 196.52 371.1L99.1705 353.876C97.3702 353.557 95.5159 353.779 93.8419 354.514L66.2344 366.633C67.2607 366.813 68.2891 366.994 69.3161 367.174L94.539 356.102Z" fill="black"/>
<path d="M202.701 377.703C203.277 378.889 203.601 380.215 203.601 381.61V506.638C203.601 509.533 202.158 512.213 199.741 513.808L180.554 526.466C180.556 526.823 180.557 527.187 180.558 527.542C180.515 527.94 180.439 528.318 180.344 528.682L200.696 515.255C203.592 513.344 205.335 510.107 205.335 506.638V381.61C205.335 379.296 204.588 377.134 203.312 375.367L204.176 376.837L202.701 377.703Z" fill="black"/>
<path d="M170.785 387.103C173.327 387.549 175.483 388.961 176.924 390.913L176.008 389.355L177.267 388.616C176.404 387.744 175.394 387.015 174.274 386.453C159.896 383.656 145.528 380.94 131.187 378.289L69.1647 367.241L69.3188 367.174C68.2917 366.993 67.2634 366.812 66.237 366.633L63.2422 367.947L170.785 387.103Z" fill="black"/>
<path d="M180.55 526.465L179.052 527.453L180.448 406.276C180.413 402.192 180.369 398.213 180.316 394.36C180.107 393.333 179.762 392.355 179.297 391.445L177.788 392.331C178.473 393.697 178.851 395.235 178.823 396.851L177.281 530.699L180.34 528.681C180.435 528.317 180.511 527.94 180.554 527.541C180.553 527.187 180.552 526.822 180.55 526.465Z" fill="black"/>
<path d="M179.657 391.236L202.7 377.702C202.185 376.643 201.465 375.7 200.587 374.922L177.594 388.426C178.436 389.246 179.151 390.21 179.657 391.236Z" fill="black"/>
<path d="M179.292 391.442L179.649 391.232C179.143 390.206 178.428 389.242 177.586 388.422L177.258 388.615C178.077 389.443 178.759 390.399 179.292 391.442Z" fill="black"/>
<path d="M203.307 375.364L202.414 373.844L202.141 374.004C202.567 374.424 202.956 374.879 203.307 375.364Z" fill="black"/>
<path d="M177.763 392.346L177.79 392.33C177.541 391.832 177.251 391.36 176.922 390.914L177.763 392.346Z" fill="black"/>
<path d="M202.699 377.696L204.173 376.83L203.31 375.36C202.96 374.875 202.57 374.42 202.144 374L200.586 374.915C201.464 375.693 202.184 376.636 202.699 377.696Z" fill="black"/>
<path d="M177.266 388.617L176.008 389.356L176.923 390.915C177.252 391.36 177.542 391.833 177.791 392.33L179.3 391.444C178.767 390.402 178.086 389.445 177.266 388.617Z" fill="black"/>
<path d="M130.8 480.901L159.128 467.371L162.473 466.385C176.752 469.492 191.406 471.925 205.613 475.427C207.433 475.876 209.924 476.181 210.196 478.478C210.558 481.545 210.114 485.695 210.179 488.927C210.816 520.275 209.756 551.865 210.162 583.291C209.728 586.916 205.632 589.326 202.891 591.288C190.829 599.922 178.076 607.657 165.894 616.124C161.352 619.306 155.953 616.736 151.157 615.38C141.84 612.747 131.891 609.931 122.717 606.924C118.21 605.446 113.751 602.81 113.751 597.314V571.233C112.047 571.951 110.138 572.091 108.312 571.965L91.3606 567.671C91.3162 568.312 91.4145 569.064 92.0429 569.404C96.1766 570.808 104.243 571.585 105.943 576.37C107.245 580.037 105.231 582.084 102.379 583.907C97.0856 587.289 90.9353 589.869 85.68 593.417C82.8112 594.642 80.378 594.516 77.4102 593.96C65.4787 591.727 52.0013 587.415 40.1585 584.137C35.904 582.96 30.6256 581.868 26.5899 580.403C24.9378 579.803 23.5517 578.891 22.9821 577.14C21.3265 572.053 26.8158 569.839 30.3729 567.881C36.1743 564.687 42.279 562.009 48.1998 559.047L48.6059 556.738L8.01416 546.306C3.30169 544.564 0.549532 541.02 0 536L0.0365447 452.811C0.425695 450.334 1.67419 448.263 3.81801 446.923C9.34676 445.721 16.0643 441.526 21.3712 440.557C22.3393 440.38 23.3035 440.405 24.279 440.473L121.897 458.887C126.452 459.64 130.8 464.719 130.8 469.323V480.901ZM118.077 473.649V486.626L118.581 486.883C120.454 485.404 123.28 484.781 125.208 483.579C125.65 483.303 126.158 483.171 126.214 482.549C125.379 476.314 129.057 465.697 121.119 463.227L24.2763 445.051C21.8064 444.95 19.4693 445.87 17.3096 446.931L110.042 465.398C113.911 466.131 117.548 469.737 118.077 473.649ZM113.751 550.113V474.921C113.751 474.412 112.851 472.38 112.478 471.869C111.722 470.834 110.48 470.046 109.223 469.78C75.5507 463.383 41.9984 456.134 8.2821 450.115C5.96267 450.449 4.79681 451.062 4.57909 453.536L4.57387 522.985L113.751 550.113ZM202.302 479.377L162.762 470.993C151.159 475.998 139.785 481.531 128.418 487.044C127.446 487.515 126.158 488.006 125.456 488.786C125.893 488.76 126.313 488.807 126.741 488.904C136.739 491.159 148.012 493.491 157.775 496.292C160.112 496.962 162.108 497.841 163.959 499.436C172.031 495.257 180.261 491.354 188.312 487.14C192.502 484.948 197.807 482.395 201.715 479.933C201.939 479.792 202.28 479.69 202.302 479.377ZM205.864 482.936L166.147 503.457L166.69 507.225L166.68 609.91C169.864 607.768 173.271 605.907 176.48 603.808C184.695 598.437 194.732 592.121 202.382 586.198C203.303 585.486 205.864 583.515 205.864 582.301V482.936ZM118.077 491.588V597.06C118.077 598.603 119.63 601.379 121.319 601.706C133.138 604.764 145.116 609.639 156.954 612.382C158.534 612.749 160.657 613.516 162.098 612.582V506.219C162.098 505.726 161.154 503.459 160.784 502.953C160.257 502.232 159.567 501.784 158.788 501.386L118.077 491.588ZM4.58939 527.721V535.99C4.58939 538.51 7.81289 541.755 10.2427 542.297L108.566 567.385C109.55 567.654 113.379 567.203 113.71 566.23L113.768 555.065L4.58939 527.721ZM77.1069 577.594L74.0592 563.214L52.9369 558L50.6448 570.723L77.1069 577.594ZM47.0821 564.618C42.9376 566.611 38.6838 568.453 34.6098 570.591C33.5692 571.137 27.6848 574.268 27.3604 574.794C27.1278 575.171 27.1472 575.648 27.4859 575.946L79.2763 589.804C81.2064 589.968 82.5373 589.73 84.2875 588.971C89.577 586.675 94.9593 582.228 100.341 579.833C102.883 578.34 101.81 577.244 99.6738 576.277C98.8716 575.913 92.6465 574.002 92.3778 574.285C92.4218 575.132 92.4376 575.981 91.7405 576.576C89.1171 577.585 83.2414 582.921 80.8032 582.938C79.6997 582.946 77.4461 582.189 76.2388 581.9C68.76 580.111 61.0601 578.053 53.6447 575.995C52.1588 575.582 48.0144 574.708 46.9945 573.993C44.5007 572.247 47.1635 567.165 47.0821 564.618ZM87.7547 573.732L86.1432 566.397L79.146 564.619L81.6921 577.594L87.7547 573.732Z" fill="black"/>
<path d="M113.748 550.115L4.57031 522.988L4.57553 453.539C4.79325 451.065 5.95911 450.452 8.27854 450.117C41.9948 456.136 75.5472 463.386 109.22 469.782C110.477 470.049 111.719 470.836 112.474 471.871C112.847 472.382 113.748 474.414 113.748 474.924V550.115Z" fill="white"/>
<path d="M118.078 491.594L158.789 501.392C159.568 501.79 160.259 502.238 160.785 502.959C161.155 503.465 162.099 505.732 162.099 506.225V612.588C160.659 613.522 158.535 612.754 156.955 612.388C145.117 609.645 133.139 604.77 121.32 601.712C119.632 601.385 118.078 598.609 118.078 597.066V491.594ZM138.125 507.948C125.591 508.321 126.319 526.105 136.521 530.022C140.606 531.591 145.226 531.896 148.21 528.214C154.481 520.477 148.071 507.652 138.125 507.948ZM126.34 539.814C123.682 540.533 123.794 543.267 126.337 544.278C133.604 547.166 143.323 547.798 150.841 550.563C154.16 551.545 156.025 548.199 152.939 546.428L126.34 539.814Z" fill="white"/>
<path d="M205.865 482.938V582.303C205.865 583.517 203.304 585.487 202.383 586.2C194.733 592.122 184.696 598.438 176.481 603.81C173.272 605.908 169.865 607.769 166.681 609.911L166.691 507.226L166.148 503.458L205.865 482.938Z" fill="white"/>
<path d="M4.58594 527.727L113.765 555.071L113.707 566.236C113.376 567.209 109.546 567.66 108.562 567.391L10.2392 542.303C7.80943 541.761 4.58594 538.516 4.58594 535.996V527.727Z" fill="white"/>
<path d="M202.299 479.384C202.277 479.697 201.936 479.799 201.712 479.94C197.804 482.402 192.499 484.955 188.309 487.148C180.258 491.361 172.028 495.265 163.956 499.443C162.105 497.849 160.11 496.97 157.772 496.299C148.009 493.499 136.736 491.166 126.738 488.911C126.31 488.814 125.891 488.768 125.453 488.794C126.155 488.014 127.443 487.523 128.415 487.051C139.782 481.538 151.156 476.005 162.759 471L202.299 479.384Z" fill="white"/>
<path d="M47.0798 564.617C47.1612 567.164 44.4984 572.247 46.9922 573.993C48.012 574.707 52.1565 575.582 53.6423 575.994C61.0577 578.052 68.7577 580.11 76.2364 581.899C77.4438 582.188 79.6974 582.945 80.8009 582.938C83.239 582.921 89.1148 577.584 91.7382 576.575C92.4352 575.98 92.4194 575.131 92.3754 574.284C92.644 574.002 98.8692 575.913 99.6715 576.276C101.808 577.243 102.881 578.339 100.339 579.833C94.9569 582.228 89.5747 586.674 84.2852 588.97C82.535 589.729 81.2041 589.967 79.274 589.803L27.4835 575.945C27.1448 575.647 27.1255 575.17 27.3581 574.793C27.6825 574.267 33.5668 571.136 34.6075 570.59C38.6815 568.452 42.9352 566.61 47.0798 564.617Z" fill="white"/>
<path d="M118.08 473.652C117.55 469.74 113.914 466.135 110.045 465.402L17.3125 446.935C19.4722 445.874 21.8093 444.953 24.2791 445.054L121.122 463.231C129.06 465.701 125.382 476.318 126.217 482.553C126.161 483.175 125.653 483.307 125.211 483.583C123.283 484.785 120.457 485.408 118.584 486.887L118.08 486.63V473.652Z" fill="white"/>
<path d="M77.1106 577.601L50.6484 570.731L52.9406 558.008L74.0629 563.222L77.1106 577.601Z" fill="white"/>
<path d="M87.7572 573.73L81.6946 577.593L79.1484 564.617L86.1457 566.396L87.7572 573.73Z" fill="white"/>
<path d="M138.12 507.943C148.066 507.647 154.476 520.471 148.205 528.208C145.221 531.89 140.602 531.585 136.516 530.016C126.314 526.099 125.586 508.315 138.12 507.943ZM137.091 512.515C130.602 513.639 133.21 525.507 140.105 526.427C143.124 526.83 145.478 525.964 146.002 522.697C146.822 517.584 142.69 511.544 137.091 512.515Z" fill="black"/>
<path d="M126.343 539.812L152.942 546.427C156.028 548.198 154.163 551.544 150.843 550.561C143.325 547.797 133.607 547.165 126.339 544.276C123.797 543.266 123.684 540.531 126.343 539.812Z" fill="black"/>
<path d="M137.095 512.518C142.694 511.547 146.827 517.587 146.006 522.7C145.482 525.966 143.128 526.833 140.11 526.43C133.215 525.509 130.606 513.642 137.095 512.518Z" fill="white"/>
<path d="M145.095 584.142C141.829 586.845 138.497 581.157 141.824 579.46C145.182 577.748 147.554 582.108 145.095 584.142Z" fill="black"/>
<path d="M131.193 575.837C135.917 574.754 135.962 581.476 132.051 581.364C128.777 581.271 128.431 576.47 131.193 575.837Z" fill="black"/>
<path d="M138.826 516.829C143.55 515.746 143.595 522.468 139.683 522.356C136.41 522.263 136.064 517.462 138.826 516.829Z" fill="black"/>
<path d="M197.063 436.336C185.233 438.693 177.753 450.82 175.403 461.585C174.046 467.798 173.911 474.18 177.609 479.671C177.853 480.034 179.315 481.63 179.187 481.815C169.308 487.821 161.799 498.879 160.048 510.15C158.768 524.645 156.269 539.08 155.034 553.572C154.78 556.552 155.718 561.14 157.888 562.083C160.057 563.026 167.624 563.633 172.28 560.249L171.948 584.003C171.842 591.526 171.334 599.232 171.459 606.738C171.509 609.8 172.816 613.452 176.388 613.857C178.762 614.127 184.795 614.004 186.96 613.209C191.647 611.489 195.465 607.683 197.411 603.235C200.497 602.963 203.951 603.74 206.884 602.658C214.112 599.989 218.715 592.439 219.123 585.093L219.127 529.811C219.397 529.952 219.487 530.274 219.766 530.519C225.176 535.29 232.47 527.831 234.829 523.226C235.893 521.15 236.522 518.9 237 516.636V513.186C234.7 501.884 233.786 490.08 231.474 478.809C230.446 473.796 228.07 469.196 222.739 467.556L213.328 465.505C216.511 458.236 218.633 449.372 214.966 441.877C213.695 439.279 211.075 436.716 208.014 436.336H197.063ZM207.569 439.043C211.525 439.602 213.101 444.395 213.487 447.708C214.699 458.093 208.152 471.73 199.965 478.292C194.001 483.072 186.079 485.602 183.909 475.888C181.3 464.206 189.511 447.519 199.813 441.288C201.974 439.982 204.969 438.675 207.569 439.043ZM209.028 472.455C209.415 472.114 212.546 470.625 213.219 470.342C221.679 466.782 227.52 470.633 229.219 478.967C231.561 490.444 232.557 502.503 234.752 514.042C235.006 518.168 233.153 522.746 230.48 525.892C227.014 529.973 220.697 532.756 219.764 525.189L219.769 486.916C219.509 484.657 216.518 485.238 216.703 487.379L216.717 586.357C216.046 592.38 212.161 598.343 206.3 600.678C202.577 602.16 200.479 600.352 200.116 596.708L200.123 538.672C200.019 537.055 198.115 536.503 197.185 537.849L197.071 596.238C196.548 602.063 193.263 607.746 187.888 610.506C186.131 611.407 183.944 612.412 182.097 611.119C180.461 609.975 180.328 607.573 180.148 605.804L180.151 506.837C179.609 505.573 178.083 505.471 177.378 506.639L177.263 545.422C176.961 550.604 173.117 557.838 167.914 559.686C162.003 561.785 161.742 555.658 162.142 551.711C163.491 538.362 166.205 525.09 167.641 511.741C169.333 502.166 175.165 491.655 183.325 485.925C183.787 485.6 185.488 484.423 185.912 484.355C186.577 484.248 188.032 484.931 188.812 485.071C195.107 486.205 202.419 480.468 206.238 476.09C207.027 475.186 208.336 473.065 209.028 472.455Z" fill="black"/>
<path d="M209.041 472.448C208.35 473.057 207.04 475.178 206.252 476.082C202.433 480.46 195.12 486.197 188.825 485.064C188.045 484.923 186.591 484.24 185.925 484.347C185.502 484.415 183.801 485.593 183.338 485.917C175.179 491.647 169.347 502.158 167.654 511.733C166.219 525.082 163.505 538.354 162.155 551.703C161.756 555.65 162.017 561.777 167.928 559.678C173.13 557.83 176.975 550.596 177.276 545.414L177.392 506.631C178.096 505.463 179.623 505.565 180.165 506.829L180.162 605.796C180.342 607.565 180.475 609.967 182.111 611.112C183.958 612.404 186.145 611.399 187.901 610.498C193.276 607.738 196.562 602.055 197.085 596.23L197.198 537.841C198.128 536.495 200.033 537.047 200.136 538.664L200.129 596.7C200.493 600.344 202.591 602.153 206.314 600.67C212.175 598.336 216.06 592.373 216.731 586.349L216.716 487.372C216.532 485.23 219.523 484.649 219.783 486.908L219.777 525.181C220.71 532.748 227.027 529.965 230.494 525.884C233.166 522.738 235.02 518.16 234.766 514.034C232.571 502.495 231.574 490.436 229.233 478.959C227.533 470.625 221.692 466.774 213.233 470.334C212.56 470.618 209.429 472.106 209.041 472.448Z" fill="white"/>
<path d="M207.562 439.04C204.962 438.672 201.967 439.978 199.806 441.285C189.504 447.516 181.293 464.202 183.902 475.884C186.071 485.599 193.994 483.069 199.958 478.289C208.145 471.727 214.691 458.089 213.48 447.705C213.094 444.391 211.518 439.599 207.562 439.04Z" fill="white"/>
<path d="M318.888 523.308L288.792 520.522C286.282 519.858 284.182 518.153 281.999 516.819L312.331 480.795C312.552 480.675 312.728 480.841 312.901 480.957C314.696 482.159 316.444 484.262 318.236 485.537C318.482 485.713 318.758 486.008 319.074 485.961L341.425 473L347.008 476.159L346.96 497.209L318.888 513.757V523.308Z" fill="white"/>
<path d="M318.888 523.308V513.757L346.96 497.209L347.008 476.159L341.425 473L319.074 485.961C318.758 486.008 318.482 485.713 318.236 485.537C316.444 484.262 314.696 482.159 312.901 480.957C312.728 480.841 312.552 480.675 312.331 480.795L281.999 516.819C284.182 518.153 286.282 519.858 288.792 520.522L318.888 523.308ZM316.993 495.457L345.135 479.126V496.113L317.138 512.591V521.121L291.473 518.859L316.993 487.146V495.457Z" fill="black"/>
<path d="M335.12 524.829L335.426 515.289L364.372 517.423L370.83 520.298L371 520.533L339.955 559.052L339.415 559.006L331.754 554.327L311.53 565.614C310.443 564.579 308.525 563.782 307.514 562.761C307.361 562.606 307.166 562.514 307.151 562.25L307.219 541.328L335.12 524.829Z" fill="white"/>
<path d="M335.12 524.829L307.219 541.328L307.151 562.25C307.166 562.514 307.361 562.606 307.514 562.761C308.525 563.782 310.443 564.579 311.53 565.614L331.754 554.327L339.415 559.006L339.955 559.052L371 520.533L370.83 520.298L364.372 517.423L335.426 515.289L335.12 524.829ZM341.414 519.894L367.371 522.01L341.56 554.015V546.724L313.417 562.473V545.266L341.414 529.008V519.894Z" fill="black"/>
<path d="M341.41 519.891V529.004L313.414 545.263V562.469L341.556 546.721V554.012L367.367 522.006L341.41 519.891Z" fill="white"/>
<path d="M308.701 334.834C310.183 334.973 311.583 334.687 313.014 334.377C317.563 333.394 322.477 331.682 326.922 330.266C328.267 329.837 331.281 329.727 331.837 328.468C332.529 326.9 331.867 319.197 331.623 317.039C331.258 313.809 329.261 300.555 327.916 298.487C326.785 296.749 324.393 295.657 323.904 298.278C323.203 302.034 324.291 309.665 324.637 313.779C324.724 314.802 325.237 315.798 325.321 316.981C325.437 318.618 325.576 322.979 325.31 324.415C325.071 325.709 320.652 326.685 319.383 326.967C317.568 327.369 310.663 328.685 309.216 328.5C308.273 328.38 306.013 326.895 304.476 326.521C300.035 325.439 293.271 324.275 288.736 323.889C285.287 323.595 281.736 324.143 278.304 323.369C276.77 318.061 275.168 312.71 273.83 307.351C273.032 304.156 272.696 300.396 271.862 297.306C270.922 293.819 268.926 293.413 265.599 293.145C265.968 289.338 267.027 280.5 263.57 277.948C257.74 273.644 261.198 289.021 259.064 291.019C255.561 289.2 258.737 287.143 256.247 283.951C254.182 281.305 251.494 281.882 248.978 280.191C248.807 279.507 251.066 271.073 251.49 269.673C253.515 262.981 256.218 254.768 262.537 251.043C265.536 249.275 272.642 247.221 275.94 248.358C277.089 248.754 282.442 253.306 284.354 254.431C294.445 260.37 307.378 261.949 317.907 256.205C328.487 261.224 336.757 266.069 341.129 277.502C346.362 291.189 350.143 312.08 352.96 326.793C354.483 334.749 355.708 344.426 347.675 349.252C341.301 353.081 329.015 357.02 321.614 357.462C319.643 357.579 314.483 357.766 312.774 357.439C311.725 357.239 309.955 355.115 309.847 354.007L308.701 334.834Z" fill="#FBFBFB"/>
<path d="M328.486 363.101C328.217 387.296 328.839 411.527 328.503 435.723C328.408 442.516 328.697 450.593 328.127 457.253C326.863 472.019 311.404 471.473 303.762 461.843C298.101 454.71 300.094 438.71 299.883 429.686C299.567 416.189 299.16 402.575 298.441 389.085C298.296 386.38 299.329 379.322 296.942 377.832C294.249 376.152 292.393 377.766 292.101 380.596C291.427 387.118 291.974 394.808 291.757 401.451C291.257 416.733 291.409 433.742 289.97 448.773C288.836 460.611 274.688 455.463 269.117 449.853C261.055 441.736 263.763 430.801 263.848 420.531C264.003 401.804 263.695 383.069 263.833 364.341L264.658 363.502C268.056 365.028 271.476 366.727 274.954 368.055C276.838 368.775 281.286 370.624 283.083 370.544C287.683 370.339 286.183 363.156 287.571 360.521C288.377 358.991 290.609 360.36 291.66 360.535C295.578 361.188 300.028 361.671 303.836 362.491C305.518 362.853 307.329 364.061 309.284 364.136C310.538 364.184 311.566 363.542 312.767 363.459C315.925 363.242 318.874 363.913 321.965 363.823C322.955 363.794 328.251 362.872 328.486 363.101Z" fill="#FBFBFB"/>
<path d="M315.06 150.407C304.732 150.44 297.774 154.491 291.207 162.064C284.674 169.598 278.793 183.718 278.322 193.693C278.209 196.088 278.79 201.52 282.34 199.478C284.767 198.081 284.624 191.541 285.126 188.841C288.245 172.058 302.176 151.547 321.726 156.64C332.037 159.326 335.767 172.222 336.273 181.663C336.409 184.216 335.779 185.585 335.583 187.727C335.085 193.164 343.535 192.063 340.806 197.533C339.429 200.292 333.508 202.231 330.592 203.216C310.308 210.061 278.099 215.206 258.647 204.527C250.283 199.934 246.894 192.075 256.589 186.454C257.197 186.452 258.178 194.116 261.015 191.578C262.665 190.101 263.332 181.915 263.935 179.309C266.239 169.35 271.504 157.894 280.553 152.471C286.848 148.698 296.253 145.988 303.592 146.51C307.226 146.767 312.124 148.254 315.06 150.407Z" fill="#FBFBFB"/>
<path d="M324.243 211.18C325.372 216.376 326.303 221.584 326.732 226.886C325.986 254.699 298.714 262.31 280.073 243.164C272.535 235.421 266.811 225.872 267.013 214.714C267.217 214.477 269.918 215.566 270.463 215.677C288.309 219.319 306.932 215.676 324.243 211.18Z" fill="#FBFBFB"/>
<path d="M271.229 323.851C262.731 325.921 264.963 334.812 266.412 341.269C267.334 345.38 269.27 351.724 272.901 354.212C274.149 355.067 280.694 357.649 280.994 358.143C279.604 362.05 282.102 364.201 277.021 362.104C265.746 357.452 254.59 352.385 243.429 347.472C242.383 345.317 242.836 342.714 241.623 340.66C243.737 339.297 245.255 336.926 246.072 334.565C250.559 321.597 244.42 304.471 229.525 302.473C228.446 297 226.358 291.669 225.401 286.175C225.313 285.671 225.16 285.112 225.496 284.664L230.62 286.262C231.632 288.178 231.22 289.436 233.206 290.742C234.737 291.748 249.436 297.873 250.968 298.063C254.525 298.506 254.055 296.862 255.606 296.393C257.365 295.861 263.262 298.938 265.236 299.695C267.554 307.659 269.426 315.758 271.229 323.851Z" fill="#FBFBFB"/>
<path d="M304.456 356.383C297.255 354.83 288.944 354.47 282.123 351.691C277.575 349.838 275.593 348.446 273.715 343.847C272.065 339.805 269.681 330.785 276.048 329.918C284.777 329.602 293.452 330.798 301.972 332.549C303.731 333.752 302.886 342.174 303.048 344.545C303.158 346.145 304.892 355.908 304.456 356.383Z" fill="#FBFBFB"/>
<path d="M226.997 309.128C234.247 307.293 240.806 316.132 241.235 322.629C241.808 331.321 237.348 338.782 228.524 332.16C222.745 327.823 220.925 317.725 224.461 311.539C224.957 310.673 226.007 309.379 226.997 309.128Z" fill="#FBFBFB"/>
<path d="M251.108 286.791L248.111 291.377L238.391 287.318C236.927 286.23 236.791 282.402 238.854 281.898L251.108 286.791Z" fill="#FAFAFA"/>
</svg>
