<svg width="942" height="537" viewBox="0 0 942 537" fill="none" xmlns="http://www.w3.org/2000/svg">
<path d="M717.531 297.323C708.983 299.976 701.078 304.095 694.11 309.383L668.188 256.738C676.79 254.236 684.763 250.261 691.817 245.102L717.531 297.323Z" fill="white"/>
<path d="M234.536 250.758C242.177 255.365 250.692 258.671 259.776 260.362L237.635 317.221C230.102 312.417 221.666 308.902 212.641 306.984L234.536 250.758Z" fill="white"/>
<path d="M400.129 279.556C400.135 279.582 400.141 279.608 400.147 279.637C402.348 289.849 406.6 299.303 412.447 307.544L271.931 369.218C270.246 358.829 266.46 349.142 261.023 340.612L400.129 279.556ZM573.338 203.531C576.073 213.63 580.833 222.892 587.154 230.862L549.14 247.546C548.594 244.981 547.919 242.465 547.122 240.002C544.732 232.625 541.249 225.742 536.861 219.54L573.338 203.531Z" fill="white"/>
<path d="M410.183 222.851C404.804 231.356 401.063 241.001 399.402 251.34L337.648 227.09C343.156 218.659 347.038 209.069 348.849 198.766L410.183 222.851ZM676.91 327.596C671.278 335.955 667.261 345.493 665.305 355.762L538.027 305.779C543.623 297.399 547.603 287.847 549.519 277.57L676.91 327.596Z" fill="white"/>
<path d="M890.938 477.896C858.146 512.341 816.911 530.023 769.537 534.823C725.588 539.276 686.241 527.438 652.518 500.18C642.323 491.939 635.641 479.561 632.05 467.555C628.738 456.474 623.996 446.631 622.357 434.816C621.718 439.724 617.276 446.458 615.075 448.806C572.311 494.442 524.699 510.451 459.638 507.161C410.348 504.669 369.04 484.713 334.871 451.106C330.31 446.619 325.847 442.044 320.44 436.605C317.892 446.147 315.986 454.631 313.319 462.893C310.752 470.851 311.28 479.483 306.713 487.017C299.738 498.515 287.759 504.669 276.862 511.385C245.464 530.732 211.003 538.428 173.251 535.713C121.944 532.023 82.6587 508.294 49.608 473.002C34.3922 456.752 20.5843 439.429 13.0306 418.525C1.4259 386.406 -3.45458 353.39 2.63296 319.737C14.7779 252.593 56.6215 207.15 119.861 178.042C124.591 175.865 127.011 173.212 127.718 168.339C135.506 114.59 167.25 77.1991 215.53 50.3786C248.149 32.2606 282.823 28.7719 318.665 35.7894C342.734 40.5031 364.154 51.9371 382.898 67.3498C388.735 72.1479 394.407 77.1268 400.818 82.5897C405.361 77.882 409.757 73.2787 414.21 68.7215C447.385 34.7791 488.24 13.5079 535.708 4.38158C592.91 -6.61657 646.816 3.17652 695.966 32.7847C747.922 64.0801 780.999 108.8 793.718 166.223C795.548 174.497 798.936 176.765 806.731 178.556C830.123 183.939 850.51 194.987 868.841 209.926C902.79 237.594 927.724 271.071 936.806 312.832C950.193 374.382 936.075 430.066 890.938 477.896ZM97.9107 472.229C140.104 501.582 185.663 511.829 236.058 494.034C258.737 486.028 278.725 474.51 291.798 454.277C294.708 449.774 298.115 445.185 297.962 439.837C297.534 424.87 301.595 410.188 300.679 395.229C300.469 391.757 301.631 388.586 302.999 385.485C303.76 383.757 304.757 382.251 307.04 381.691C318 379.003 329.498 384.081 334.73 393.832C342.007 407.395 350.448 420.419 362.362 430.616C411.195 472.409 466.81 486.008 529.287 463.187C566.234 449.69 594.392 425.213 613.789 392.377C618.856 383.804 622.076 381.014 632.253 381.576C640.684 382.042 643.648 385.545 643.954 393.599C644.524 408.704 648.029 400.23 647.454 415.364C647.356 417.977 648.953 442.164 650.118 444.444C656.414 456.74 664.775 467.663 676.386 475.751C722.164 507.645 779.739 510.449 828.371 483.534C880.707 454.57 904.27 408.608 906.292 352.376C907.323 323.82 898.982 296.967 882.322 272.884C858.514 238.472 827.046 214.798 782.752 209.099C775.803 208.203 768.599 207.745 762.087 204.845C753.688 201.103 750.609 189.147 757.217 184.409C761.881 181.065 762.121 177.592 761.039 172.925C751.943 133.674 730.639 101.198 698.798 75.3714C656.51 41.0715 607.208 26.88 551.944 34.0581C501.171 40.6538 460.233 64.4958 427.437 101.429C420.241 109.531 415.586 119.165 411.233 128.858C409.645 132.399 407.668 133.124 403.521 132.29C396.275 130.836 391.583 127.454 389.283 120.734C388.476 118.376 387.014 116.138 385.475 114.106C354.991 73.9194 310.224 56.3838 261.571 65.2972C223.952 72.1881 195.348 93.4774 176.533 125.652C169.849 137.088 164.912 149.253 162.343 162.186C161.351 167.173 161.469 171.294 168.543 172.143C171.931 172.549 175.39 174.09 178.332 175.851C184.072 179.285 185.45 184.768 184.257 190.776C183.18 196.2 179.202 198.032 173.62 198.281C167.461 198.554 161.168 198.918 155.231 200.35C126.947 207.174 102.811 220.263 82.3093 240.629C43.5607 279.12 30.0962 324.772 37.7021 376.362C43.4904 415.625 64.5648 447.105 97.9107 472.229Z" fill="white"/>
<path d="M306.492 382.28C307.665 382.017 309.479 381.867 310.811 382.28C312.164 382.702 313.691 383.244 314.538 384.831C315.783 387.165 315.583 392.64 315.715 396.606C315.842 400.39 315.984 402.77 315.432 407.826C317.37 408.123 319.401 408.848 320.574 410.489C323.897 415.136 325.042 428.677 323.779 439.332C322.275 452.013 314.827 471.521 309.356 481.794C305.313 489.392 301.417 494.26 296.137 498.219C291.068 502.021 281.712 505.503 278.511 505.429C276.896 505.393 276.41 504.636 275.707 503.427C274.677 501.653 273.643 496.779 274.105 494.614C274.386 493.3 274.964 492.756 276.004 491.826C276.027 491.748 276.049 491.669 276.073 491.591C276.314 490.82 276.772 489.944 277.376 489.018C275.703 490.111 274.012 491.175 272.345 492.179C263.532 497.494 251.964 503.133 242.516 507.094C234.002 510.663 225.9 513.728 218.18 515.337C211.187 516.795 201.988 517.717 198.164 516.907C196.057 516.459 195.26 515.684 194.434 514.355C193.464 512.792 192.898 509.494 193.257 507.683C193.563 506.142 193.906 505.005 195.808 503.955C199.437 501.948 210.68 502.053 218.18 500.028C225.985 497.924 234.205 494.706 241.731 491.394C249.108 488.147 255.944 484.792 262.926 480.404C270.28 475.781 280.082 469.151 284.709 464.116C288.019 460.513 288.977 457.57 290.596 453.911C292.271 450.131 293.163 447.386 294.52 441.744C296.627 432.997 300.156 413.861 301.194 404.064C301.941 397.002 300.632 390.599 301.586 387.187C302.15 385.173 303.219 384.283 304.137 383.457C304.878 382.794 305.528 382.495 306.492 382.28ZM629.138 383.029C631.271 382.592 636.875 382.27 639.21 383.029C640.899 383.578 641.647 383.951 642.673 385.861C644.587 389.424 646.368 399.948 647.079 406.637C647.413 409.768 647.676 413.433 647.726 416.759C649.166 427.653 650.293 440.005 653.265 448.35C654.147 450.826 655.043 453.338 655.969 455.833C656.284 456.283 656.632 456.775 657.027 457.341C660.229 461.925 668.568 468.823 670.769 473.22C670.853 473.389 670.934 473.555 671.01 473.722C674.01 476.076 677.144 478.335 678.71 479.938C680.09 481.352 680.686 481.983 681.152 483.298C681.542 484.395 681.743 485.843 681.63 487.14C688.865 488.633 696.89 488.528 700.626 490.298C703.922 491.858 705.207 493.055 706.491 495.26C707.868 497.63 708.895 501.414 708.294 504.28C707.664 507.291 705.372 511.091 702.432 512.85C699.15 514.816 693.996 514.903 688.899 514.656C682.817 514.361 674.725 512.967 668.152 510.145C661.317 507.211 654.786 504.419 648.756 497.064C640.401 486.875 631.319 465.57 626.204 449.253C624.714 444.503 623.27 439.083 622.014 433.563C620.458 432.648 619.042 431.33 618.084 429.406C615.172 423.556 614.858 406.631 616.28 398.735C617.363 392.724 620.705 387.139 623.047 384.753C624.515 383.252 625.531 382.815 627.555 382.947C627.917 382.971 628.339 383.023 628.803 383.104C628.907 383.078 629.02 383.054 629.138 383.029Z" fill="white"/>
<path d="M306.923 138.936C281.027 120.619 245.185 126.763 226.869 152.66C208.552 178.556 214.696 214.397 240.592 232.714C266.489 251.031 302.33 244.887 320.647 218.991C338.964 193.094 332.819 157.253 306.923 138.936ZM291.004 161.443C304.47 170.967 307.665 189.605 298.14 203.071C288.616 216.537 269.978 219.733 256.512 210.208C243.046 200.683 239.851 182.045 249.375 168.579C258.9 155.113 277.538 151.918 291.004 161.443Z" fill="white"/>
<path d="M231.259 335.475C205.363 317.158 169.521 323.303 151.205 349.199C132.888 375.095 139.032 410.936 164.928 429.253C190.825 447.57 226.666 441.426 244.983 415.53C263.3 389.634 257.155 353.792 231.259 335.475ZM215.34 357.982C228.806 367.506 232.001 386.144 222.476 399.61C212.951 413.076 194.314 416.272 180.848 406.747C167.381 397.222 164.187 378.584 173.711 365.118C183.236 351.652 201.874 348.457 215.34 357.982Z" fill="white"/>
<path d="M507.376 217.264C481.48 198.947 445.639 205.092 427.322 230.988C409.005 256.884 415.149 292.726 441.046 311.042C466.942 329.359 502.783 323.215 521.1 297.319C539.417 271.423 533.273 235.581 507.376 217.264ZM491.457 239.771C504.923 249.295 508.118 267.933 498.593 281.399C489.069 294.866 470.431 298.061 456.965 288.536C443.499 279.011 440.304 260.373 449.828 246.907C459.353 233.441 477.991 230.246 491.457 239.771Z" fill="white"/>
<path d="M680.626 138.303C654.73 119.986 618.889 126.131 600.572 152.027C582.255 177.923 588.399 213.765 614.296 232.081C640.192 250.398 676.033 244.254 694.35 218.358C712.667 192.462 706.523 156.62 680.626 138.303ZM664.707 160.81C678.173 170.335 681.368 188.972 671.843 202.438C662.319 215.905 643.681 219.1 630.215 209.575C616.749 200.05 613.554 181.412 623.078 167.946C632.603 154.48 651.241 151.285 664.707 160.81Z" fill="white"/>
<path d="M774.158 322.92C748.262 304.604 712.42 310.748 694.103 336.644C675.786 362.54 681.931 398.382 707.827 416.699C733.723 435.015 769.565 428.871 787.881 402.975C806.198 377.079 800.054 341.237 774.158 322.92ZM758.238 345.427C771.705 354.952 774.9 373.59 765.375 387.056C755.85 400.522 737.212 403.717 723.746 394.192C710.28 384.667 707.085 366.029 716.61 352.563C726.135 339.097 744.772 335.902 758.238 345.427Z" fill="white"/>
<path d="M627.317 384.729C629.582 384.359 632.442 384.397 634.758 385.279C637.192 386.207 639.875 388.257 641.51 390.378C643.111 392.455 643.416 393.801 644.541 397.82C646.694 405.508 649.516 427.466 652.257 437.781C654.28 445.387 655.754 449.848 658.596 455.694C661.566 461.802 668.124 468.801 669.895 473.609C670.596 475.509 670.863 477.188 670.906 478.715C671.215 478.882 671.526 479.064 671.833 479.259C673.551 479.261 675.406 479.474 676.933 480.047C679.277 480.926 681.825 483.009 683.308 484.694C684.555 486.11 685.208 487.504 685.686 489.231C686.21 491.133 686.352 493.794 686.117 495.716C685.91 497.415 685.426 498.813 684.605 500.253C683.715 501.814 682.428 503.358 680.823 504.684C680.158 505.234 679.387 505.811 678.562 506.357C678.451 506.451 678.341 506.542 678.23 506.63C676.848 507.735 675.419 508.53 673.691 509.008C671.789 509.532 669.128 509.675 667.208 509.44C665.507 509.231 664.091 508.731 662.669 507.927C661.163 507.074 659.592 505.754 658.453 504.361C658.437 504.342 658.423 504.322 658.407 504.304C658.242 504.22 658.078 504.13 657.913 504.037C656.407 503.184 654.836 501.864 653.699 500.47C652.571 499.086 651.619 497.506 651.106 495.716C650.809 494.678 650.638 493.435 650.58 492.208C650.074 491.969 649.574 491.697 649.088 491.386C647.377 490.294 646.11 489.117 644.266 486.837C641.494 483.415 637.373 477.45 634.344 471.404C630.85 464.427 627.608 455.833 624.973 446.875C622.089 437.064 619.653 422.658 618.084 414.63C617.005 409.123 616.188 405.271 615.879 401.953C615.654 399.545 615.541 397.984 615.879 396.167C616.206 394.407 616.875 392.692 617.809 391.206C618.751 389.703 620.006 388.273 621.528 387.209C623.141 386.082 625.2 385.074 627.317 384.729ZM289.007 463.843C290.343 463.694 291.767 463.78 293.002 463.975C294.151 464.156 295.039 464.325 296.197 464.907C297.666 465.646 299.875 467.265 301.058 468.436C302.004 469.372 302.52 470.247 303.056 471.234C303.582 472.202 303.986 473.083 304.255 474.296C304.577 475.753 304.846 477.773 304.655 479.49C304.458 481.236 303.852 483.16 303.056 484.684C302.297 486.138 301.351 487.373 300.06 488.478C298.638 489.695 296.601 490.946 294.733 491.541C292.912 492.121 290.845 492.262 289.007 492.075C287.208 491.89 285.336 491.272 283.813 490.476C282.359 489.717 281.122 488.771 280.018 487.48C278.802 486.058 277.551 484.021 276.955 482.153C276.374 480.332 276.234 478.265 276.422 476.427C276.605 474.628 277.224 472.756 278.019 471.234C278.778 469.779 279.859 468.498 281.016 467.438C282.151 466.397 283.522 465.507 284.878 464.907C286.191 464.325 287.636 463.993 289.007 463.843Z" fill="white"/>
</svg>
